<?xml version="1.0" encoding="UTF-8" standalone="no"?>
<svg
   version="1.1"
   width="512"
   height="512"
   id="svg1"
   sodipodi:docname="audio.svg"
   inkscape:version="1.3 (0e150ed6c4, 2023-07-21)"
   xmlns:inkscape="http://www.inkscape.org/namespaces/inkscape"
   xmlns:sodipodi="http://sodipodi.sourceforge.net/DTD/sodipodi-0.dtd"
   xmlns="http://www.w3.org/2000/svg"
   xmlns:svg="http://www.w3.org/2000/svg">
  <defs
     id="defs1" />
  <sodipodi:namedview
     id="namedview1"
     pagecolor="#000000"
     bordercolor="#eeeeee"
     borderopacity="1"
     inkscape:showpageshadow="0"
     inkscape:pageopacity="0"
     inkscape:pagecheckerboard="0"
     inkscape:deskcolor="#505050"
     inkscape:zoom="1.0935185"
     inkscape:cx="-89.161729"
     inkscape:cy="261.08383"
     inkscape:window-width="2560"
     inkscape:window-height="1377"
     inkscape:window-x="-8"
     inkscape:window-y="-8"
     inkscape:window-maximized="1"
     inkscape:current-layer="svg1" />
  <path
     d="m 139.37875,184.08583 122.6158,-82.83379 c 7.08447,-4.904627 16.89374,0.54496 16.89374,9.26431 v 291.55313 c 0,8.71935 -9.80927,14.16894 -16.89374,9.26431 l -122.6158,-83.37875 c -1.63488,-1.08992 -3.81471,-1.63488 -5.99455,-1.63488 H 94.147138 c -5.994551,0 -10.899183,-4.90463 -10.899183,-10.89918 V 196.61989 c 0,-5.99455 4.904632,-10.89918 10.899183,-10.89918 H 133.3842 c 2.17984,0 3.81471,-0.54496 5.99455,-1.63488 z m 232.15259,230.51771 c 37.05722,-44.68665 57.22071,-100.81744 57.22071,-158.5831 0,-57.76567 -20.16349,-113.89646 -57.22071,-158.583109 -4.90463,-5.99455 -13.62398,-6.539509 -19.07357,-1.634877 -5.99455,4.904626 -6.53951,13.623976 -1.63488,19.073566 32.69755,39.23706 50.6812,89.3733 50.6812,141.14442 0,51.77111 -17.98365,101.36239 -50.6812,141.14441 -4.90463,5.99455 -3.81471,14.16894 1.63488,19.07357 2.7248,2.17984 5.44959,3.26975 8.71935,3.26975 3.81471,0 7.62942,-1.63487 10.35422,-4.90463 z m -41.96185,-34.87738 c 28.88283,-34.87739 44.68664,-78.47412 44.68664,-123.70572 0,-45.23161 -15.80381,-88.82834 -44.68664,-123.70573 -4.90464,-5.99455 -13.62398,-6.53951 -19.07357,-1.63487 -5.99455,4.90463 -6.53951,13.62397 -1.63488,19.07357 24.52316,29.97275 38.14714,67.57493 38.14714,106.26703 0,38.69209 -13.62398,76.29427 -38.14714,106.26703 -4.90463,5.44959 -3.81471,14.16893 1.63488,19.07357 2.72479,2.17983 5.44959,3.26975 8.71934,3.26975 3.81472,0 8.17439,-1.63488 10.35423,-4.90463 z m 41.96185,34.87738 c 37.05722,-44.68665 57.22071,-100.81744 57.22071,-158.5831 0,-57.76567 -20.16349,-113.89646 -57.22071,-158.583109 -4.90463,-5.99455 -13.62398,-6.539509 -19.07357,-1.634877 -5.99455,4.904626 -6.53951,13.623976 -1.63488,19.073566 32.69755,39.23706 50.6812,89.3733 50.6812,141.14442 0,51.77111 -17.98365,101.36239 -50.6812,141.14441 -4.90463,5.99455 -3.81471,14.16894 1.63488,19.07357 2.7248,2.17984 5.44959,3.26975 8.71935,3.26975 3.81471,0 7.62942,-1.63487 10.35422,-4.90463 z"
     style="fill:#ffffff;fill-opacity:1;stroke:none;stroke-width:20;stroke-dasharray:none;stroke-opacity:1"
     id="path1"
     sodipodi:nodetypes="cccsccssssssccscccsccsccscccsccsccscccsccsc" />
  <rect
     style="fill:#ffffff;fill-opacity:0;fill-rule:evenodd;stroke-width:5.28775;stroke-linecap:round;stroke-dasharray:10.5756, 21.1511;paint-order:markers stroke fill"
     id="rect2"
     width="512"
     height="512"
     x="0"
     y="0" />
</svg>
