<?xml version="1.0"?><svg width="136.743" height="136.704" xmlns="http://www.w3.org/2000/svg">
 <defs>
  <radialGradient r="63.5498" id="XMLID_2_" gradientUnits="userSpaceOnUse" cy="68.3291" cx="68.3564">
   <stop stop-color="#D4E4F7" offset="0" id="stop8"/>
   <stop stop-color="#7FB5F7" offset="1" id="stop10"/>
  </radialGradient>
 </defs>
 <g>
  <title>Layer 1</title>
  <g id="g3">
   <path fill="#5471AF" id="path5" d="m136.742996,68.330002c0,34.834999 -27.325996,64.901993 -62.044998,68.093994c-34.730999,3.192001 -67.230998,-21.228996 -73.583998,-55.576996c-6.353,-34.339001 15.08,-68.931 48.734999,-78.37c33.665001,-9.439 70.042999,8.891 82.458008,41.570001c2.940994,7.739998 4.435989,16.002998 4.435989,24.283001"/>
   <path fill="url(#XMLID_2_)" id="path12" d="m131.906006,68.330002c0,34.630997 -28.916992,63.548996 -63.548996,63.548996c-34.632999,0 -63.55,-28.917999 -63.55,-63.548996c0,-34.633003 28.917,-63.550002 63.55,-63.550002c34.631989,0 63.548996,28.915999 63.548996,63.550002"/>
   <path fill="#68A0F2" id="path14" d="m125.777,43.626999c5.135994,29.927002 -12.739998,59.992004 -41.484001,69.786003c-30.486,10.388 -64.792,-4.966003 -77.540999,-34.495003c6.126,35.736 42.872001,59.229004 77.882003,49.781998c36.149994,-9.756996 56.042999,-50.602997 41.142998,-85.072998"/>
   <path fill="#B3E7FC" id="path16" d="m108.049004,40.118c-8.789001,1.819 -18.908005,-10.632 -26.528,-13.799c-14.237007,-5.919001 -32.021004,-3.171 -44.919003,4.889c-13.643002,8.522999 -23.347001,24.896 -24.839002,40.968002c-0.004999,0.045998 -0.004999,0.056 -0.002,0.024994c1.008,-9.732998 0.328,-18.881996 4.034,-28.289997c6.141001,-15.594999 19.422998,-27.804998 35.434999,-32.709999c16.556004,-5.072 34.660999,-1.845 48.923,7.82c4.403999,2.986 21.358002,18.311001 7.896004,21.097"/>
  </g>
 </g>
</svg>