<svg xmlns="http://www.w3.org/2000/svg" width="64" height="64">
  <defs>
    <linearGradient gradientUnits="userSpaceOnUse" id="a" x1="49.50938" x2="7.6155195" y1="52.332336" y2="13.278739"><stop offset="0" stop-color="#636383"/><stop offset="1" stop-color="#b8b8c6"/></linearGradient>
    <linearGradient gradientUnits="userSpaceOnUse" id="b" x1="49.50938" x2="7.6155195" y1="52.332336" y2="13.278739"><stop offset="0" stop-color="#83839d"/><stop offset="1" stop-color="#FFF"/></linearGradient>
    <linearGradient gradientUnits="userSpaceOnUse" id="c" x1="49.50938" x2="7.6155195" y1="52.332336" y2="13.278739"><stop offset="0" stop-color="#646484"/><stop offset="1" stop-color="#b8b8c6"/></linearGradient>
    <radialGradient cx="29.184225" cy="56.632614" fx="29.184225" fy="56.632614" gradientTransform="matrix(1.8773404,0,0,1.8773404,-25.604499,-50.524559)" gradientUnits="userSpaceOnUse" id="d" r="28.284271"><stop offset="0" stop-color="#f6fcff"/><stop offset="0.30000001" stop-color="#c3eafe"/><stop offset="1" stop-color="#4d80d6"/></radialGradient>
    <radialGradient cx="70.265625" cy="-0.71875" fx="70.265625" fy="-0.71875" gradientTransform="matrix(1.6209302,0,0,1.9110975,-3.630049,8.7798513)" gradientUnits="userSpaceOnUse" id="e" r="21.984375"><stop offset="0" stop-color="#f5fcff"/><stop offset="0.69999987" stop-color="#a5d3fa"/><stop offset="1" stop-color="#8ec1f7"/></radialGradient>
  </defs>
    <g transform="translate(-80,0)">
      <path d="m111.72,0.67494c-16.983,0-30.75,13.767-30.75,30.750,0,16.983,13.767,30.75,30.75,30.75,16.983,0,30.75-13.767,30.75-30.75,0-16.983-13.767-30.750-30.75-30.750z" fill="#000" fill-rule="evenodd" opacity="0.3"/>
      <path d="m57.468,31.859c0,15.621-12.663,28.284-28.284,28.284-15.621,0-28.284-12.663-28.284-28.284,0-15.621,12.663-28.284,28.284-28.284,15.621,0,28.284,12.663,28.284,28.284z" fill="url(#a)" fill-rule="evenodd" transform="matrix(1.0871767,0,0,1.0871767,78.893026,-3.9574249)"/>
      <path d="m57.468,31.859c0,15.621-12.663,28.284-28.284,28.284-15.621,0-28.284-12.663-28.284-28.284,0-15.621,12.663-28.284,28.284-28.284,15.621,0,28.284,12.663,28.284,28.284z" fill="url(#b)" fill-rule="evenodd" transform="matrix(1.016466,0,0,1.016466,80.956663,-1.7046701)"/>
      <path d="m57.468,31.859c0,15.621-12.663,28.284-28.284,28.284-15.621,0-28.284-12.663-28.284-28.284,0-15.621,12.663-28.284,28.284-28.284,15.621,0,28.284,12.663,28.284,28.284z" fill="url(#c)" fill-rule="evenodd" transform="matrix(0.90686445,0,0,0.90686445,84.146208,1.7961928)"/>
      <path d="m57.468,31.859c0,15.621-12.663,28.284-28.284,28.284-15.621,0-28.284-12.663-28.284-28.284,0-15.621,12.663-28.284,28.284-28.284,15.621,0,28.284,12.663,28.284,28.284z" fill="url(#d)" fill-rule="evenodd" transform="matrix(0.83615377,0,0,0.83615377,86.20984,4.048949)"/>
      <path d="m110.62,7.4062c-12.337,0-22.344,10.007-22.344,22.344,0,1.8495,0.20126,3.6563,0.625,5.375,5.7579-3.8375,10.718-6.9695,22.594-6,10.934,0.89256,11.665,1.7251,20.75-4.9375-2.47-9.651-11.21-16.782-21.63-16.782z" fill="url(#e)" fill-rule="evenodd"/>
      <path d="M120.72,19.375,110.62,29.438c-0.23669-0.06332-0.49228-0.09375-0.75-0.09375-1.6109,0-2.9062,1.3266-2.9062,2.9375,0,1.6109,1.2953,2.9062,2.9062,2.9062,0.99094,0,1.8479-0.49467,2.375-1.25h8.6875v-2.9062h-7.8438l9.6562-9.625-2.0312-2.0312z" fill="#000" fill-rule="evenodd" opacity="0.1"/>
      <rect fill="#767ddb" fill-rule="evenodd" height="5" width="5" x="107.93072" y="8.9947205"/>
      <rect fill="#445fd7" fill-rule="evenodd" height="5" width="5" x="88.043335" y="27.998215"/>
      <rect fill="#2345d3" fill-rule="evenodd" height="5" width="5" x="128.26004" y="27.998215"/>
      <rect fill="#7c7edb" fill-rule="evenodd" height="5" width="5" x="107.84233" y="47.885593"/>
      <rect fill="#000" fill-rule="evenodd" height="2.9029515" width="11.109203" x="109.27799" y="30.496376"/>
      <rect fill="#000" fill-rule="evenodd" height="2.8783641" transform="matrix(0.70710678,-0.70710678,0.70710678,0.70710678,0,0)" width="18.859203" x="53.433666" y="97.672112"/>
      <path d="m32.394,31.031c0,1.8550-1.5038,3.3588-3.3588,3.3588-1.8550,0-3.3588-1.5038-3.3588-3.3588,0-1.8550,1.5038-3.3588,3.3588-3.3588,1.8550,0,3.3588,1.5038,3.3588,3.3588z" fill="#FFF" fill-rule="evenodd" stroke="#000" stroke-linecap="butt" stroke-linejoin="miter" stroke-width="2" transform="matrix(0.7213221,0,0,0.7213221,88.091573,8.6476948)"/>
    </g>
</svg>