<?xml version="1.0" encoding="UTF-8"?>
<svg width="512" height="512" version="1.1" viewBox="52 308 512 512" xmlns="http://www.w3.org/2000/svg" xmlns:cc="http://creativecommons.org/ns#" xmlns:dc="http://purl.org/dc/elements/1.1/" xmlns:rdf="http://www.w3.org/1999/02/22-rdf-syntax-ns#">
<metadata>
<rdf:RDF>
<cc:Work rdf:about="">
<dc:title>Blue Folder</dc:title>
<dc:description/>
<dc:subject>
<rdf:Bag>
<rdf:li>hash</rdf:li>
<rdf:li>icon</rdf:li>
<rdf:li/>
<rdf:li>education</rdf:li>
<rdf:li>computer</rdf:li>
<rdf:li>folder</rdf:li>
</rdf:Bag>
</dc:subject>
<dc:publisher>
<cc:Agent rdf:about="http://www.openclipart.org">
<dc:title>Seth Yastrov</dc:title>
</cc:Agent>
</dc:publisher>
<dc:creator>
<cc:Agent>
<dc:title>Seth Yastrov</dc:title>
</cc:Agent>
</dc:creator>
<dc:rights>
<cc:Agent>
<dc:title>Seth Yastrov</dc:title>
</cc:Agent>
</dc:rights>
<dc:date/>
<dc:format>image/svg+xml</dc:format>
<dc:type rdf:resource="http://purl.org/dc/dcmitype/StillImage"/>
<cc:license rdf:resource="http://web.resource.org/cc/PublicDomain"/>
<dc:language>en</dc:language>
</cc:Work>
<cc:License rdf:about="http://web.resource.org/cc/PublicDomain">
<cc:permits rdf:resource="http://web.resource.org/cc/Reproduction"/>
<cc:permits rdf:resource="http://web.resource.org/cc/Distribution"/>
<cc:permits rdf:resource="http://web.resource.org/cc/DerivativeWorks"/>
</cc:License>
</rdf:RDF>
</metadata>
<rect x="52" y="308" width="512" height="512" fill-opacity="0" stroke-dasharray="10.5756, 21.1511" stroke-linecap="round" stroke-width="5.2878" style="paint-order:markers stroke fill"/>
<g transform="matrix(.65563 0 0 .65563 57.334 212.13)" stroke="#fff" stroke-dashoffset="1.25" stroke-width="30.505">
<path d="m100.56 363.89c-9.311 2.2122-15.031 11.497-12.818 20.808l77.087 340.02c2.2122 9.311 11.466 15.038 20.778 12.826l434.19-103.16c9.311-2.2122 15.031-11.497 12.818-20.808l-54.215-263.8c-2.2122-9.311-11.497-14.311-20.808-12.818l-253.26 37.674s-23.541-41.655-32.852-39.442z" color="#000000" display="block" fill="none"/>
<path d="m657.01 396.91-426.68 70.659c-9.311 2.2122-17.252 9.9533-18.256 18.939l-46.741 239.1c1.9673 8.2802 11.047 14.438 20.358 12.225l434.18-103.16c9.311-2.2122 12.344-10.119 14.245-18.31l43.251-208.51c0.58228-15.164-11.767-11.726-20.358-10.953z" color="#000000" display="block" stroke="#fff"/>
</g>
</svg>
