<?xml version="1.0" encoding="UTF-8"?>
<svg width="512" height="512" version="1.1" viewBox="0 0 384 384" xmlns="http://www.w3.org/2000/svg">
<path transform="matrix(2.6245 0 0 2.6245 58.096 318.64)" d="m78.664 0-3.2539-13.359h-0.70312c-4.5117 5.6836-9.1406 9.625-13.887 11.82-4.7461 2.1992-10.867 3.2969-18.367 3.2969-9.5508 0-17.039-2.5195-22.457-7.5586-5.4219-5.0391-8.1289-12.098-8.1289-21.184 0-19.453 14.938-29.648 44.82-30.586l17.844-0.61328v-6.0664c0-13.828-7.1484-20.742-21.445-20.742-8.6133 0-18.223 2.4062-28.828 7.2109l-5.5391-12.043c11.484-5.625 22.707-8.4375 33.664-8.4375 13.301 0 22.926 2.5508 28.871 7.6445 5.9492 5.0977 8.9219 13.273 8.9219 24.523v66.094zm-4.3086-47.195-14.238 0.61328c-11.484 0.46875-19.629 2.2695-24.434 5.4062-4.8047 3.1328-7.207 7.9258-7.207 14.371 0 10.43 5.8594 15.641 17.578 15.641 8.6133 0 15.484-2.3867 20.609-7.1602 5.1289-4.7773 7.6914-11.5 7.6914-20.172z" fill="#fff"/>
<rect x="4.2633e-14" y="4.2633e-14" width="384" height="384" fill-opacity="0" stroke-dasharray="7.9317, 15.8633" stroke-linecap="round" stroke-width="3.9658" style="paint-order:markers stroke fill"/>
</svg>
