<?xml version="1.0" encoding="UTF-8" standalone="no"?>
<!-- Generator: Adobe Illustrator 15.1.0, SVG Export Plug-In . SVG Version: 6.00 Build 0)  -->

<svg
   xmlns:dc="http://purl.org/dc/elements/1.1/"
   xmlns:cc="http://creativecommons.org/ns#"
   xmlns:rdf="http://www.w3.org/1999/02/22-rdf-syntax-ns#"
   xmlns:svg="http://www.w3.org/2000/svg"
   xmlns="http://www.w3.org/2000/svg"
   xmlns:sodipodi="http://sodipodi.sourceforge.net/DTD/sodipodi-0.dtd"
   xmlns:inkscape="http://www.inkscape.org/namespaces/inkscape"
   version="1.1"
   x="0px"
   y="0px"
   width="32px"
   height="32px"
   viewBox="0 0 32 32"
   style="enable-background:new 0 0 32 32;"
   xml:space="preserve"
   id="svg2"
   inkscape:version="0.48.2 r9819"
   sodipodi:docname="fullscreen_exit.svg"><metadata
   id="metadata20"><rdf:RDF><cc:Work
       rdf:about=""><dc:format>image/svg+xml</dc:format><dc:type
         rdf:resource="http://purl.org/dc/dcmitype/StillImage" /></cc:Work></rdf:RDF></metadata><defs
   id="defs18"><radialGradient
     r="63.549801"
     id="XMLID_2_"
     gradientUnits="userSpaceOnUse"
     cy="68.329102"
     cx="68.3564"><stop
       stop-color="#D4E4F7"
       offset="0"
       id="stop8" /><stop
       stop-color="#7FB5F7"
       offset="1"
       id="stop10" /></radialGradient></defs><sodipodi:namedview
   pagecolor="#ffffff"
   bordercolor="#666666"
   borderopacity="1"
   objecttolerance="10"
   gridtolerance="10"
   guidetolerance="10"
   inkscape:pageopacity="0"
   inkscape:pageshadow="2"
   inkscape:window-width="1227"
   inkscape:window-height="720"
   id="namedview16"
   showgrid="false"
   inkscape:zoom="7.375"
   inkscape:cx="-8.9491525"
   inkscape:cy="16"
   inkscape:window-x="190"
   inkscape:window-y="154"
   inkscape:window-maximized="0"
   inkscape:current-layer="svg2" />
<g
   id="Layer_1">
</g>
<g
   transform="matrix(0.23401587,0,0,0.2340826,-3.2370521e-5,-8.7304755e-5)"
   id="g9"><title
     id="title11">Layer 1</title><g
     id="g3"><path
       style="fill:#5471af"
       inkscape:connector-curvature="0"
       id="path5"
       d="M 136.743,68.330002 C 136.743,103.165 109.417,133.23199 74.697998,136.424 39.966999,139.616 7.467,115.195 1.114,80.847 -5.239,46.507999 16.194,11.916 49.848999,2.477 83.514,-6.962 119.892,11.368 132.30701,44.047001 135.248,51.786999 136.743,60.049999 136.743,68.330002" /><path
       style="fill:url(#XMLID_2_)"
       inkscape:connector-curvature="0"
       id="path12"
       d="m 131.90601,68.330002 c 0,34.630998 -28.917,63.548998 -63.549,63.548998 -34.632999,0 -63.55,-28.918 -63.55,-63.548998 0,-34.633003 28.917,-63.550002 63.55,-63.550002 34.63199,0 63.549,28.915999 63.549,63.550002" /><path
       style="fill:#68a0f2"
       inkscape:connector-curvature="0"
       id="path14"
       d="M 125.777,43.626999 C 130.91299,73.554001 113.037,103.619 84.292999,113.413 53.806999,123.801 19.500999,108.447 6.752,78.917999 12.878,114.654 49.624001,138.147 84.634003,128.7 120.784,118.943 140.677,78.097 125.777,43.626999" /><path
       style="fill:#b3e7fc"
       inkscape:connector-curvature="0"
       id="path16"
       d="M 108.049,40.118 C 99.260003,41.937 89.140999,29.486 81.521004,26.319 67.283997,20.399999 49.5,23.148 36.602001,31.208 22.958999,39.730999 13.255,56.104 11.762999,72.176002 c -0.005,0.046 -0.005,0.056 -0.002,0.02499 1.008,-9.732998 0.328,-18.881996 4.034,-28.289997 C 21.936,28.316 35.217997,16.106001 51.229998,11.201 67.786002,6.129 85.890997,9.356 100.153,19.021 c 4.404,2.986 21.358,18.311001 7.896,21.097" /></g></g><g
   id="fullscreen_x5F_exit"
   transform="matrix(0.63,0,0,0.63,5.92,5.92)">
	<g
   id="g6">
		<polygon
   style="fill:#010101"
   points="20,20 20,32 24.586,27.414 29.172,32 32,29.172 27.414,24.586 32,20 "
   id="polygon8" />
		<polygon
   style="fill:#010101"
   points="0.047,2.871 4.586,7.414 0,12 12,12 12,0 7.414,4.586 2.875,0.043 "
   id="polygon10" />
		<polygon
   style="fill:#010101"
   points="0,20 4.586,24.586 0,29.172 2.828,32 7.414,27.414 12,32 12,20 "
   id="polygon12" />
		<polygon
   style="fill:#010101"
   points="24.586,4.586 20,0 20,12 32,12 27.414,7.414 31.961,2.871 29.133,0.043 "
   id="polygon14" />
	</g>
</g>
</svg>