<?xml version="1.0" encoding="UTF-8" standalone="no"?>
<!-- Created with Inkscape (http://www.inkscape.org/) -->

<svg
   xmlns:dc="http://purl.org/dc/elements/1.1/"
   xmlns:cc="http://creativecommons.org/ns#"
   xmlns:rdf="http://www.w3.org/1999/02/22-rdf-syntax-ns#"
   xmlns:svg="http://www.w3.org/2000/svg"
   xmlns="http://www.w3.org/2000/svg"
   xmlns:xlink="http://www.w3.org/1999/xlink"
   xmlns:sodipodi="http://sodipodi.sourceforge.net/DTD/sodipodi-0.dtd"
   xmlns:inkscape="http://www.inkscape.org/namespaces/inkscape"
   height="123.5471"
   id="svg1428"
   inkscape:version="0.48.2 r9819"
   sodipodi:docname="11949856611378140648gnome-dev-harddisk.svg"
   sodipodi:version="0.32"
   width="134.37076"
   version="1.1">
  <metadata
     id="metadata3">
    <rdf:RDF>
      <cc:Work
         rdf:about="">
        <dc:title></dc:title>
        <dc:description />
        <dc:subject>
          <rdf:Bag>
            <rdf:li>hash</rdf:li>
            <rdf:li />
            <rdf:li>hardware</rdf:li>
            <rdf:li>computer</rdf:li>
            <rdf:li>icons</rdf:li>
            <rdf:li>device</rdf:li>
          </rdf:Bag>
        </dc:subject>
        <dc:publisher>
          <cc:Agent
             rdf:about="http://www.openclipart.org">
            <dc:title>Andy Fitzsimon</dc:title>
          </cc:Agent>
        </dc:publisher>
        <dc:creator>
          <cc:Agent>
            <dc:title>Andy Fitzsimon</dc:title>
          </cc:Agent>
        </dc:creator>
        <dc:rights>
          <cc:Agent>
            <dc:title>Andy Fitzsimon</dc:title>
          </cc:Agent>
        </dc:rights>
        <dc:date />
        <dc:format>image/svg+xml</dc:format>
        <dc:type
           rdf:resource="http://purl.org/dc/dcmitype/StillImage" />
        <cc:license
           rdf:resource="http://web.resource.org/cc/PublicDomain" />
        <dc:language>en</dc:language>
      </cc:Work>
      <cc:License
         rdf:about="http://web.resource.org/cc/PublicDomain">
        <cc:permits
           rdf:resource="http://web.resource.org/cc/Reproduction" />
        <cc:permits
           rdf:resource="http://web.resource.org/cc/Distribution" />
        <cc:permits
           rdf:resource="http://web.resource.org/cc/DerivativeWorks" />
      </cc:License>
    </rdf:RDF>
  </metadata>
  <defs
     id="defs1430">
    <linearGradient
       id="linearGradient1551">
      <stop
         id="stop1552"
         offset="0.0000000"
         style="stop-color:#ffffff;stop-opacity:0.0000000;" />
      <stop
         id="stop1553"
         offset="1.0000000"
         style="stop-color:#ffffff;stop-opacity:1.0000000;" />
    </linearGradient>
    <linearGradient
       id="linearGradient1546">
      <stop
         id="stop1547"
         offset="0.0000000"
         style="stop-color:#000;stop-opacity:1;" />
      <stop
         id="stop1548"
         offset="1.0000000"
         style="stop-color:#9a9a9a;stop-opacity:1.0000000;" />
    </linearGradient>
    <linearGradient
       id="linearGradient1502">
      <stop
         id="stop1503"
         offset="0.0000000"
         style="stop-color:#000000;stop-opacity:0.0000000;" />
      <stop
         id="stop1506"
         offset="1.0000000"
         style="stop-color:#000000;stop-opacity:0.28125000;" />
    </linearGradient>
    <linearGradient
       id="linearGradient1494">
      <stop
         id="stop1495"
         offset="0.0000000"
         style="stop-color:#9d8f6a;stop-opacity:1.0000000;" />
      <stop
         id="stop1496"
         offset="0.49619800"
         style="stop-color:#ffffff;stop-opacity:1.0000000;" />
      <stop
         id="stop1498"
         offset="0.52539647"
         style="stop-color:#bfb5a5;stop-opacity:1.0000000;" />
      <stop
         id="stop1497"
         offset="1.0000000"
         style="stop-color:#f7f7f7;stop-opacity:1.0000000;" />
    </linearGradient>
    <linearGradient
       id="linearGradient1461">
      <stop
         id="stop1462"
         offset="0.0000000"
         style="stop-color:#ffffff;stop-opacity:0.0000000;" />
      <stop
         id="stop1464"
         offset="0.50000000"
         style="stop-color:#ffffff;stop-opacity:1.0000000;" />
      <stop
         id="stop1463"
         offset="1.0000000"
         style="stop-color:#ffffff;stop-opacity:0.0000000;" />
    </linearGradient>
    <linearGradient
       id="linearGradient1454">
      <stop
         id="stop1455"
         offset="0"
         style="stop-color:#000;stop-opacity:1;" />
      <stop
         id="stop1456"
         offset="1"
         style="stop-color:#fff;stop-opacity:1;" />
    </linearGradient>
    <linearGradient
       id="linearGradient1457"
       x1="28.813946"
       x2="10.582993"
       xlink:href="#linearGradient1551"
       y1="221.79577"
       y2="235.65098"
       gradientTransform="matrix(1.7094086,0,0,0.58499763,-10.265623,-26.836362)"
       gradientUnits="userSpaceOnUse" />
    <linearGradient
       id="linearGradient1458"
       x1="55.601124"
       x2="40.876814"
       xlink:href="#linearGradient1454"
       y1="-30.810305"
       y2="218.58856"
       gradientTransform="matrix(1.0821338,0,0,0.92410015,-10.265623,-26.836362)"
       gradientUnits="userSpaceOnUse" />
    <linearGradient
       id="linearGradient1459"
       xlink:href="#linearGradient1502" />
    <linearGradient
       id="linearGradient1460"
       x1="55.239422"
       x2="25.401431"
       xlink:href="#linearGradient1461"
       y1="97.356404"
       y2="29.790384"
       gradientTransform="matrix(0.94258534,0,0,1.0609119,-10.265623,-26.836362)"
       gradientUnits="userSpaceOnUse" />
    <linearGradient
       id="linearGradient1465"
       x1="66.679364"
       x2="66.679364"
       xlink:href="#linearGradient1494"
       y1="28.158081"
       y2="107.53253"
       gradientTransform="matrix(1.1618002,0,0,0.86073318,-10.265623,-26.836362)"
       gradientUnits="userSpaceOnUse" />
    <linearGradient
       id="linearGradient1466"
       x1="47.242914"
       x2="109.62949"
       xlink:href="#linearGradient1461"
       y1="77.450201"
       y2="76.10269"
       gradientTransform="matrix(1.1618002,0,0,0.86073318,-10.265623,-26.836362)"
       gradientUnits="userSpaceOnUse" />
    <linearGradient
       id="linearGradient1467"
       x1="55.045112"
       x2="109.27901"
       xlink:href="#linearGradient1461"
       y1="85.877013"
       y2="88.113353"
       gradientTransform="matrix(1.1625356,0,0,0.86018868,-10.265623,-26.836362)"
       gradientUnits="userSpaceOnUse" />
    <linearGradient
       id="linearGradient1468"
       x1="48.888289"
       x2="99.629566"
       xlink:href="#linearGradient1461"
       y1="90.157752"
       y2="86.570913"
       gradientTransform="matrix(1.1621146,0,0,0.86050035,-10.265623,-26.836362)"
       gradientUnits="userSpaceOnUse" />
    <linearGradient
       id="linearGradient1469"
       x1="71.901497"
       x2="85.293271"
       xlink:href="#linearGradient1494"
       y1="69.209006"
       y2="102.17883"
       gradientTransform="matrix(1.1795991,0,0,0.84774561,-10.265623,-26.836362)"
       gradientUnits="userSpaceOnUse" />
    <linearGradient
       id="linearGradient1471"
       x1="64.11688"
       x2="37.547989"
       xlink:href="#linearGradient1546"
       y1="47.803506"
       y2="140.37704"
       gradientTransform="matrix(1.3294867,0,0,0.75217,-10.265623,-26.836362)"
       gradientUnits="userSpaceOnUse" />
    <linearGradient
       id="linearGradient1500"
       x1="53.64779"
       x2="53.64779"
       xlink:href="#linearGradient1494"
       y1="101.89593"
       y2="160.91232"
       gradientTransform="matrix(1.2892437,0,0,0.77564852,-10.265623,-26.836362)"
       gradientUnits="userSpaceOnUse" />
    <linearGradient
       id="linearGradient1501"
       x1="69.36359"
       x2="71.684405"
       xlink:href="#linearGradient1494"
       y1="56.763401"
       y2="101.294"
       gradientTransform="matrix(1.2039799,0,0,0.83057864,-10.265623,-26.836362)"
       gradientUnits="userSpaceOnUse" />
    <linearGradient
       id="linearGradient1507"
       x1="182.83167"
       x2="205.01574"
       xlink:href="#linearGradient1502"
       y1="175.80452"
       y2="309.79909"
       gradientTransform="scale(1.0229615,0.97755389)"
       gradientUnits="userSpaceOnUse" />
    <linearGradient
       id="linearGradient1550"
       x1="57.724482"
       x2="55.957408"
       xlink:href="#linearGradient1502"
       y1="184.34286"
       y2="144.17274"
       gradientTransform="matrix(1.6363278,0,0,0.61112449,-10.265623,-26.836362)"
       gradientUnits="userSpaceOnUse" />
    <linearGradient
       id="linearGradient1555"
       x1="83.123483"
       x2="77.120084"
       xlink:href="#linearGradient1494"
       y1="92.632268"
       y2="56.941835"
       gradientTransform="matrix(1.1621146,0,0,0.86050035,-10.265623,-26.836362)"
       gradientUnits="userSpaceOnUse" />
    <linearGradient
       id="linearGradient1556"
       xlink:href="#linearGradient1551" />
    <linearGradient
       inkscape:collect="always"
       xlink:href="#linearGradient1502"
       id="linearGradient3044"
       x1="179.83599"
       y1="178.66379"
       x2="200.25706"
       y2="302.00962"
       gradientTransform="scale(1.0307764,0.97014252)"
       gradientUnits="userSpaceOnUse" />
    <linearGradient
       inkscape:collect="always"
       xlink:href="#linearGradient1502"
       id="linearGradient3046"
       x1="178.64995"
       y1="179.87529"
       x2="198.41254"
       y2="299.24383"
       gradientTransform="scale(1.0344279,0.96671791)"
       gradientUnits="userSpaceOnUse" />
    <linearGradient
       inkscape:collect="always"
       xlink:href="#linearGradient1502"
       id="linearGradient3048"
       x1="181.35894"
       y1="177.20132"
       x2="202.65994"
       y2="305.86199"
       gradientTransform="scale(1.0266786,0.97401464)"
       gradientUnits="userSpaceOnUse" />
    <linearGradient
       inkscape:collect="always"
       xlink:href="#linearGradient1502"
       id="linearGradient3050"
       x1="182.83167"
       y1="175.80452"
       x2="205.01574"
       y2="309.79909"
       gradientTransform="scale(1.0229615,0.97755389)"
       gradientUnits="userSpaceOnUse" />
    <linearGradient
       inkscape:collect="always"
       xlink:href="#linearGradient1502"
       id="linearGradient3052"
       x1="177.86378"
       y1="181.42771"
       x2="197.19272"
       y2="298.17695"
       gradientTransform="scale(1.0368908,0.96442174)"
       gradientUnits="userSpaceOnUse" />
  </defs>
  <sodipodi:namedview
     bordercolor="#666666"
     borderopacity="1.0"
     id="base"
     inkscape:cx="281.90769"
     inkscape:cy="167.988"
     inkscape:pageopacity="0.0"
     inkscape:pageshadow="2"
     inkscape:window-height="546"
     inkscape:window-width="548"
     inkscape:window-x="139"
     inkscape:window-y="25"
     inkscape:zoom="0.64"
     pagecolor="#ffffff"
     showborder="false"
     showgrid="false"
     fit-margin-top="0"
     fit-margin-left="0"
     fit-margin-right="0"
     fit-margin-bottom="0"
     inkscape:window-maximized="0"
     inkscape:current-layer="svg1428" />
  <g
     id="g1583"
     style="fill:url(#linearGradient1507)"
     transform="matrix(1.084455,0,0,1.043417,-110.78386,-136.85066)">
    <path
       d="m 187.3221,244.31589 34.25383,-85.18386 0,-10.817 -73.46544,-12.16912 -41.46516,80.22606 0.90142,10.36629 79.77535,17.57763 z"
       id="path1557"
       style="fill:url(#linearGradient3044);fill-opacity:1;fill-rule:evenodd;stroke-width:1pt"
       inkscape:connector-curvature="0" />
    <path
       d="m 108.34375,216.71875 c 0.72103,2.87033 -0.69789,8.43124 2.87454,9.09037 25.02098,5.51154 50.04197,11.02309 75.06296,16.53463 11.19792,-27.89583 22.39583,-55.79167 33.59375,-83.6875 -0.15593,-2.83108 0.7119,-7.01428 -0.9743,-9.0318 -23.2794,-3.8644 -46.5588,-7.7288 -69.8382,-11.5932 -13.57292,26.22917 -27.14583,52.45833 -40.71875,78.6875 z"
       id="path1562"
       style="fill:url(#linearGradient3046);fill-opacity:1;fill-rule:evenodd;stroke-width:1pt"
       inkscape:connector-curvature="0" />
    <path
       d="m 146.6875,134.03125 c -14.05849,27.51462 -28.35222,55.01917 -42.28125,82.53125 0.49896,4.07347 -0.12248,8.95914 2.21875,12.34375 27.35479,6.00744 54.7046,12.03864 82.0625,18.03125 11.712,-29.26578 23.51718,-58.52116 35.125,-87.8125 0,-4.27083 0,-8.54167 0,-12.8125 -25.65035,-4.18856 -51.28958,-8.45093 -76.9375,-12.65625 l -0.1875,0.375 z"
       id="path1567"
       style="fill:url(#linearGradient3048);fill-opacity:1;fill-rule:evenodd;stroke-width:1pt"
       inkscape:connector-curvature="0" />
    <path
       d="m 145.4375,131.53125 c -14.39455,28.38822 -29.01667,56.77031 -43.28125,85.15625 0.48682,4.95066 0.042,10.80189 3.96875,14.46875 27.97978,6.13251 55.95469,12.28823 83.9375,18.40625 12.00532,-30.14012 24.09952,-60.27155 36,-90.4375 0,-4.9375 0,-9.875 0,-14.8125 -26.81685,-4.35623 -53.62306,-8.78336 -80.4375,-13.15625 l -0.1875,0.375 z"
       id="path1576"
       style="fill:url(#linearGradient3050);fill-opacity:1;fill-rule:evenodd;stroke-width:1pt"
       inkscape:connector-curvature="0" />
    <path
       d="m 109.46821,217.57928 c 0.31941,3.11898 -0.13182,8.49828 4.37478,8.34292 23.91675,5.28152 47.83348,10.56305 71.75022,15.84458 11.05208,-27.5625 22.10417,-55.125 33.15625,-82.6875 0.0414,-2.97207 1.15495,-8.4234 -3.42825,-8.15974 -21.87809,-3.64467 -43.75617,-7.28934 -65.63425,-10.93401 -13.40625,25.86458 -26.8125,51.72917 -40.21875,77.59375 z"
       id="path1582"
       style="fill:url(#linearGradient3052);fill-opacity:1;fill-rule:evenodd;stroke-width:1pt"
       inkscape:connector-curvature="0" />
  </g>
  <path
     d="m 91.138717,117.36015 37.146733,-92.378056 0,-11.730549 L 48.615479,0.05468209 3.6483819,87.056238 4.6259269,98.298008 91.138717,117.36015 z"
     id="path1432"
     style="fill:#525252;fill-rule:evenodd;stroke-width:1pt"
     inkscape:connector-curvature="0" />
  <path
     d="M 4.5962789,86.710618 90.649947,106.11838 127.79668,14.229094 48.982061,0.91003309 4.5962789,86.710618 z"
     id="path1433"
     sodipodi:nodetypes="ccccc"
     style="fill:url(#linearGradient1458);fill-rule:evenodd;stroke-width:1pt"
     inkscape:connector-curvature="0" />
  <path
     d="m 31.508431,50.398281 -7.820365,2.932636 -12.708092,24.927421 5.865274,10.26422 34.214094,7.82036 5.865276,-2.93263 3.91018,1.46632 1.734121,4.00385 21.994777,4.887722 9.996431,-9.869122 10.753003,-26.39373 -7.331593,0 c -2.44387,0 -18.736295,10.18277 -38.124283,5.376503 C 39.980492,68.075565 33.626449,53.656765 31.508431,50.398281 z"
     id="path1470"
     sodipodi:nodetypes="cccccccccccczc"
     style="fill:url(#linearGradient1471);fill-opacity:1;fill-rule:evenodd;stroke-width:1pt"
     inkscape:connector-curvature="0" />
  <path
     d="M 92.226097,15.484416 C 73.044493,10.761019 43.494447,15.254009 34.854082,35.530062 26.213717,55.114888 47.123398,70.552339 61.120789,73.202048 76.155024,75.851768 101.90331,70.321928 110.54367,53.502019 119.52965,36.68211 111.75333,20.207816 92.226097,15.484416 z"
     id="path1439"
     sodipodi:nodetypes="czzzz"
     style="fill:url(#linearGradient1555);fill-rule:evenodd;stroke:url(#linearGradient1468);stroke-width:0.89126021"
     inkscape:connector-curvature="0" />
  <path
     d="m 97.969357,81.614828 -5.07372,0 C 71.039603,94.103988 34.74297,82.785688 27.327529,65.222796 l -8.196014,0.390286 3.122291,-7.805728 7.415442,-1.951431 C 35.913829,70.8169 62.453303,87.339028 95.237357,72.638237 l 7.025153,-0.390286 -4.293153,9.366877 z"
     id="path1554"
     sodipodi:nodetypes="ccccccccc"
     style="fill:url(#linearGradient1550);fill-opacity:1;fill-rule:evenodd;stroke-width:1pt"
     inkscape:connector-curvature="0" />
  <path
     d="M 92.470487,13.332351 C 73.288881,8.6089551 43.738837,13.101945 35.098472,33.377998 26.458107,52.962824 47.367786,68.400275 61.365178,71.049987 76.399412,73.699698 102.1477,68.169865 110.78806,51.349955 119.77404,34.530046 111.99771,18.055753 92.470487,13.332351 z"
     id="path1438"
     sodipodi:nodetypes="czzzz"
     style="fill-opacity:0.24999994;fill-rule:evenodd;stroke:url(#linearGradient1467);stroke-width:0.72149634"
     inkscape:connector-curvature="0" />
  <path
     d="M 93.025357,10.352322 C 73.843747,5.6289251 44.293702,10.121916 35.653337,30.397969 27.012973,49.982794 47.922652,65.420246 61.920045,68.069956 76.954279,70.719668 102.70256,65.189835 111.34294,48.369926 120.3289,31.550017 112.55258,15.075722 93.025357,10.352322 z"
     id="path1437"
     sodipodi:nodetypes="czzzz"
     style="fill:url(#linearGradient1465);fill-rule:evenodd;stroke:url(#linearGradient1466);stroke-width:1.01858306"
     inkscape:connector-curvature="0" />
  <path
     d="m 73.357825,25.084252 c -8.894498,0.790312 -13.659443,7.547048 -13.331931,12.056964 0.277448,3.820501 2.482694,11.919193 14.996612,10.86604 12.341563,-1.040639 14.22369,-9.320646 13.551469,-13.805529 -0.277445,-3.8205 -6.85123,-10.042587 -15.21615,-9.117475 z"
     id="path1435"
     sodipodi:nodetypes="czzzz"
     style="fill-opacity:0.45833333;fill-rule:evenodd;stroke-width:1pt"
     inkscape:connector-curvature="0" />
  <path
     d="m 73.351394,25.175873 c -8.894494,0.790312 -13.659442,7.547049 -13.331927,12.056965 0.277445,3.820501 5.939402,9.415751 14.981218,8.268222 9.05433,-0.975178 14.239084,-6.722829 13.566863,-11.20771 -0.277449,-3.820502 -6.851234,-10.042587 -15.216154,-9.117477 z"
     id="path1436"
     sodipodi:nodetypes="czzzz"
     style="fill:url(#linearGradient1469);fill-rule:evenodd;stroke-width:1pt"
     inkscape:connector-curvature="0" />
  <path
     d="m 32.594138,54.104121 -9.042298,7.820365 c -6.235735,5.609839 -0.531988,18.556882 5.620887,22.483552 l 0.244387,5.62088 4.643342,1.22194 2.688248,-4.15457 11.974934,2.68825 5.132117,-12.21932 C 35.648967,81.027358 29.905887,67.871221 39.803537,62.90203 36.17847,60.213779 34.019726,57.525531 32.594138,54.104121 z"
     id="path1440"
     sodipodi:nodetypes="cccccccccc"
     style="fill:url(#linearGradient1460);fill-rule:evenodd;stroke:none"
     inkscape:connector-curvature="0" />
  <path
     d="m 51.445358,62.367317 c -3.036373,1.439689 -7.483914,0.230411 -10.019782,2.419301 -2.683769,2.361701 -4.603968,6.624281 0.827936,10.54125 5.629613,4.08977 10.700428,1.81218 14.908188,-2.07369 L 83.545859,48.888347 80.237616,48.715542 51.445358,62.367317 z"
     id="path1434"
     sodipodi:nodetypes="czzzccz"
     style="fill-opacity:0.30208333;fill-rule:evenodd;stroke-width:1pt"
     inkscape:connector-curvature="0" />
  <path
     d="m 74.383137,30.967007 c -2.311086,-0.03579 -6.523901,0.996609 -6.566678,4.147375 0.07941,3.150766 4.976467,4.823778 7.776327,4.492986 2.92205,-0.330792 5.558636,-1.982842 5.357028,-5.011411 -0.201609,-2.906381 -4.377786,-3.593161 -6.566677,-3.62895 z"
     id="path1441"
     sodipodi:nodetypes="czzzz"
     style="fill:#fff8d2;fill-opacity:0.54166667;fill-rule:evenodd;stroke-width:1pt"
     inkscape:connector-curvature="0" />
  <path
     d="m 50.411298,61.457237 c -3.243854,1.439689 -7.517118,0.230411 -10.368438,2.419301 -3.024129,2.361701 -5.558631,6.624281 -0.691227,10.54124 5.040214,4.08977 10.439267,1.81219 15.20704,-2.073684 L 84.454333,47.978267 81.170995,47.80546 50.411298,61.457237 z"
     id="path1499"
     sodipodi:nodetypes="czzzccz"
     style="fill:url(#linearGradient1500);fill-rule:evenodd;stroke-width:1pt"
     inkscape:connector-curvature="0" />
  <path
     d="m 76.352103,28.067083 c -0.967634,0 -1.75069,0.531742 -1.75069,1.188347 0,0.656606 0.783056,1.188352 1.75069,1.188347 0.967633,0 1.750693,-0.531741 1.750689,-1.188347 0,-0.656605 -0.783053,-1.188342 -1.750689,-1.188347 z m -7.883409,1.411163 c -0.967633,0 -1.750689,0.531737 -1.750689,1.188347 0,0.656606 0.783056,1.188346 1.750689,1.188346 0.967635,0 1.761304,-0.53174 1.761301,-1.188346 0,-0.656606 -0.793666,-1.188347 -1.761301,-1.188347 z m 15.098372,2.620729 c -0.967633,0 -1.761299,0.531741 -1.761299,1.188347 0,0.656605 0.793669,1.188343 1.761299,1.188347 0.967634,0 1.750693,-0.531742 1.75069,-1.188347 0,-0.656606 -0.783053,-1.188351 -1.75069,-1.188347 z m -17.846424,3.183072 c -0.967633,0 -1.750689,0.531741 -1.750689,1.188347 0,0.656606 0.783059,1.18835 1.750689,1.188347 0.967634,0 1.75069,-0.531741 1.75069,-1.188347 0,-0.656606 -0.783053,-1.188344 -1.75069,-1.188347 z m 14.419316,3.54382 c -0.967633,0 -1.750689,0.531741 -1.750689,1.188347 0,0.656606 0.783056,1.18835 1.750689,1.188347 0.967634,0 1.750693,-0.531741 1.75069,-1.188347 0,-0.656606 -0.783052,-1.188344 -1.75069,-1.188347 z m -8.180494,1.580926 c -0.967634,0 -1.761297,0.531741 -1.7613,1.188347 0,0.656605 0.793659,1.198961 1.7613,1.198957 0.967633,0 1.750685,-0.542352 1.750689,-1.198957 0,-0.656606 -0.783059,-1.188343 -1.750689,-1.188347 z"
     id="path1508"
     style="fill:url(#linearGradient1501);fill-opacity:1;fill-rule:evenodd;stroke-width:1pt"
     inkscape:connector-curvature="0" />
  <path
     d="m 4.7343769,88.476138 0.625,8.75 L 75.046877,112.53864 4.7343769,88.476138 z"
     id="path1589"
     style="fill:url(#linearGradient1457);fill-opacity:1;fill-rule:evenodd;stroke-width:1pt"
     inkscape:connector-curvature="0" />
</svg>
