<?xml version="1.0" encoding="UTF-8" standalone="no"?>
<svg
   viewBox="0 -256 512 512"
   id="svg3001"
   version="1.1"
   inkscape:version="1.3 (0e150ed6c4, 2023-07-21)"
   width="512"
   height="512"
   sodipodi:docname="horizontal_offset.svg"
   xmlns:inkscape="http://www.inkscape.org/namespaces/inkscape"
   xmlns:sodipodi="http://sodipodi.sourceforge.net/DTD/sodipodi-0.dtd"
   xmlns="http://www.w3.org/2000/svg"
   xmlns:svg="http://www.w3.org/2000/svg"
   xmlns:rdf="http://www.w3.org/1999/02/22-rdf-syntax-ns#"
   xmlns:cc="http://creativecommons.org/ns#"
   xmlns:dc="http://purl.org/dc/elements/1.1/">
  <metadata
     id="metadata3011">
    <rdf:RDF>
      <cc:Work
         rdf:about="">
        <dc:format>image/svg+xml</dc:format>
        <dc:type
           rdf:resource="http://purl.org/dc/dcmitype/StillImage" />
      </cc:Work>
    </rdf:RDF>
  </metadata>
  <defs
     id="defs3009" />
  <sodipodi:namedview
     pagecolor="#000000"
     bordercolor="#666666"
     borderopacity="1"
     objecttolerance="10"
     gridtolerance="10"
     guidetolerance="10"
     inkscape:pageopacity="0"
     inkscape:pageshadow="2"
     inkscape:window-width="1339"
     inkscape:window-height="799"
     id="namedview3007"
     showgrid="false"
     inkscape:zoom="0.13169643"
     inkscape:cx="1776.8136"
     inkscape:cy="1180.7458"
     inkscape:window-x="125"
     inkscape:window-y="406"
     inkscape:window-maximized="0"
     inkscape:current-layer="svg3001"
     inkscape:showpageshadow="0"
     inkscape:pagecheckerboard="0"
     inkscape:deskcolor="#505050" />
  <path
     d="m 431,0 q 0,5.07812 -3.71091,8.78906 l -50,50 Q 373.57809,62.5 368.5,62.5 q -5.0781,0 -8.7891,-3.71094 Q 356,55.07812 356,50 V 25 H 156 v 25 q 0,5.07812 -3.71094,8.78906 Q 148.57813,62.5 143.5,62.5 q -5.07812,0 -8.78905,-3.71094 l -50.000005,-50 Q 81.000005,5.07812 81.000005,0 q 0,-5.07813 3.71094,-8.78906 l 50.000005,-50 Q 138.42189,-62.5 143.5,-62.5 q 5.07813,0 8.78906,3.71094 Q 156,-55.07813 156,-50 v 25 h 200 v -25 q 0,-5.07813 3.7109,-8.78906 3.711,-3.71094 8.7891,-3.71094 5.07809,0 8.78909,3.71094 l 50,50 Q 431,-5.07813 431,0 Z"
     id="path3005"
     inkscape:connector-curvature="0"
     style="fill:#fdfdfd;fill-opacity:1;stroke:none;stroke-width:0.195312" />
  <rect
     style="fill:#ffffff;fill-opacity:0;fill-rule:evenodd;stroke-width:5.28775;stroke-linecap:round;stroke-dasharray:10.5756, 21.1511;paint-order:markers stroke fill"
     id="rect2"
     width="512"
     height="512"
     x="0"
     y="-256" />
</svg>
