<?xml version="1.0" encoding="UTF-8" standalone="no"?>
<svg
   viewBox="0 -256 512 512"
   id="svg3025"
   version="1.1"
   inkscape:version="1.3 (0e150ed6c4, 2023-07-21)"
   width="512"
   height="512"
   sodipodi:docname="settings.svg"
   xmlns:inkscape="http://www.inkscape.org/namespaces/inkscape"
   xmlns:sodipodi="http://sodipodi.sourceforge.net/DTD/sodipodi-0.dtd"
   xmlns="http://www.w3.org/2000/svg"
   xmlns:svg="http://www.w3.org/2000/svg"
   xmlns:rdf="http://www.w3.org/1999/02/22-rdf-syntax-ns#"
   xmlns:cc="http://creativecommons.org/ns#"
   xmlns:dc="http://purl.org/dc/elements/1.1/">
  <metadata
     id="metadata3035">
    <rdf:RDF>
      <cc:Work
         rdf:about="">
        <dc:format>image/svg+xml</dc:format>
        <dc:type
           rdf:resource="http://purl.org/dc/dcmitype/StillImage" />
      </cc:Work>
    </rdf:RDF>
  </metadata>
  <defs
     id="defs3033" />
  <sodipodi:namedview
     pagecolor="#000000"
     bordercolor="#666666"
     borderopacity="1"
     objecttolerance="10"
     gridtolerance="10"
     guidetolerance="10"
     inkscape:pageopacity="0"
     inkscape:pageshadow="2"
     inkscape:window-width="1425"
     inkscape:window-height="840"
     id="namedview3031"
     showgrid="false"
     inkscape:zoom="0.13169643"
     inkscape:cx="884.61016"
     inkscape:cy="880.81355"
     inkscape:window-x="0"
     inkscape:window-y="25"
     inkscape:window-maximized="0"
     inkscape:current-layer="svg3025"
     inkscape:showpageshadow="0"
     inkscape:pagecheckerboard="0"
     inkscape:deskcolor="#505050" />
  <path
     d="m 314.33335,1e-5 q 0,-24.15365 -17.08984,-41.24349 -17.08985,-17.08985 -41.2435,-17.08985 -24.15364,0 -41.24349,17.08985 -17.08984,17.08984 -17.08984,41.24349 0,24.15365 17.08984,41.24349 17.08985,17.08985 41.24349,17.08985 24.15365,0 41.2435,-17.08985 Q 314.33335,24.15366 314.33335,10e-6 Z m 116.66664,-24.83724 v 50.58594 q 0,2.73437 -1.8229,5.24089 -1.8229,2.50651 -4.5573,2.96223 l -42.1549,6.38021 q -4.3294,12.30469 -8.8868,20.73568 7.9753,11.39323 24.3816,31.44532 2.2786,2.73437 2.2786,5.69661 0,2.96224 -2.0508,5.24089 -6.1523,8.43098 -22.5586,24.60935 -16.40622,16.1784 -21.41924,16.1784 -2.73437,0 -5.92448,-2.05079 l -31.4453,-24.60936 q -10.02606,5.24088 -20.73568,8.65885 -3.64584,30.98959 -6.60808,42.38283 Q 287.90106,175 281.29298,175 h -50.58594 q -3.1901,0 -5.58268,-1.93683 -2.39258,-1.93686 -2.62044,-4.89909 l -6.38021,-41.92709 q -11.16537,-3.64583 -20.50782,-8.43099 l -32.1289,24.3815 q -2.27865,2.05079 -5.69662,2.05079 -3.1901,0 -5.69661,-2.50652 -28.71094,-25.97655 -37.59766,-38.28123 -1.59505,-2.27865 -1.59505,-5.24089 0,-2.73438 1.82292,-5.24089 3.41796,-4.78515 11.62109,-15.15299 8.20312,-10.36784 12.30469,-16.06446 Q 132.4974,50.35809 129.3073,39.19272 L 87.60808,33.04038 q -2.96224,-0.45573 -4.78516,-2.84831 -1.82291,-2.39258 -1.82291,-5.35482 v -50.58594 q 0,-2.73437 1.82291,-5.24089 1.82292,-2.5065 4.32943,-2.96223 l 42.38281,-6.38021 q 3.19011,-10.48177 8.88672,-20.96355 -9.11458,-12.98827 -24.38151,-31.44531 -2.27864,-2.73437 -2.27864,-5.46875 0,-2.27865 2.05078,-5.24088 5.92447,-8.20313 22.44466,-24.49545 16.52018,-16.29232 21.5332,-16.29232 2.96224,0 5.92448,2.27865 l 31.44532,24.38151 q 10.02604,-5.24088 20.73567,-8.65885 3.64584,-30.98959 6.60808,-42.38282 Q 224.09897,-175 230.70704,-175 h 50.58594 q 3.1901,0 5.58268,1.93685 2.39258,1.93685 2.62045,4.89909 l 6.3802,41.92709 q 11.16538,3.64583 20.50783,8.43099 l 32.35676,-24.38151 q 2.05079,-2.05079 5.46875,-2.05079 2.96223,0 5.6966,2.27865 29.39454,27.11589 37.59764,38.73698 1.5951,1.82292 1.5951,5.01302 0,2.73438 -1.8229,5.24089 -3.418,4.78515 -11.6211,15.15299 -8.2032,10.36784 -12.3047,16.06446 5.9245,11.39323 9.3424,22.33073 l 41.6992,6.38021 q 2.9623,0.45572 4.7852,2.8483 1.8229,2.39258 1.8229,5.35482 z"
     id="path3029"
     inkscape:connector-curvature="0"
     style="fill:#ffffff;fill-opacity:1;stroke-width:0.227865" />
  <rect
     style="fill:#ffffff;fill-opacity:0;fill-rule:evenodd;stroke-width:5.28775;stroke-linecap:round;stroke-dasharray:10.5756, 21.1511;paint-order:markers stroke fill"
     id="rect2"
     width="512"
     height="512"
     x="0"
     y="-256" />
</svg>
