<?xml version="1.0" encoding="UTF-8" standalone="no"?>
<svg
   viewBox="0 -256 512 512"
   id="svg3025"
   version="1.1"
   inkscape:version="1.3 (0e150ed6c4, 2023-07-21)"
   width="512"
   height="512"
   sodipodi:docname="settings_open.svg"
   xmlns:inkscape="http://www.inkscape.org/namespaces/inkscape"
   xmlns:sodipodi="http://sodipodi.sourceforge.net/DTD/sodipodi-0.dtd"
   xmlns="http://www.w3.org/2000/svg"
   xmlns:svg="http://www.w3.org/2000/svg"
   xmlns:rdf="http://www.w3.org/1999/02/22-rdf-syntax-ns#"
   xmlns:cc="http://creativecommons.org/ns#"
   xmlns:dc="http://purl.org/dc/elements/1.1/">
  <metadata
     id="metadata3035">
    <rdf:RDF>
      <cc:Work
         rdf:about="">
        <dc:format>image/svg+xml</dc:format>
        <dc:type
           rdf:resource="http://purl.org/dc/dcmitype/StillImage" />
      </cc:Work>
    </rdf:RDF>
  </metadata>
  <defs
     id="defs3033" />
  <sodipodi:namedview
     pagecolor="#000000"
     bordercolor="#666666"
     borderopacity="1"
     objecttolerance="10"
     gridtolerance="10"
     guidetolerance="10"
     inkscape:pageopacity="0"
     inkscape:pageshadow="2"
     inkscape:window-width="2560"
     inkscape:window-height="1377"
     id="namedview3031"
     showgrid="false"
     inkscape:zoom="0.13169643"
     inkscape:cx="877.01694"
     inkscape:cy="877.01694"
     inkscape:window-x="-8"
     inkscape:window-y="-8"
     inkscape:window-maximized="1"
     inkscape:current-layer="svg3025"
     inkscape:showpageshadow="0"
     inkscape:pagecheckerboard="0"
     inkscape:deskcolor="#505050" />
  <path
     d="m 310.87722,22.731145 q 9.41212,-22.72284047 -0.006,-45.459839 -9.41796,-22.736997 -32.14083,-32.149103 -22.72284,-9.412114 -45.45984,0.0061 -22.737,9.417968 -32.1491,32.140817 -9.41212,22.72284079 0.006,45.459839 9.41797,22.736998 32.14082,32.149103 22.72284,9.412114 45.45984,-0.0061 22.737,-9.417968 32.14911,-32.140817 z m 119.43409,22.096332 -19.71216,47.58935 q -1.06549,2.572402 -3.75716,4.220087 -2.69159,1.647676 -5.44162,1.010887 l -42.144,-10.424532 q -8.86782,9.888708 -16.44052,16.044401 3.06316,13.82609 10.68373,39.08349 1.07808,3.46031 -0.0761,6.24707 -1.1543,2.78677 -3.97152,4.1313 -9.07325,5.53412 -30.81198,14.361 -21.73872,8.82689 -26.45479,6.87344 -2.57239,-1.06551 -4.77438,-4.23794 L 267.4179,134.32097 q -11.47437,1.02351 -22.88149,0.0657 -15.50579,27.73314 -22.73222,37.29712 -3.98679,5.38072 -10.20342,2.8057 l -47.58935,-19.71215 q -3.00113,-1.2431 -4.49723,-3.99756 -1.49611,-2.75443 -0.55616,-5.62999 l 10.33575,-41.92965 q -9.08327,-7.780753 -16.00763,-15.92298 l -39.72657,10.417331 q -2.94281,1.041354 -6.15831,-0.290544 -3.00113,-1.243112 -4.38243,-4.577865 -16.887715,-35.625764 -20.453153,-50.6645 -0.612631,-2.765217 0.541686,-5.551976 1.065521,-2.572402 3.757177,-4.220078 5.080159,-3.169799 16.83746,-9.726904 11.75729,-6.557105 17.83573,-10.317993 -1.34822,-13.1157409 0.002,-24.862808 L 84.707983,-34.535261 q -2.609178,-1.583049 -3.391778,-4.544248 -0.782599,-2.96119 0.371717,-5.747958 l 19.712158,-47.589351 q 1.06552,-2.572394 3.75718,-4.220079 2.69166,-1.647685 5.22728,-1.09969 l 42.35838,10.513328 q 7.08563,-8.617747 16.52929,-16.258771 -3.51343,-15.77062 -10.68371,-39.08347 -1.07814,-3.46033 -0.0126,-6.03273 0.88793,-2.14366 3.97155,-4.13129 8.7701,-5.40856 30.66039,-14.29823 21.89031,-8.88967 26.60638,-6.93622 2.78676,1.15431 4.68558,4.4523 l 20.08167,35.19071 q 11.47438,-1.02352 22.8815,-0.0657 15.50578,-27.73314 22.73222,-37.29715 3.98678,-5.38071 10.20341,-2.80569 l 47.58936,19.71215 q 3.00114,1.24311 4.49725,3.99756 1.49614,2.75445 0.55613,5.63001 l -10.33572,41.92964 q 9.08326,7.780743 16.00764,15.92298 l 39.94092,-10.328546 q 2.72842,-1.130149 5.94396,0.201749 2.7867,1.154316 4.47124,4.363508 17.08682,36.963963 20.27549,51.093216 0.7903,2.336493 -0.45281,5.337619 -1.06558,2.572401 -3.75716,4.220086 -5.08025,3.169791 -16.83753,9.726896 -11.75728,6.557114 -17.83572,10.317992 1.13382,13.02695529 0.0875,24.648443 l 36.74288,22.251469 q 2.60916,1.583049 3.39176,4.544248 0.7826,2.961191 -0.3717,5.747958 z"
     id="path3029"
     inkscape:connector-curvature="0"
     style="fill:#ffffff;fill-opacity:1;stroke-width:0.232029" />
  <rect
     style="fill:#ffffff;fill-opacity:0;fill-rule:evenodd;stroke-width:5.28775;stroke-linecap:round;stroke-dasharray:10.5756, 21.1511;paint-order:markers stroke fill"
     id="rect2"
     width="512"
     height="512"
     x="0"
     y="-256" />
</svg>
