<?xml version="1.0" encoding="UTF-8" standalone="no"?>
<!-- Generator: Adobe Illustrator 16.2.1, SVG Export Plug-In . SVG Version: 6.00 Build 0)  -->

<svg
   version="1.1"
   id="Layer_1"
   x="0px"
   y="0px"
   width="512px"
   height="512px"
   viewBox="0 0 512 512"
   enable-background="new 0 0 512 512"
   xml:space="preserve"
   inkscape:version="1.3 (0e150ed6c4, 2023-07-21)"
   sodipodi:docname="sliders.svg"
   xmlns:inkscape="http://www.inkscape.org/namespaces/inkscape"
   xmlns:sodipodi="http://sodipodi.sourceforge.net/DTD/sodipodi-0.dtd"
   xmlns="http://www.w3.org/2000/svg"
   xmlns:svg="http://www.w3.org/2000/svg"
   xmlns:rdf="http://www.w3.org/1999/02/22-rdf-syntax-ns#"
   xmlns:cc="http://creativecommons.org/ns#"
   xmlns:dc="http://purl.org/dc/elements/1.1/"><metadata
   id="metadata5242"><rdf:RDF><cc:Work
       rdf:about=""><dc:format>image/svg+xml</dc:format><dc:type
         rdf:resource="http://purl.org/dc/dcmitype/StillImage" /></cc:Work></rdf:RDF></metadata><defs
   id="defs5240">&#10;	&#10;	&#10;	&#10;	&#10;	&#10;	&#10;	&#10;	&#10;	&#10;</defs><sodipodi:namedview
   pagecolor="#000000"
   bordercolor="#666666"
   borderopacity="1"
   objecttolerance="10"
   gridtolerance="10"
   guidetolerance="10"
   inkscape:pageopacity="0"
   inkscape:pageshadow="2"
   inkscape:window-width="727"
   inkscape:window-height="480"
   id="namedview5238"
   showgrid="false"
   inkscape:zoom="0.4609375"
   inkscape:cx="253.83051"
   inkscape:cy="256"
   inkscape:window-x="77"
   inkscape:window-y="340"
   inkscape:window-maximized="0"
   inkscape:current-layer="Layer_1"
   inkscape:showpageshadow="0"
   inkscape:pagecheckerboard="0"
   inkscape:deskcolor="#505050" />&#10;<g
   id="g1"><path
     d="m 336,176 c -13.266,0 -24,-10.75 -24,-24 0,-13.25 10.734,-24 24,-24 13.25,0 24,10.75 24,24 0,13.25 -10.75,24 -24,24 z"
     id="path5206"
     style="fill:#ffffff;fill-opacity:1" /><g
     id="g5214"
     style="fill:#ffffff;fill-opacity:1">&#10;		<path
   d="M 296.812,144 H 128 v 16 h 168.812 c -0.531,-2.594 -0.812,-5.25 -0.812,-8 0,-2.75 0.281,-5.406 0.812,-8 z"
   id="path5216"
   style="fill:#ffffff;fill-opacity:1" />&#10;		<path
   d="m 384,144 h -8.812 c 0.531,2.594 0.812,5.25 0.812,8 0,2.75 -0.281,5.406 -0.812,8 H 384 Z"
   id="path5218"
   style="fill:#ffffff;fill-opacity:1" />&#10;	</g></g><g
   id="g2"
   transform="translate(0,5.3333333)"><path
     d="m 288,240 c -13.266,0 -24,-10.75 -24,-24 0,-13.25 10.734,-24 24,-24 13.25,0 24,10.75 24,24 0,13.25 -10.75,24 -24,24 z"
     id="path5208"
     style="fill:#ffffff;fill-opacity:1" /><g
     id="g5220"
     style="fill:#ffffff;fill-opacity:1">&#10;		<path
   d="M 248.812,208 H 128 v 16 h 120.812 c -0.531,-2.594 -0.812,-5.25 -0.812,-8 0,-2.75 0.281,-5.406 0.812,-8 z"
   id="path5222"
   style="fill:#ffffff;fill-opacity:1" />&#10;		<path
   d="m 384,208 h -56.812 c 0.531,2.594 0.812,5.25 0.812,8 0,2.75 -0.281,5.406 -0.812,8 H 384 Z"
   id="path5224"
   style="fill:#ffffff;fill-opacity:1" />&#10;	</g></g><g
   id="g3"
   transform="translate(0,-5.3333333)"><path
     d="m 232,320 c -13.266,0 -24,-10.75 -24,-24 0,-13.25 10.734,-24 24,-24 13.25,0 24,10.75 24,24 0,13.25 -10.75,24 -24,24 z"
     id="path5210"
     style="fill:#ffffff;fill-opacity:1" /><g
     id="g5226"
     style="fill:#ffffff;fill-opacity:1">&#10;		<path
   d="M 192.812,288 H 128 v 16 h 64.812 c -0.531,-2.594 -0.812,-5.266 -0.812,-8 0,-2.734 0.281,-5.406 0.812,-8 z"
   id="path5228"
   style="fill:#ffffff;fill-opacity:1" />&#10;		<path
   d="M 384,288 H 271.188 c 0.531,2.594 0.812,5.266 0.812,8 0,2.734 -0.281,5.406 -0.812,8 H 384 Z"
   id="path5230"
   style="fill:#ffffff;fill-opacity:1" />&#10;	</g></g><g
   id="g4"><path
     d="m 176,384 c -13.266,0 -24,-10.75 -24,-24 0,-13.25 10.734,-24 24,-24 13.25,0 24,10.75 24,24 0,13.25 -10.75,24 -24,24 z"
     id="path5212"
     style="fill:#ffffff;fill-opacity:1" /><g
     id="g5232"
     style="fill:#ffffff;fill-opacity:1">&#10;		<path
   d="M 136.812,352 H 128 v 16 h 8.812 c -0.531,-2.594 -0.812,-5.266 -0.812,-8 0,-2.734 0.281,-5.406 0.812,-8 z"
   id="path5234"
   style="fill:#ffffff;fill-opacity:1" />&#10;		<path
   d="M 384,352 H 215.188 c 0.531,2.594 0.812,5.266 0.812,8 0,2.734 -0.281,5.406 -0.812,8 H 384 Z"
   id="path5236"
   style="fill:#ffffff;fill-opacity:1" />&#10;	</g></g>&#10;<rect
   style="fill:#ffffff;fill-opacity:0;fill-rule:evenodd;stroke-width:5.28775;stroke-linecap:round;stroke-dasharray:10.5756, 21.1511;paint-order:markers stroke fill"
   id="rect2"
   width="512"
   height="512"
   x="0"
   y="0" /></svg>
