<?xml version="1.0" encoding="UTF-8" standalone="no"?>
<!-- Created with Inkscape (http://www.inkscape.org/) -->

<svg
   width="512"
   height="512"
   viewBox="0 0 135.46666 135.46666"
   version="1.1"
   id="svg8"
   inkscape:version="1.3 (0e150ed6c4, 2023-07-21)"
   sodipodi:docname="star_outline.svg"
   xmlns:inkscape="http://www.inkscape.org/namespaces/inkscape"
   xmlns:sodipodi="http://sodipodi.sourceforge.net/DTD/sodipodi-0.dtd"
   xmlns="http://www.w3.org/2000/svg"
   xmlns:svg="http://www.w3.org/2000/svg"
   xmlns:rdf="http://www.w3.org/1999/02/22-rdf-syntax-ns#"
   xmlns:cc="http://creativecommons.org/ns#"
   xmlns:dc="http://purl.org/dc/elements/1.1/">
  <defs
     id="defs2" />
  <sodipodi:namedview
     id="base"
     pagecolor="#000000"
     bordercolor="#666666"
     borderopacity="1.0"
     inkscape:pageopacity="0.0"
     inkscape:pageshadow="2"
     inkscape:zoom="1.1894531"
     inkscape:cx="387.57308"
     inkscape:cy="165.20197"
     inkscape:document-units="mm"
     inkscape:current-layer="layer1"
     showgrid="false"
     fit-margin-top="0"
     fit-margin-left="0"
     fit-margin-right="0"
     fit-margin-bottom="0"
     inkscape:window-width="2560"
     inkscape:window-height="1377"
     inkscape:window-x="-8"
     inkscape:window-y="-8"
     inkscape:window-maximized="1"
     inkscape:showpageshadow="0"
     inkscape:pagecheckerboard="0"
     inkscape:deskcolor="#505050" />
  <metadata
     id="metadata5">
    <rdf:RDF>
      <cc:Work
         rdf:about="">
        <dc:format>image/svg+xml</dc:format>
        <dc:type
           rdf:resource="http://purl.org/dc/dcmitype/StillImage" />
      </cc:Work>
    </rdf:RDF>
  </metadata>
  <g
     inkscape:label="Layer 1"
     inkscape:groupmode="layer"
     id="layer1"
     transform="translate(-41.051271,-66.0984)">
    <path
       style="opacity:1;vector-effect:none;fill:#ffffff;fill-opacity:1;fill-rule:nonzero;stroke:none;stroke-width:2.01702;stroke-linecap:round;stroke-linejoin:round;stroke-miterlimit:4;stroke-dasharray:none;stroke-dashoffset:10.2051;stroke-opacity:1;paint-order:normal"
       d="m 108.73215,95.938172 c -1.21393,0.05335 -1.49073,1.508658 -2.0347,2.340978 -3.60115,7.23324 -7.156516,14.48935 -10.741872,21.73049 -8.660077,1.27504 -17.340901,2.42366 -25.974492,3.86676 -0.923651,0.28416 -1.221632,1.71981 -0.41771,2.32283 4.397643,4.65349 9.099092,9.01068 13.655044,13.50777 1.592372,1.54817 3.185543,3.0958 4.778221,4.6438 -1.352769,8.61171 -2.987721,17.18118 -4.282394,25.80277 -0.168691,1.12379 1.1919,1.86188 2.114092,1.32454 5.732755,-2.84668 11.356175,-5.91635 17.038891,-8.86374 1.98034,-1.04253 3.95968,-2.08698 5.93919,-3.13108 7.84243,4.08131 15.60541,8.3228 23.5318,12.2382 1.07132,0.0983 1.9,-1.13081 1.50126,-2.11621 -1.37813,-8.38329 -2.85252,-16.75053 -4.28376,-25.12497 6.18015,-6.1973 12.5809,-12.17407 18.68109,-18.44994 0.64221,-0.91832 -0.1191,-2.25444 -1.21117,-2.292 -8.31183,-1.35086 -16.6902,-2.37454 -24.9864,-3.75307 -0.7497,-0.0612 -0.74744,-1.09901 -1.15926,-1.58468 -3.68265,-7.25758 -7.14956,-14.63102 -10.92727,-21.840701 -0.2824,-0.380843 -0.73702,-0.647663 -1.22056,-0.621747 z m 0.2856,4.471838 c 3.54411,7.08839 6.93534,14.25582 10.60566,21.2796 0.3249,0.64073 0.97191,0.89427 1.66194,0.88657 7.74407,1.21009 15.51672,2.24369 23.25797,3.45732 -5.66222,5.68781 -11.56619,11.13425 -17.13713,16.91173 -0.85479,0.66254 -0.31466,1.78803 -0.27335,2.6668 1.17667,7.4831 2.55476,14.93302 3.74899,22.41259 -7.23177,-3.5893 -14.28053,-7.6072 -21.55055,-11.14587 -0.76735,-0.49753 -1.5118,0.39137 -2.23047,0.59591 -6.8487,3.45771 -13.624303,7.05897 -20.402387,10.65237 1.259736,-8.02252 2.803963,-16.00269 3.99341,-24.03654 0.206603,-0.8982 -0.862358,-1.32081 -1.292832,-1.94466 -5.424032,-5.42943 -10.880609,-10.83036 -16.444421,-16.11519 7.942244,-1.24579 15.944779,-2.23106 23.882285,-3.54912 1.200338,-0.23412 1.469116,-1.67578 2.064292,-2.55194 3.378203,-6.61314 6.600983,-13.30434 9.893003,-19.960474 0.0746,0.146964 0.14906,0.293934 0.22359,0.440904 z"
       id="path843"
       inkscape:connector-curvature="0" />
    <rect
       style="fill:#ffffff;fill-opacity:0;fill-rule:evenodd;stroke-width:1.39905;stroke-linecap:round;stroke-dasharray:2.79813, 5.59623;paint-order:markers stroke fill"
       id="rect2"
       width="135.46666"
       height="135.46666"
       x="41.051273"
       y="66.098404" />
  </g>
</svg>
