<?xml version="1.0" encoding="UTF-8" standalone="no"?>
<svg
   inkscape:version="1.3 (0e150ed6c4, 2023-07-21)"
   sodipodi:docname="subtitles.svg"
   id="svg24"
   xml:space="preserve"
   enable-background="new 0 0 100 100"
   viewBox="0 0 170.66667 170.66667"
   y="0px"
   x="0px"
   version="1.1"
   fill="#000000"
   width="512"
   height="512"
   xmlns:inkscape="http://www.inkscape.org/namespaces/inkscape"
   xmlns:sodipodi="http://sodipodi.sourceforge.net/DTD/sodipodi-0.dtd"
   xmlns="http://www.w3.org/2000/svg"
   xmlns:svg="http://www.w3.org/2000/svg"
   xmlns:rdf="http://www.w3.org/1999/02/22-rdf-syntax-ns#"
   xmlns:cc="http://creativecommons.org/ns#"
   xmlns:dc="http://purl.org/dc/elements/1.1/"><metadata
     id="metadata30"><rdf:RDF><cc:Work
         rdf:about=""><dc:format>image/svg+xml</dc:format><dc:type
           rdf:resource="http://purl.org/dc/dcmitype/StillImage" /></cc:Work></rdf:RDF></metadata><defs
     id="defs28" /><sodipodi:namedview
     inkscape:current-layer="svg24"
     inkscape:window-maximized="0"
     inkscape:window-y="0"
     inkscape:window-x="0"
     inkscape:cy="178.6375"
     inkscape:cx="-51.570946"
     inkscape:zoom="0.94045202"
     showgrid="false"
     id="namedview26"
     inkscape:window-height="1080"
     inkscape:window-width="1920"
     inkscape:pageshadow="2"
     inkscape:pageopacity="0"
     guidetolerance="10"
     gridtolerance="10"
     objecttolerance="10"
     borderopacity="1"
     inkscape:document-rotation="0"
     bordercolor="#666666"
     pagecolor="#000000"
     inkscape:showpageshadow="0"
     inkscape:pagecheckerboard="0"
     inkscape:deskcolor="#505050" /><g
     id="g1"
     transform="matrix(1.2941005,0,0,1.2941005,20.628389,20.628964)"><path
       sodipodi:nodetypes="cssscccccccssssccsssscccsssc"
       inkscape:connector-curvature="0"
       id="path10"
       d="m 83.511,18.404 c 4.223,0 7.377843,-0.571915 7.408373,3.648975 L 91.17,56.702 c 0.03056,4.224889 0.573025,7.659 -3.648975,7.659 H 78.402 76.73 l -1.139,1.228 -9.314,10.064 v -7.462 -3.83 H 62.448 L 12.604288,64.235687 C 8.3813016,64.22507 8.83,60.926 8.83,56.702 V 26.063 c 0,-4.222 -0.4477052,-7.791775 3.774288,-7.784313 L 83.511,18.404 M 89.776664,14.699313 10.599276,14.574 C 4.2552836,14.563959 5,19.721 5,26.063 v 30.639 c 0,6.347 -1.1204998,11.067393 5.223336,11.11306 L 62.447,68.191 V 85.425 L 78.401,68.191 89.775664,68.065687 C 96.119279,67.9958 95,63.049 95,56.702 V 26.063 c 0,-6.342 1.119664,-11.363687 -5.223336,-11.363687"
       style="fill:#ffffff;fill-opacity:1" /><rect
       id="rect12"
       height="3.829"
       width="24.893999"
       y="47.127998"
       x="14.574"
       style="fill:#ffffff;fill-opacity:1" /><rect
       id="rect14"
       height="3.829"
       width="17.233999"
       y="47.127998"
       x="43.298"
       style="fill:#ffffff;fill-opacity:1" /><rect
       id="rect16"
       height="3.829"
       width="21.063999"
       y="47.127998"
       x="64.361"
       style="fill:#ffffff;fill-opacity:1" /><rect
       id="rect18"
       height="3.8299999"
       width="13.404"
       y="54.786999"
       x="70.106003"
       style="fill:#ffffff;fill-opacity:1" /><rect
       id="rect20"
       height="3.8299999"
       width="32.553001"
       y="54.786999"
       x="33.723999"
       style="fill:#ffffff;fill-opacity:1" /><rect
       id="rect22"
       height="3.8299999"
       width="13.404"
       y="54.786999"
       x="16.489"
       style="fill:#ffffff;fill-opacity:1" /></g><rect
     style="fill:#ffffff;fill-opacity:0;fill-rule:evenodd;stroke-width:1.76258;stroke-linecap:round;stroke-dasharray:3.5252, 7.05037;paint-order:markers stroke fill"
     id="rect2"
     width="170.66667"
     height="170.66667"
     x="-8.7646487e-07"
     y="-8.7646487e-07" /></svg>
