<?xml version="1.0" encoding="UTF-8" standalone="no"?>
<svg
   xmlns:dc="http://purl.org/dc/elements/1.1/"
   xmlns:cc="http://creativecommons.org/ns#"
   xmlns:rdf="http://www.w3.org/1999/02/22-rdf-syntax-ns#"
   xmlns:svg="http://www.w3.org/2000/svg"
   xmlns="http://www.w3.org/2000/svg"
   xmlns:sodipodi="http://sodipodi.sourceforge.net/DTD/sodipodi-0.dtd"
   xmlns:inkscape="http://www.inkscape.org/namespaces/inkscape"
   viewBox="0 -256 32 32"
   id="svg3447"
   version="1.1"
   inkscape:version="0.48.2 r9819"
   width="100%"
   height="100%"
   sodipodi:docname="undo.svg">
  <metadata
     id="metadata3457">
    <rdf:RDF>
      <cc:Work
         rdf:about="">
        <dc:format>image/svg+xml</dc:format>
        <dc:type
           rdf:resource="http://purl.org/dc/dcmitype/StillImage" />
      </cc:Work>
    </rdf:RDF>
  </metadata>
  <defs
     id="defs3455">
    <radialGradient
       r="63.549801"
       id="XMLID_2_"
       gradientUnits="userSpaceOnUse"
       cy="68.329102"
       cx="68.3564">
      <stop
         stop-color="#D4E4F7"
         offset="0"
         id="stop8" />
      <stop
         stop-color="#7FB5F7"
         offset="1"
         id="stop10" />
    </radialGradient>
  </defs>
  <sodipodi:namedview
     pagecolor="#ffffff"
     bordercolor="#666666"
     borderopacity="1"
     objecttolerance="10"
     gridtolerance="10"
     guidetolerance="10"
     inkscape:pageopacity="0"
     inkscape:pageshadow="2"
     inkscape:window-width="1223"
     inkscape:window-height="743"
     id="namedview3453"
     showgrid="false"
     inkscape:zoom="4.2142857"
     inkscape:cx="25.074429"
     inkscape:cy="64.102681"
     inkscape:window-x="363"
     inkscape:window-y="70"
     inkscape:window-maximized="0"
     inkscape:current-layer="svg3447"
     fit-margin-top="0"
     fit-margin-left="0"
     fit-margin-right="0"
     fit-margin-bottom="0" />
  <g
     transform="matrix(0.23401587,0,0,0.2340826,-3.2370521e-5,-256.00009)"
     id="g9">
    <title
       id="title11">Layer 1</title>
    <g
       id="g3">
      <path
         style="fill:#5471af"
         inkscape:connector-curvature="0"
         id="path5"
         d="M 136.743,68.330002 C 136.743,103.165 109.417,133.23199 74.697998,136.424 39.966999,139.616 7.467,115.195 1.114,80.847 -5.239,46.507999 16.194,11.916 49.848999,2.477 83.514,-6.962 119.892,11.368 132.30701,44.047001 135.248,51.786999 136.743,60.049999 136.743,68.330002" />
      <path
         style="fill:url(#XMLID_2_)"
         inkscape:connector-curvature="0"
         id="path12"
         d="m 131.90601,68.330002 c 0,34.630998 -28.917,63.548998 -63.549,63.548998 -34.632999,0 -63.55,-28.918 -63.55,-63.548998 0,-34.633003 28.917,-63.550002 63.55,-63.550002 34.63199,0 63.549,28.915999 63.549,63.550002" />
      <path
         style="fill:#68a0f2"
         inkscape:connector-curvature="0"
         id="path14"
         d="M 125.777,43.626999 C 130.91299,73.554001 113.037,103.619 84.292999,113.413 53.806999,123.801 19.500999,108.447 6.752,78.917999 12.878,114.654 49.624001,138.147 84.634003,128.7 120.784,118.943 140.677,78.097 125.777,43.626999" />
      <path
         style="fill:#b3e7fc"
         inkscape:connector-curvature="0"
         id="path16"
         d="M 108.049,40.118 C 99.260003,41.937 89.140999,29.486 81.521004,26.319 67.283997,20.399999 49.5,23.148 36.602001,31.208 22.958999,39.730999 13.255,56.104 11.762999,72.176002 c -0.005,0.046 -0.005,0.056 -0.002,0.02499 1.008,-9.732998 0.328,-18.881996 4.034,-28.289997 C 21.936,28.316 35.217997,16.106001 51.229998,11.201 67.786002,6.129 85.890997,9.356 100.153,19.021 c 4.404,2.986 21.358,18.311001 7.896,21.097" />
    </g>
  </g>
  <g
     transform="matrix(0.01217886,0,0,-0.01217886,6.6466383,-232.20549)"
     id="g3449">
    <path
       d="M 1536,640 Q 1536,484 1475,342 1414,200 1311,97 1208,-6 1066,-67 924,-128 768,-128 589,-128 431.5,-52 274,24 165.5,161 57,298 18,473 q -3,14 7,27 9,12 25,12 h 199 q 23,0 30,-23 Q 329,327 464,227.5 599,128 768,128 872,128 966.5,168.5 1061,209 1130,278 q 69,69 109.5,163.5 40.5,94.5 40.5,198.5 0,104 -40.5,198.5 Q 1199,933 1130,1002 1061,1071 966.5,1111.5 872,1152 768,1152 670,1152 580,1116.5 490,1081 420,1015 L 557,877 q 31,-30 14,-69 -17,-40 -59,-40 H 64 Q 38,768 19,787 0,806 0,832 v 448 q 0,42 40,59 39,17 69,-14 l 130,-129 q 107,101 244.5,156.5 137.5,55.5 284.5,55.5 156,0 298,-61 142,-61 245,-164 103,-103 164,-245 61,-142 61,-298 z"
       id="path3451"
       inkscape:connector-curvature="0"
       style="fill:currentColor" />
  </g>
</svg>
