<?xml version="1.0" encoding="UTF-8" standalone="no"?>
<!-- Created with Inkscape (http://www.inkscape.org/) -->

<svg
   xmlns:dc="http://purl.org/dc/elements/1.1/"
   xmlns:cc="http://creativecommons.org/ns#"
   xmlns:rdf="http://www.w3.org/1999/02/22-rdf-syntax-ns#"
   xmlns:svg="http://www.w3.org/2000/svg"
   xmlns="http://www.w3.org/2000/svg"
   xmlns:xlink="http://www.w3.org/1999/xlink"
   xmlns:sodipodi="http://sodipodi.sourceforge.net/DTD/sodipodi-0.dtd"
   xmlns:inkscape="http://www.inkscape.org/namespaces/inkscape"
   version="1.0"
   width="48"
   height="48"
   id="svg2"
   inkscape:version="0.48.2 r9819"
   sodipodi:docname="usb.svg">
  <metadata
     id="metadata45">
    <rdf:RDF>
      <cc:Work
         rdf:about="">
        <dc:format>image/svg+xml</dc:format>
        <dc:type
           rdf:resource="http://purl.org/dc/dcmitype/StillImage" />
      </cc:Work>
    </rdf:RDF>
  </metadata>
  <sodipodi:namedview
     pagecolor="#ffffff"
     bordercolor="#666666"
     borderopacity="1"
     objecttolerance="10"
     gridtolerance="10"
     guidetolerance="10"
     inkscape:pageopacity="0"
     inkscape:pageshadow="2"
     inkscape:window-width="719"
     inkscape:window-height="480"
     id="namedview43"
     showgrid="false"
     inkscape:zoom="4.9166667"
     inkscape:cx="24"
     inkscape:cy="24"
     inkscape:window-x="211"
     inkscape:window-y="175"
     inkscape:window-maximized="0"
     inkscape:current-layer="layer1" />
  <defs
     id="defs4">
    <linearGradient
       id="linearGradient2580">
      <stop
         id="stop2582"
         style="stop-color:#ffffff;stop-opacity:0"
         offset="0" />
      <stop
         id="stop2588"
         style="stop-color:#ffffff;stop-opacity:1"
         offset="0.5" />
      <stop
         id="stop2584"
         style="stop-color:#999999;stop-opacity:1"
         offset="1" />
    </linearGradient>
    <filter
       id="filter3370">
      <feGaussianBlur
         inkscape:collect="always"
         stdDeviation="2.1991045"
         id="feGaussianBlur3372" />
    </filter>
    <filter
       id="filter3406">
      <feGaussianBlur
         inkscape:collect="always"
         stdDeviation="0.85320467"
         id="feGaussianBlur3408" />
    </filter>
    <linearGradient
       x1="245.5"
       y1="781.12561"
       x2="368.21875"
       y2="781.12561"
       id="linearGradient3900"
       xlink:href="#linearGradient2580"
       gradientUnits="userSpaceOnUse" />
    <linearGradient
       x1="245.5"
       y1="781.12561"
       x2="368.21875"
       y2="781.12561"
       id="linearGradient4029"
       xlink:href="#linearGradient2580"
       gradientUnits="userSpaceOnUse" />
    <linearGradient
       x1="245.5"
       y1="781.12561"
       x2="368.21875"
       y2="781.12561"
       id="linearGradient4053"
       xlink:href="#linearGradient2580"
       gradientUnits="userSpaceOnUse"
       gradientTransform="matrix(0.9242477,0,0,0.9242477,870.54524,-4.333042)" />
    <clipPath
       id="clipPath2430">
      <path
         d="M 416.1875,353.71875 C 413.91139,353.7379 411.63341,353.77663 409.375,353.84375 C 408.58161,353.86736 407.79101,353.90796 407,353.9375 C 405.12115,354.00762 403.23948,354.08386 401.375,354.1875 C 401.16683,354.19907 400.95799,354.20676 400.75,354.21874 C 400.27855,354.24593 399.81421,354.28316 399.34375,354.3125 C 398.30786,354.37705 397.28095,354.45626 396.25,354.53125 C 393.80746,354.70901 391.38134,354.91978 388.96875,355.15625 C 386.01296,355.44597 383.0619,355.77808 380.15625,356.15626 C 379.16201,356.28565 378.17541,356.42272 377.1875,356.5625 C 376.72981,356.62727 376.2688,356.683 375.8125,356.75 C 375.41343,356.80861 375.02299,356.87718 374.625,356.9375 C 373.58354,357.09529 372.53387,357.23676 371.5,357.40626 C 371.33311,357.43363 371.16669,357.47232 371,357.5 C 370.2771,357.61999 369.56279,357.74926 368.84375,357.875 C 368.36526,357.95871 367.883,358.03875 367.40625,358.125 C 367.3541,358.13443 367.30213,358.14679 367.25,358.15625 C 364.56943,358.64296 361.90373,359.15128 359.28125,359.71875 C 359.14549,359.74813 359.0106,359.78291 358.875,359.8125 C 358.18838,359.96235 357.4949,360.12584 356.8125,360.28125 C 355.76727,360.51935 354.72256,360.78008 353.6875,361.03125 C 352.99656,361.19895 352.31129,361.35772 351.625,361.53125 C 351.31277,361.61017 350.99876,361.70113 350.68751,361.78125 C 350.0493,361.94562 349.41529,362.1118 348.78125,362.28125 C 348.08148,362.4682 347.3821,362.65061 346.6875,362.84375 C 346.65592,362.85253 346.62531,362.8662 346.59375,362.875 C 346.30891,362.95435 346.03396,363.04461 345.75,363.125 C 343.80279,363.6764 341.87314,364.24319 339.96876,364.84375 C 339.35271,365.03797 338.7364,365.23813 338.125,365.4375 C 337.08992,365.77518 336.05273,366.11628 335.03125,366.46875 C 334.12161,366.78263 333.21108,367.11187 332.3125,367.4375 C 331.69489,367.66127 331.08103,367.89568 330.46875,368.12501 C 330.42889,368.13993 330.38359,368.14129 330.34375,368.15625 C 329.40917,368.50704 328.48437,368.85499 327.5625,369.21875 C 326.36574,369.69098 325.17474,370.16212 323.99999,370.65625 C 323.37891,370.91754 322.77104,371.20132 322.15625,371.46875 C 321.79211,371.62713 321.4244,371.77697 321.0625,371.9375 C 320.5471,372.16612 320.04206,372.42326 319.53125,372.65625 C 319.08643,372.85915 318.6288,373.04378 318.18751,373.25 C 317.75043,373.45424 317.30859,373.66751 316.875,373.875 C 315.72397,374.42602 314.59467,374.9885 313.46875,375.5625 C 312.83693,375.88461 312.21749,376.23315 311.59375,376.5625 C 311.1081,376.81887 310.60569,377.05174 310.125,377.3125 C 309.02993,377.9067 307.94378,378.50794 306.875,379.125 C 306.87499,379.12499 26.34375,541.15625 26.34375,541.15625 C 25.938447,541.39025 25.536239,541.63492 25.156254,541.875 C 24.778076,542.11407 24.415598,542.3489 24.0625,542.59375 C 23.705961,542.84099 23.362265,543.09088 23.03125,543.34375 C 22.703957,543.59378 22.39615,543.83846 22.093753,544.09375 C 21.787947,544.35192 21.499139,544.61171 21.218749,544.875 C 21.001892,545.07863 20.764174,545.29344 20.562496,545.5 C 20.507619,545.55619 20.460002,545.6311 20.40625,545.6875 C 20.170588,545.93529 19.932784,546.15452 19.718751,546.40625 C 19.473492,546.69428 19.248249,547.0196 19.031251,547.3125 C 19.014405,547.33531 18.98543,547.35215 18.968746,547.37499 C 18.784629,547.62656 18.632126,547.87008 18.46875,548.125 C 18.292445,548.39998 18.120943,548.65884 17.968754,548.9375 C 17.960077,548.95335 17.977345,548.98413 17.968754,549 C 17.822733,549.27005 17.685952,549.53924 17.5625,549.8125 C 17.552762,549.83389 17.54085,549.85359 17.531253,549.875 C 17.410571,550.14616 17.286037,550.41341 17.187503,550.68751 C 17.08608,550.9696 16.984256,551.24629 16.906247,551.53125 C 16.898316,551.56012 16.913951,551.59611 16.906247,551.625 C 16.687842,552.44888 16.555064,553.2812 16.53125,554.125 C 16.529995,554.16624 16.53204,554.20871 16.53125,554.25 C 16.530363,554.30267 16.53138,554.35351 16.53125,554.40625 L 16.53125,696.03125 C 16.450038,702.32921 21.753216,709.09596 32.250002,715.15625 C 32.250023,715.15627 277.21875,856.59375 277.21875,856.59375 C 295.77646,867.30803 318.14633,868.67435 333.0625,860.0625 C 333.06251,860.06248 613.71875,698.03125 613.71875,698.03125 C 643.35687,680.91966 657.76419,657.90305 657.75,633.3125 L 657.75,493.1875 C 657.77191,492.33072 657.76333,491.48566 657.75,490.625 C 657.74952,490.59396 657.75053,490.5623 657.75,490.53125 C 657.73485,489.63896 657.70919,488.73978 657.65625,487.84375 C 657.61634,487.16797 657.56137,486.49021 657.5,485.8125 C 657.48016,485.59339 657.45958,485.37555 657.4375,485.15625 C 657.41772,484.96005 657.39657,484.75884 657.375,484.5625 C 657.36357,484.45848 657.35568,484.35406 657.34375,484.25 C 657.24129,483.35601 657.10829,482.45923 656.96875,481.5625 C 656.96716,481.55232 656.97034,481.54144 656.96875,481.53125 C 656.87622,480.9395 656.7649,480.3428 656.65625,479.75 C 656.52866,479.05387 656.39979,478.35365 656.25,477.65625 C 656.09013,476.91208 655.90385,476.15164 655.71875,475.40625 C 655.62576,475.0321 655.53684,474.65566 655.4375,474.28125 C 655.266,473.63406 655.0967,472.99161 654.90625,472.34375 C 654.89706,472.31254 654.88423,472.28122 654.875,472.25 C 654.68019,471.59052 654.46441,470.94127 654.25,470.28125 C 654.13886,469.93912 654.05391,469.59224 653.9375,469.25 C 653.89098,469.11321 653.82861,468.98053 653.78125,468.84375 C 653.56286,468.2131 653.32998,467.56839 653.09375,466.9375 C 652.98803,466.65532 652.89054,466.37596 652.78125,466.09375 C 652.42871,465.18265 652.04591,464.28612 651.65625,463.375 C 651.34052,462.63678 651.02754,461.89424 650.6875,461.15625 C 650.60516,460.97756 650.52126,460.80367 650.4375,460.625 C 650.34508,460.42773 650.25041,460.22849 650.15625,460.03124 C 649.81906,459.32552 649.45313,458.61147 649.09375,457.90625 C 648.63226,457.00066 648.15427,456.09189 647.65625,455.1875 C 647.17432,454.31233 646.67232,453.43616 646.15625,452.5625 C 646.13725,452.53034 646.1128,452.50092 646.09375,452.46875 C 645.76719,451.91749 645.43389,451.36304 645.09375,450.8125 C 644.87662,450.46097 644.66016,450.1012 644.4375,449.75 C 644.28594,449.51106 644.12287,449.27003 643.96875,449.03125 C 643.53745,448.3628 643.10757,447.69833 642.65625,447.03124 C 642.13688,446.26369 641.60833,445.48426 641.0625,444.71875 C 640.96792,444.58615 640.87663,444.44504 640.78125,444.3125 C 640.14721,443.43125 639.48156,442.56561 638.8125,441.6875 C 638.79882,441.66955 638.79494,441.64295 638.78125,441.625 C 638.02663,440.63576 637.23648,439.64096 636.4375,438.65625 C 636.26707,438.44626 636.07869,438.24101 635.90625,438.03124 C 635.25011,437.233 634.59153,436.45112 633.90625,435.65625 C 633.32532,434.98233 632.72683,434.29629 632.125,433.625 C 631.8379,433.30487 631.54185,432.97575 631.25,432.65625 C 630.73692,432.09451 630.21525,431.52846 629.6875,430.96875 C 629.28545,430.54242 628.8793,430.1126 628.46875,429.6875 C 628.03766,429.24117 627.5967,428.78867 627.15625,428.34375 C 626.62889,427.81115 626.07201,427.28049 625.53125,426.75 C 624.53096,425.7687 623.5148,424.78613 622.46875,423.8125 C 621.7182,423.11391 620.96157,422.41313 620.1875,421.71876 C 619.88508,421.44748 619.58725,421.17687 619.28125,420.90625 C 619.14966,420.78989 619.00725,420.67873 618.875,420.5625 C 618.33078,420.08418 617.77418,419.60116 617.21875,419.125 C 616.78049,418.74932 616.35148,418.3743 615.90625,418 C 614.78712,417.0591 613.63185,416.11927 612.46875,415.1875 C 611.53909,414.443 610.58268,413.67583 609.625,412.93751 C 609.3668,412.73841 609.10398,412.54238 608.84375,412.34375 C 608.02287,411.71731 607.18485,411.09048 606.34375,410.46875 C 605.93414,410.16601 605.50815,409.8641 605.09375,409.5625 C 605.08693,409.55754 605.06932,409.56746 605.0625,409.5625 C 603.80129,408.64484 602.52424,407.71915 601.21875,406.8125 C 600.0099,405.97297 598.77798,405.14213 597.53125,404.3125 C 597.41358,404.2342 597.30551,404.14071 597.1875,404.0625 C 596.73211,403.76068 596.27291,403.45671 595.8125,403.15625 C 594.90479,402.56393 593.98968,401.9619 593.0625,401.375 C 592.74601,401.17471 592.4125,400.98091 592.09375,400.78125 C 590.99423,400.09255 589.87645,399.43085 588.75,398.75 C 587.29936,397.8732 585.83895,396.98826 584.34375,396.125 C 582.80434,395.23622 581.25179,394.36152 579.6875,393.5 C 578.13141,392.64299 576.54836,391.79872 574.96875,390.96875 C 574.03474,390.47797 573.09817,389.98132 572.15625,389.5 C 571.50458,389.16711 570.84287,388.82835 570.1875,388.5 C 569.45084,388.13083 568.70998,387.76967 567.96875,387.40625 C 567.09655,386.97867 566.22212,386.54461 565.34375,386.125 C 564.81379,385.8718 564.28216,385.6253 563.75,385.375 C 562.64844,384.85694 561.54821,384.34937 560.4375,383.84375 C 560.12418,383.7011 559.81404,383.54791 559.5,383.40626 C 558.16443,382.8039 556.81682,382.20941 555.46875,381.625 C 555.3748,381.58427 555.28151,381.54065 555.1875,381.5 C 553.6119,380.81885 552.02923,380.1566 550.4375,379.5 C 549.39404,379.06949 548.3313,378.66995 547.28125,378.25 C 546.63392,377.99117 545.99351,377.72356 545.34375,377.46875 C 544.24233,377.0367 543.13941,376.60798 542.03125,376.1875 C 541.42859,375.95892 540.82333,375.72515 540.21875,375.5 C 539.33789,375.17184 538.44732,374.85213 537.5625,374.53125 C 536.72162,374.22643 535.87557,373.92325 535.03125,373.625 C 534.377,373.39381 533.71875,373.16474 533.0625,372.9375 C 532.92891,372.89126 532.78992,372.85857 532.65625,372.8125 C 531.28303,372.33898 529.91276,371.86243 528.53125,371.40625 C 527.21413,370.97149 525.88667,370.54397 524.5625,370.125 C 524.3653,370.06259 524.1661,369.99956 523.96875,369.9375 C 522.39551,369.4429 520.83235,368.9723 519.25,368.5 C 517.92796,368.10518 516.60915,367.72297 515.28125,367.34375 C 514.83185,367.21546 514.38753,367.06401 513.9375,366.9375 C 512.6845,366.58517 511.41391,366.2447 510.15625,365.90625 C 508.60735,365.48942 507.05532,365.08322 505.5,364.6875 C 504.72722,364.49096 503.96174,364.28507 503.1875,364.09375 C 502.40715,363.90084 501.62548,363.71886 500.84375,363.53125 C 499.82514,363.28691 498.80204,363.04783 497.78125,362.8125 C 497.24081,362.68786 496.69726,362.55961 496.15625,362.4375 C 494.88417,362.15051 493.61869,361.86674 492.34375,361.59375 C 492.05177,361.53119 491.76087,361.46808 491.46875,361.40626 C 489.95275,361.08562 488.42557,360.76956 486.90625,360.46875 C 486.85424,360.45845 486.80202,360.44778 486.75,360.4375 C 485.1786,360.1271 483.60547,359.85165 482.03125,359.5625 C 480.85,359.34537 479.68249,359.14264 478.5,358.9375 C 478.10132,358.86834 477.71129,358.78655 477.3125,358.71875 C 476.87678,358.64471 476.43584,358.5724 476,358.5 C 474.85347,358.30947 473.70971,358.11674 472.5625,357.9375 C 471.88256,357.83126 471.21136,357.72727 470.53125,357.625 C 469.64004,357.49097 468.73513,357.37721 467.84375,357.25 C 466.90837,357.11658 465.96666,356.96965 465.03125,356.84376 C 464.38444,356.75664 463.74052,356.67726 463.09375,356.59375 C 461.51539,356.39003 459.9526,356.21349 458.375,356.03125 C 456.80105,355.84931 455.22875,355.66052 453.65625,355.5 C 451.98598,355.32967 450.29279,355.17737 448.625,355.03125 C 448.20689,354.9946 447.79292,354.97262 447.375,354.9375 C 445.9767,354.82001 444.58336,354.69416 443.1875,354.59375 C 441.4008,354.46522 439.6255,354.3505 437.84375,354.25 C 437.81272,354.24825 437.78102,354.25174 437.75,354.25 C 436.76148,354.19452 435.76799,354.14058 434.78125,354.09375 C 434.69746,354.08977 434.61502,354.09767 434.53125,354.09375 C 433.06265,354.02513 431.58913,353.95567 430.125,353.90625 C 429.05508,353.87019 427.9735,353.83829 426.90625,353.8125 C 426.4152,353.80062 425.92796,353.79095 425.4375,353.78125 C 424.12642,353.75529 422.83774,353.72915 421.53125,353.71875 C 419.74274,353.70447 417.96648,353.70377 416.1875,353.71875 z"
         id="path2432"
         style="opacity:0.8;fill:#000000;fill-opacity:1;fill-rule:evenodd;stroke:none;stroke-width:3;stroke-linecap:round;stroke-linejoin:round;marker:none;marker-start:none;marker-mid:none;marker-end:none;stroke-miterlimit:4;stroke-dasharray:none;stroke-dashoffset:0;stroke-opacity:1;visibility:visible;display:inline;overflow:visible;enable-background:accumulate" />
    </clipPath>
    <linearGradient
       x1="245.5"
       y1="781.12561"
       x2="368.21875"
       y2="781.12561"
       id="linearGradient2649"
       xlink:href="#linearGradient2580"
       gradientUnits="userSpaceOnUse"
       gradientTransform="matrix(5.4486906e-2,0,0,5.4486906e-2,10.623856,-11.637238)" />
  </defs>
  <g
     id="layer1">
    <path
       d="M 33.300626,7.6358019 C 31.037149,7.6548462 28.923853,8.1082851 27.344526,9.0201099 C 27.344525,9.0201094 12.059246,17.848691 12.059246,17.848691 C 11.705906,18.052693 11.52924,18.299933 11.524226,18.562067 L 11.524166,26.287623 C 11.519741,26.63078 11.809122,26.999206 12.381059,27.329413 C 12.38106,27.329414 25.728648,35.035904 25.728648,35.035904 C 26.7398,35.619693 27.958665,35.694139 28.771402,35.224906 C 28.771402,35.224905 44.063492,26.396325 44.063492,26.396325 C 45.678382,25.463967 46.463707,24.209465 46.462934,22.869602 L 46.463146,15.095411 C 46.435902,13.343731 45.070512,11.45187 42.462939,9.9463873 C 39.785414,8.4005175 36.402427,7.6097043 33.300626,7.6358019 z"
       id="path2572"
       style="fill:#999999;fill-opacity:1;fill-rule:evenodd;stroke:none;stroke-width:3;stroke-linecap:round;stroke-linejoin:round;marker:none;marker-start:none;marker-mid:none;marker-end:none;stroke-miterlimit:4;stroke-dasharray:none;stroke-dashoffset:0;stroke-opacity:1;visibility:visible;display:inline;overflow:visible;enable-background:accumulate" />
    <path
       d="M 24.000392,26.316297 L 24.000392,34.038113 C 24.389985,34.263053 25.728648,35.035904 25.728648,35.035904 C 26.7398,35.619693 27.958665,35.694139 28.771402,35.224906 C 28.771402,35.224906 30.267318,34.362113 30.686957,34.119844 L 30.686957,26.398027 C 30.267318,26.640298 28.771402,27.50309 28.771402,27.50309 C 27.958665,27.972323 26.7398,27.897877 25.728648,27.314088 C 25.728648,27.314088 24.389985,26.541236 24.000392,26.316297 z"
       id="rect2385"
       style="opacity:0.3;fill:url(#linearGradient2649);fill-opacity:1;fill-rule:evenodd;stroke:none;stroke-width:3;stroke-linecap:round;stroke-linejoin:round;marker:none;marker-start:none;marker-mid:none;marker-end:none;stroke-miterlimit:4;stroke-dasharray:none;stroke-dashoffset:0;stroke-opacity:1;visibility:visible;display:inline;overflow:visible;enable-background:accumulate" />
    <path
       d="M 12.381516,19.607393 C 12.381516,19.607393 25.728721,27.313407 25.728721,27.313407 C 26.739874,27.897196 27.958856,27.971801 28.771592,27.502568 C 28.771592,27.502568 44.063494,18.673783 44.063494,18.673783 C 47.807084,16.512422 47.094259,12.619869 42.462865,9.9459312 C 37.831471,7.271995 31.087265,6.8592295 27.343675,9.0205916 C 27.343675,9.0205916 12.058465,17.847944 12.058465,17.847944 C 11.241143,18.319825 11.370363,19.023605 12.381516,19.607393 C 12.381516,19.607393 12.381516,19.607393 12.381516,19.607393"
       id="path2426"
       style="fill:#cccccc;fill-opacity:1;fill-rule:evenodd;stroke:none;stroke-width:3;stroke-linecap:round;stroke-linejoin:round;marker:none;marker-start:none;marker-mid:none;marker-end:none;stroke-miterlimit:4;stroke-dasharray:none;stroke-dashoffset:0;stroke-opacity:1;visibility:visible;display:inline;overflow:visible;enable-background:accumulate" />
    <path
       d="M 657.73359,493.6341 C 656.34359,518.24586 643.23492,534.48715 626.3118,548.00383 L 338.38078,715.27626 C 309.69196,731.72356 293.93801,722.23981 274.40953,713.25315 L 41.305041,577.91239 C 9.2452383,562.10452 13.43114,551.05018 26.366202,541.14328"
       transform="matrix(5.4486906e-2,0,0,5.4486906e-2,10.623856,-11.637238)"
       clip-path="url(#clipPath2430)"
       id="path2590"
       style="fill:none;fill-rule:evenodd;stroke:#ffffff;stroke-width:4;stroke-linecap:butt;stroke-linejoin:miter;stroke-opacity:1;filter:url(#filter3370)" />
    <path
       d="M 33.300626,7.6358019 C 33.176607,7.6368453 33.052487,7.6389557 32.929433,7.6426128 C 32.886204,7.6438993 32.843127,7.6461114 32.800027,7.6477209 C 32.697654,7.6515416 32.595128,7.6556957 32.493538,7.6613427 C 32.482196,7.6619731 32.470817,7.6623921 32.459484,7.6630454 C 32.433796,7.6645269 32.408495,7.6665549 32.382862,7.6681535 C 32.326419,7.6716707 32.270466,7.6759866 32.214293,7.6800725 C 32.081206,7.6897582 31.949014,7.7012423 31.81756,7.7141269 C 31.656508,7.7299128 31.495714,7.7480085 31.337394,7.7686138 C 31.283221,7.7756644 31.229464,7.7831329 31.175636,7.7907491 C 31.150698,7.7942782 31.125579,7.7973147 31.100717,7.8009654 C 31.078973,7.8041589 31.057699,7.807895 31.036013,7.8111817 C 30.979268,7.8197791 30.922074,7.8274869 30.865742,7.8367224 C 30.856648,7.8382142 30.847581,7.8403224 30.838499,7.8418306 C 30.79911,7.8483684 30.760189,7.855412 30.721011,7.8622632 C 30.694939,7.8668237 30.668663,7.8711854 30.642686,7.8758849 C 30.639845,7.8763987 30.637013,7.8770722 30.634173,7.8775876 C 30.488117,7.9041069 30.342871,7.9318037 30.19998,7.9627234 C 30.192583,7.9643242 30.185233,7.9662193 30.177845,7.9678316 C 30.140433,7.9759964 30.102647,7.9849044 30.065465,7.9933723 C 30.008514,8.0063456 29.951591,8.020552 29.895194,8.0342374 C 29.857547,8.0433749 29.820209,8.0520258 29.782815,8.0614809 C 29.765802,8.065781 29.748693,8.0707371 29.731734,8.0751026 C 29.69696,8.0840587 29.662415,8.0931133 29.627868,8.1023461 C 29.589739,8.1125324 29.551632,8.1224714 29.513785,8.1329949 C 29.512065,8.1334733 29.510397,8.1342182 29.508678,8.1346977 C 29.493157,8.1390212 29.478176,8.1439392 29.462704,8.1483194 C 29.356607,8.178364 29.251466,8.2092461 29.147702,8.2419688 C 29.114136,8.2525512 29.080555,8.2634573 29.047241,8.2743204 C 28.990843,8.2927195 28.93433,8.311305 28.878672,8.33051 C 28.829109,8.3476123 28.779497,8.3655516 28.730536,8.3832942 C 28.696885,8.3954867 28.663437,8.408259 28.630076,8.420754 C 28.627904,8.4215674 28.625436,8.4216416 28.623265,8.4224566 C 28.572343,8.4415701 28.521953,8.4605288 28.471724,8.480349 C 28.406516,8.5060793 28.341622,8.5317503 28.277614,8.5586739 C 28.243772,8.5729108 28.210652,8.5883736 28.177154,8.6029445 C 28.157313,8.6115742 28.137277,8.6197385 28.117559,8.6284853 C 28.089476,8.640942 28.061958,8.6549528 28.034125,8.6676477 C 28.009889,8.6787031 27.984954,8.6887631 27.960909,8.6999993 C 27.937094,8.7111277 27.913019,8.7227482 27.889395,8.7340537 C 27.826678,8.764077 27.765147,8.7947248 27.703799,8.8260003 C 27.669373,8.8435511 27.635622,8.8625419 27.601636,8.8804872 C 27.575174,8.8944555 27.547799,8.9071444 27.521608,8.9213524 C 27.461941,8.9537285 27.40276,8.9864882 27.344526,9.0201099 C 27.344525,9.0201094 12.059246,17.848691 12.059246,17.848691 C 12.037162,17.861441 12.015247,17.874773 11.994543,17.887854 C 11.973937,17.90088 11.954187,17.913675 11.934948,17.927017 C 11.915521,17.940488 11.896794,17.954104 11.878758,17.967881 C 11.860925,17.981505 11.844153,17.994837 11.827677,18.008747 C 11.811014,18.022814 11.795278,18.036969 11.78,18.051315 C 11.768185,18.06241 11.755232,18.074114 11.744243,18.085369 C 11.741253,18.08843 11.738659,18.092512 11.73573,18.095585 C 11.722889,18.109087 11.709932,18.121032 11.69827,18.134748 C 11.684907,18.150441 11.672634,18.168167 11.66081,18.184126 C 11.659893,18.185369 11.658314,18.186287 11.657405,18.187532 C 11.647373,18.201239 11.639063,18.214507 11.630162,18.228397 C 11.620555,18.24338 11.611211,18.257484 11.602918,18.272667 C 11.602446,18.273531 11.603386,18.275208 11.602918,18.276073 C 11.594962,18.290787 11.587509,18.305455 11.580783,18.320344 C 11.580252,18.321509 11.579603,18.322583 11.57908,18.323749 C 11.572505,18.338524 11.565719,18.353085 11.56035,18.36802 C 11.554824,18.383391 11.549276,18.398467 11.545026,18.413993 C 11.544593,18.415566 11.545445,18.417527 11.545026,18.419101 C 11.533125,18.463992 11.525891,18.509343 11.524593,18.555319 C 11.524525,18.557565 11.524636,18.55988 11.524593,18.562129 C 11.524545,18.564999 11.5246,18.567769 11.524593,18.570643 L 11.524593,26.287351 C 11.520168,26.630507 11.809122,26.999206 12.381059,27.329413 C 12.38106,27.329414 25.728648,35.035904 25.728648,35.035904 C 26.7398,35.619693 27.958665,35.694139 28.771402,35.224906 C 28.771402,35.224905 44.063492,26.396325 44.063492,26.396325 C 45.678382,25.463967 46.463392,24.209863 46.462619,22.87 L 46.462619,15.235023 C 46.463813,15.188339 46.463345,15.142295 46.462619,15.0954 C 46.462593,15.093709 46.462648,15.091984 46.462619,15.090292 C 46.461793,15.041674 46.460395,14.99268 46.457511,14.943858 C 46.455336,14.907037 46.452341,14.870108 46.448997,14.833182 C 46.447916,14.821243 46.446795,14.809374 46.445592,14.797425 C 46.444514,14.786734 46.443361,14.775771 46.442186,14.765073 C 46.441563,14.759405 46.441133,14.753716 46.440483,14.748046 C 46.434901,14.699335 46.427654,14.650472 46.420051,14.601612 C 46.419964,14.601057 46.420137,14.600465 46.420051,14.59991 C 46.415009,14.567667 46.408944,14.535155 46.403024,14.502855 C 46.396072,14.464925 46.38905,14.426772 46.380888,14.388773 C 46.372178,14.348225 46.362028,14.306791 46.351942,14.266177 C 46.346875,14.245791 46.342031,14.22528 46.336618,14.204879 C 46.327273,14.169616 46.318049,14.134611 46.307672,14.099311 C 46.307171,14.097611 46.306472,14.095904 46.305969,14.094203 C 46.295354,14.05827 46.283597,14.022894 46.271915,13.986932 C 46.265859,13.96829 46.26123,13.94939 46.254887,13.930742 C 46.252353,13.92329 46.248954,13.91606 46.246374,13.908607 C 46.234474,13.874245 46.221785,13.839117 46.208914,13.804741 C 46.203154,13.789366 46.197842,13.774145 46.191887,13.758768 C 46.172678,13.709125 46.151821,13.660276 46.130589,13.610632 C 46.113386,13.570408 46.096333,13.52995 46.077805,13.489739 C 46.073319,13.480003 46.068747,13.470528 46.064183,13.460793 C 46.059148,13.450044 46.053989,13.439188 46.048859,13.428441 C 46.030486,13.389988 46.010548,13.351082 45.990966,13.312656 C 45.965821,13.263314 45.939777,13.213798 45.912641,13.16452 C 45.886383,13.116835 45.85903,13.069095 45.830911,13.021492 C 45.829876,13.01974 45.828544,13.018136 45.827506,13.016384 C 45.809712,12.986347 45.791552,12.956137 45.773019,12.92614 C 45.761188,12.906987 45.749394,12.887383 45.737262,12.868248 C 45.729004,12.855228 45.720119,12.842096 45.711721,12.829085 C 45.688221,12.792663 45.664798,12.756458 45.640207,12.720111 C 45.611908,12.678289 45.583109,12.635821 45.553368,12.59411 C 45.548215,12.586885 45.543241,12.579197 45.538044,12.571975 C 45.503497,12.523958 45.467228,12.476792 45.430773,12.428947 C 45.430028,12.427969 45.429816,12.42652 45.42907,12.425542 C 45.387953,12.371641 45.3449,12.317438 45.301367,12.263783 C 45.29208,12.252342 45.281816,12.241158 45.27242,12.229729 C 45.236669,12.186235 45.200785,12.143632 45.163447,12.100323 C 45.131793,12.063603 45.099184,12.026223 45.066392,11.989646 C 45.050749,11.972203 45.034618,11.954271 45.018716,11.936862 C 44.99076,11.906255 44.962335,11.875412 44.93358,11.844915 C 44.911673,11.821686 44.889544,11.798266 44.867174,11.775104 C 44.843685,11.750785 44.819659,11.72613 44.79566,11.701887 C 44.766926,11.672868 44.736583,11.643954 44.707119,11.615049 C 44.652616,11.561581 44.597249,11.508044 44.540253,11.454993 C 44.499357,11.416929 44.458131,11.378746 44.415954,11.340912 C 44.399476,11.32613 44.383249,11.311386 44.366576,11.296641 C 44.359406,11.290301 44.351646,11.284244 44.34444,11.277911 C 44.314787,11.251849 44.28446,11.225531 44.254196,11.199586 C 44.230317,11.179116 44.206941,11.158682 44.182682,11.138288 C 44.121704,11.087021 44.058757,11.035813 43.995384,10.985044 C 43.944729,10.944478 43.892617,10.902678 43.840436,10.862448 C 43.826368,10.851601 43.812048,10.84092 43.797869,10.830097 C 43.753141,10.795964 43.70748,10.76181 43.661651,10.727934 C 43.639333,10.711438 43.616122,10.694988 43.593543,10.678555 C 43.593171,10.678285 43.592211,10.678825 43.59184,10.678555 C 43.52312,10.628555 43.453538,10.578117 43.382406,10.528716 C 43.316539,10.482972 43.249416,10.437703 43.181485,10.392499 C 43.175074,10.388233 43.169186,10.383139 43.162755,10.378877 C 43.137943,10.362432 43.112922,10.345869 43.087836,10.329498 C 43.038378,10.297225 42.988516,10.264422 42.937997,10.232444 C 42.920752,10.22153 42.902581,10.21097 42.885213,10.200092 C 42.825303,10.162567 42.764399,10.126513 42.703022,10.089415 C 42.623981,10.041641 42.544408,9.9934237 42.462939,9.9463873 C 42.379062,9.8979604 42.294468,9.8503007 42.209235,9.8033592 C 42.124448,9.7566633 42.038193,9.7106617 41.952125,9.6654392 C 41.901233,9.6386981 41.850202,9.6116372 41.79888,9.5854115 C 41.763373,9.5672734 41.727318,9.5488154 41.691609,9.5309246 C 41.651471,9.5108097 41.611104,9.4911318 41.570716,9.4713296 C 41.523193,9.4480326 41.475548,9.4243815 41.427688,9.4015182 C 41.398812,9.3877222 41.369845,9.3742911 41.34085,9.3606531 C 41.280829,9.3324256 41.220881,9.3047697 41.160362,9.27722 C 41.14329,9.2694474 41.126391,9.2611006 41.10928,9.253382 C 41.036509,9.2205612 40.963082,9.1881699 40.88963,9.1563272 C 40.884511,9.1541079 40.879428,9.1517312 40.874305,9.1495163 C 40.788456,9.1124025 40.702221,9.0763186 40.615493,9.0405425 C 40.558638,9.0170848 40.500732,8.9953156 40.443518,8.9724339 C 40.408247,8.958331 40.373353,8.9437498 40.33795,8.929866 C 40.277937,8.9063249 40.217842,8.8829653 40.157462,8.8600546 C 40.124625,8.8476 40.091646,8.8348626 40.058705,8.8225949 C 40.010709,8.8047144 39.962185,8.7872944 39.913974,8.7698107 C 39.868157,8.753202 39.822058,8.7366821 39.776054,8.7204319 C 39.740406,8.7078351 39.70454,8.6953538 39.668783,8.6829722 C 39.661504,8.6804527 39.653931,8.6786715 39.646647,8.6761613 C 39.571825,8.6503607 39.497163,8.6243955 39.421889,8.5995391 C 39.350123,8.5758503 39.277794,8.5525561 39.205644,8.5297277 C 39.194899,8.5263272 39.184045,8.5228929 39.173292,8.5195115 C 39.087571,8.4925623 39.0024,8.4669207 38.916182,8.4411865 C 38.844148,8.419674 38.772291,8.3988485 38.699937,8.378186 C 38.675451,8.3711954 38.651241,8.3629439 38.626721,8.3560507 C 38.558449,8.3368533 38.489218,8.3183022 38.420692,8.2998611 C 38.336297,8.2771499 38.251732,8.2550167 38.166987,8.2334552 C 38.124881,8.2227463 38.083172,8.211528 38.040986,8.2011036 C 37.998468,8.1905925 37.955877,8.180677 37.913283,8.1704547 C 37.857782,8.1571414 37.802036,8.1441147 37.746416,8.1312923 C 37.71697,8.124501 37.687353,8.1175131 37.657875,8.1108597 C 37.588564,8.0952225 37.519612,8.0797607 37.450144,8.0648863 C 37.434235,8.0614776 37.418385,8.058039 37.402468,8.05467 C 37.319866,8.0371999 37.236654,8.0199788 37.153871,8.0035886 C 37.151038,8.0030273 37.148192,8.002446 37.145358,8.0018858 C 37.059737,7.9849731 36.974022,7.9699647 36.888248,7.9542098 C 36.823885,7.9423791 36.760271,7.9313329 36.695841,7.9201555 C 36.674118,7.9163872 36.652867,7.9119307 36.631138,7.9082365 C 36.607397,7.9042022 36.583371,7.9002629 36.559624,7.8963174 C 36.497153,7.8859361 36.434833,7.8754348 36.372325,7.8656686 C 36.335277,7.8598799 36.298705,7.8542138 36.261648,7.8486414 C 36.213089,7.8413386 36.163783,7.8351401 36.115215,7.8282088 C 36.064249,7.8209392 36.012938,7.8129334 35.96197,7.8060735 C 35.926728,7.8013272 35.891642,7.797002 35.856402,7.7924518 C 35.770402,7.7813523 35.68525,7.7717326 35.599292,7.7618029 C 35.513532,7.7518896 35.427862,7.741603 35.342182,7.7328567 C 35.251174,7.723576 35.158917,7.7152776 35.068045,7.707316 C 35.045263,7.7053191 35.022707,7.7041215 34.999936,7.7022079 C 34.923747,7.6958062 34.847828,7.688949 34.771772,7.683478 C 34.67442,7.6764748 34.57769,7.6702235 34.480608,7.6647481 C 34.478917,7.6646527 34.47719,7.6648429 34.475499,7.6647481 C 34.421638,7.6617252 34.367506,7.6587862 34.313741,7.6562345 C 34.309176,7.6560177 34.304684,7.6564481 34.30012,7.6562345 C 34.2201,7.6524956 34.139813,7.648711 34.060037,7.6460183 C 34.00174,7.6440534 33.942808,7.6423159 33.884657,7.6409101 C 33.857901,7.6402628 33.831353,7.6397359 33.804629,7.6392074 C 33.733193,7.6377929 33.662977,7.6363686 33.59179,7.6358019 C 33.494339,7.6350239 33.397557,7.6349863 33.300626,7.6358019 z"
       id="path3391"
       style="opacity:0.80000000000000004;fill:#9500ab;fill-opacity:1;fill-rule:evenodd;stroke:none;stroke-width:3;stroke-linecap:round;stroke-linejoin:round;marker:none;marker-start:none;marker-mid:none;marker-end:none;stroke-miterlimit:4;stroke-dasharray:none;stroke-dashoffset:0;stroke-opacity:1;visibility:visible;display:inline;overflow:visible;enable-background:accumulate" />
    <path
       d="M 28.253172,13.632855 C 27.77476,13.909066 27.763694,14.373247 28.168262,14.777318 C 28.168262,14.777318 25.877604,16.099829 25.877604,16.099829 C 25.818699,16.133744 25.78076,16.178587 25.7676,16.229856 C 25.7676,16.229856 24.854143,19.823225 24.854143,19.823225 C 24.854143,19.823225 24.11806,20.248203 24.11806,20.248203 C 23.40239,19.990172 22.560521,19.98757 22.066021,20.273071 C 21.4631,20.621168 21.604429,21.267795 22.381484,21.716428 C 23.158541,22.165063 24.278531,22.246658 24.881453,21.898562 C 25.358766,21.622985 25.368507,21.159362 24.966768,20.755945 C 24.966768,20.755945 25.892807,20.221295 25.892807,20.221295 C 25.892807,20.221295 25.897805,20.222568 25.897805,20.222568 C 25.897805,20.222568 25.898395,20.21807 25.898395,20.21807 C 25.898395,20.21807 27.9544,19.031035 27.9544,19.031035 C 27.9544,19.031035 27.956603,19.03392 27.956603,19.03392 C 27.956603,19.03392 33.511568,18.56224 33.511568,18.56224 C 33.600863,18.555084 33.679166,18.533536 33.738582,18.499769 C 33.738582,18.499769 35.832299,17.290961 35.832299,17.290961 C 35.832299,17.290961 36.408346,17.623542 36.408346,17.623542 C 36.408346,17.623542 36.69637,17.789833 36.69637,17.789833 C 36.69637,17.789833 36.919849,17.660807 36.919849,17.660807 C 36.919849,17.660807 38.679744,16.644731 38.679744,16.644731 C 38.679744,16.644731 38.903223,16.515706 38.903223,16.515706 C 38.903223,16.515706 38.615199,16.349416 38.615199,16.349416 C 38.615199,16.349416 36.494623,15.1251 36.494623,15.1251 C 36.494623,15.1251 36.2066,14.95881 36.2066,14.95881 C 36.2066,14.95881 35.983121,15.087835 35.983121,15.087835 C 35.983121,15.087835 34.223225,16.103911 34.223225,16.103911 C 34.223225,16.103911 33.999746,16.232937 33.999746,16.232937 C 33.999746,16.232937 34.287771,16.399228 34.287771,16.399228 C 34.287771,16.399228 34.968227,16.792089 34.968227,16.792089 C 34.968227,16.792089 32.965298,17.94848 32.965298,17.94848 C 32.965298,17.94848 29.289685,18.260107 29.289685,18.260107 C 29.289685,18.260107 37.178485,13.705506 37.178485,13.705506 C 37.178485,13.705506 38.287377,14.345725 38.287377,14.345725 C 38.287377,14.345725 38.68521,14.575414 38.68521,14.575414 C 38.68521,14.575414 38.755367,14.306259 38.755367,14.306259 C 38.755367,14.306259 39.278669,12.245607 39.278669,12.245607 C 39.278669,12.245607 39.350224,11.975645 39.350224,11.975645 C 39.350224,11.975645 38.882233,12.015112 38.882233,12.015112 C 38.882233,12.015112 35.309883,12.317007 35.309883,12.317007 C 35.309883,12.317007 34.843691,12.357513 34.843691,12.357513 C 34.843691,12.357513 35.241524,12.587202 35.241524,12.587202 C 35.241524,12.587202 36.314413,13.206635 36.314413,13.206635 C 36.314413,13.206635 26.196413,19.048265 26.196413,19.048265 C 26.196413,19.048265 26.832463,16.546285 26.832463,16.546285 C 26.832463,16.546285 29.019762,15.283447 29.019762,15.283447 C 29.734423,15.539813 30.573379,15.542187 31.066805,15.257307 C 31.669726,14.90921 31.530198,14.263621 30.753141,13.814988 C 29.976085,13.366354 28.856094,13.284759 28.253172,13.632855 C 28.253172,13.632855 28.253172,13.632855 28.253172,13.632855"
       id="path5478"
       style="opacity:0.3;fill:#ffffff;stroke:none" />
    <path
       d="M 33.129941,7.0503773 C 30.563002,7.0598125 27.98693,7.7718472 25.862831,9.2285971 C 21.06079,12.02188 16.219953,14.751529 11.446398,17.591859 C 10.777857,18.18059 11.01747,19.154516 10.987672,19.935229 C 10.987672,20.516159 10.987672,21.097088 10.987672,21.678018 C 7.6833555,23.599699 4.3545018,25.464318 1.0762477,27.433276 C 0.68657505,28.048744 0.98758404,28.816746 0.89727674,29.496611 C 0.93239075,30.96504 0.78943632,32.453015 0.9811128,33.909006 C 1.5346835,34.512173 2.3670768,34.732845 3.0233573,35.203804 C 6.358236,37.111858 9.6656115,39.074486 13.016014,40.948185 C 13.740753,40.995793 14.230148,40.356296 14.857995,40.104395 C 17.94574,38.321085 21.033485,36.537775 24.12123,34.754466 C 25.311026,35.472924 26.634332,36.347675 28.095011,36.082744 C 29.388655,35.818532 30.393471,34.887898 31.556804,34.322777 C 36.097403,31.674847 40.692263,29.114402 45.190743,26.397796 C 46.455193,25.475397 47.287596,23.902434 47.104083,22.317294 C 47.064275,19.666463 47.198242,17.008524 47.028042,14.362356 C 46.575286,12.196959 44.804048,10.625626 42.976886,9.5429715 C 40.025007,7.7810222 36.54969,7.0162588 33.129941,7.0503773 z"
       id="path3983"
       style="fill:none;fill-opacity:1;fill-rule:evenodd;stroke:#000000;stroke-width:1.39999998;stroke-linecap:round;stroke-linejoin:round;marker:none;marker-start:none;marker-mid:none;marker-end:none;stroke-miterlimit:4;stroke-dasharray:none;stroke-dashoffset:0;stroke-opacity:1;visibility:visible;display:inline;overflow:visible;enable-background:accumulate" />
    <g
       transform="matrix(5.4486906e-2,0,0,5.4486906e-2,10.623856,-11.637238)"
       id="g3601">
      <path
         d="M -168.77267,830.90549 L 46.028909,954.92124 L 260.83049,830.90549 L 46.028909,706.88974 L -168.77267,830.90549 z"
         id="path2544"
         style="fill:#808080;fill-rule:evenodd;stroke:none;stroke-width:1px;stroke-linecap:butt;stroke-linejoin:miter;stroke-opacity:1" />
      <path
         d="M -165.70407,829.13384 L 52.166097,703.34643 L 52.166097,604.13384 L -165.70407,729.92124 L -165.70407,829.13384 z"
         id="path2443"
         style="fill:#4d4d4d;fill-opacity:1;fill-rule:evenodd;stroke:none;stroke-width:1px;stroke-linecap:butt;stroke-linejoin:miter;stroke-opacity:1" />
      <path
         d="M 30.68594,928.34643 L 258.83049,795.47242 L 258.83049,777.75588 L 30.68594,910.6299 L 30.68594,928.34643 z"
         id="path2451"
         style="fill:#b3b3b3;fill-rule:evenodd;stroke:none;stroke-width:1px;stroke-linecap:butt;stroke-linejoin:miter;stroke-opacity:1" />
      <path
         d="M -153.4297,822.04722 L -153.4297,804.33069 L 30.68594,910.6299 L 30.68594,928.34643 L -153.4297,822.04722 z"
         id="path2445"
         style="fill:#ececec;fill-rule:evenodd;stroke:none;stroke-width:1px;stroke-linecap:butt;stroke-linejoin:miter;stroke-opacity:1" />
      <path
         d="M 30.68594,910.6299 L -153.4297,804.33069 L 76.714849,671.45667 L 260.83049,777.75588 L 30.68594,910.6299 z"
         id="path2455"
         style="fill:#cccccc;fill-rule:evenodd;stroke:none;stroke-width:1px;stroke-linecap:butt;stroke-linejoin:miter;stroke-opacity:1" />
      <path
         d="M -103.8601,802.28647 C -103.8601,802.28647 -80.84565,815.57387 -80.84565,815.57387 C -80.84565,815.57387 122.74376,698.03147 122.74376,698.03147 C 122.74376,698.03147 99.729304,684.74407 99.729304,684.74407 C 99.729304,684.74407 -103.8601,802.28647 -103.8601,802.28647 C -103.8601,802.28647 -103.8601,802.28647 -103.8601,802.28647 M -65.50268,824.43214 C -65.50268,824.43214 -42.488225,837.71954 -42.488225,837.71954 C -42.488225,837.71954 161.10118,720.17714 161.10118,720.17714 C 161.10118,720.17714 138.08673,706.88974 138.08673,706.88974 C 138.08673,706.88974 -65.50268,824.43214 -65.50268,824.43214 C -65.50268,824.43214 -65.50268,824.43214 -65.50268,824.43214 M -27.145255,846.57781 C -27.145255,846.57781 -4.1307998,859.86521 -4.1307998,859.86521 C -4.1307998,859.86521 199.45861,742.32281 199.45861,742.32281 C 199.45861,742.32281 176.44415,729.03541 176.44415,729.03541 C 176.44415,729.03541 -27.145255,846.57781 -27.145255,846.57781 C -27.145255,846.57781 -27.145255,846.57781 -27.145255,846.57781 M 11.21217,868.72348 C 11.21217,868.72348 34.226625,882.01088 34.226625,882.01088 C 34.226625,882.01088 237.81603,764.46848 237.81603,764.46848 C 237.81603,764.46848 214.80158,751.18108 214.80158,751.18108 C 214.80158,751.18108 11.21217,868.72348 11.21217,868.72348 C 11.21217,868.72348 11.21217,868.72348 11.21217,868.72348"
         id="rect2461"
         style="fill:#808080;fill-opacity:1;fill-rule:evenodd;stroke:none;stroke-width:3;stroke-linecap:round;stroke-linejoin:round;marker:none;marker-start:none;marker-mid:none;marker-end:none;stroke-miterlimit:4;stroke-dashoffset:0;stroke-opacity:1;visibility:visible;display:inline;overflow:visible;enable-background:accumulate" />
      <path
         d="M 46.03125,600.59375 L -168.78125,724.59375 L 46.03125,848.625 L 260.84375,724.59375 L 46.03125,600.59375 z M 30.6875,680.3125 L 61.375,698.03125 L 0,733.46875 L -30.6875,715.75 L 30.6875,680.3125 z M 92.0625,715.75 L 122.75,733.46875 L 61.375,768.90625 L 30.6875,751.1875 L 92.0625,715.75 z"
         id="path2433"
         style="fill:#808080;fill-rule:evenodd;stroke:none;stroke-width:1px;stroke-linecap:butt;stroke-linejoin:miter;stroke-opacity:1" />
      <path
         d="M 46.028909,954.92124 L 46.028909,848.62203 L 260.83049,724.60628 L 260.83049,830.90549 L 46.028909,954.92124 z"
         id="path2437"
         style="fill:#4d4d4d;fill-rule:evenodd;stroke:none;stroke-width:1px;stroke-linecap:butt;stroke-linejoin:miter;stroke-opacity:1" />
      <path
         d="M -27.617346,717.51966 L -30.68594,715.74801 L 30.68594,680.31494 L 30.68594,683.85825 L -27.617346,717.51966 z"
         id="path2552"
         style="fill:#333333;fill-rule:evenodd;stroke:none;stroke-width:1px;stroke-linecap:butt;stroke-linejoin:miter;stroke-opacity:1" />
      <path
         d="M 30.68594,680.31494 L 30.68594,683.85825 L 58.303285,699.80313 L 61.371879,698.03147 L 30.68594,680.31494 z"
         id="path2554"
         style="fill:#e6e6e6;fill-opacity:1;fill-rule:evenodd;stroke:none;stroke-width:1px;stroke-linecap:butt;stroke-linejoin:miter;stroke-opacity:1" />
      <path
         d="M -168.78125,724.59375 L -168.78125,830.90625 L 46.03125,954.90625 L 46.03125,848.625 L -168.78125,724.59375 z M -165.71875,729.90625 L 42.96875,850.40625 L 42.96875,949.59375 L -165.71875,829.125 L -165.71875,729.90625 z"
         id="path2439"
         style="fill:#e6e6e6;fill-rule:evenodd;stroke:none;stroke-width:1px;stroke-linecap:butt;stroke-linejoin:miter;stroke-opacity:1" />
      <path
         d="M 33.754535,752.95273 L 30.685941,751.18108 L 92.057821,715.74801 L 92.057821,719.29132 L 33.754535,752.95273 z"
         id="path2564"
         style="fill:#333333;fill-rule:evenodd;stroke:none;stroke-width:1px;stroke-linecap:butt;stroke-linejoin:miter;stroke-opacity:1" />
      <path
         d="M 92.057821,715.74801 L 92.057821,719.29132 L 119.67517,735.2362 L 122.74376,733.46454 L 92.057821,715.74801 z"
         id="path2566"
         style="fill:#e6e6e6;fill-opacity:1;fill-rule:evenodd;stroke:none;stroke-width:1px;stroke-linecap:butt;stroke-linejoin:miter;stroke-opacity:1" />
      <path
         d="M 33.754533,752.95273 L 92.057819,719.29132 L 119.67516,735.2362 L 61.371879,768.89762 L 33.754533,752.95273 z"
         id="path2568"
         style="opacity:0.6;fill:#000000;fill-rule:evenodd;stroke:none;stroke-width:1px;stroke-linecap:butt;stroke-linejoin:miter;stroke-opacity:1" />
      <path
         d="M -27.617346,717.51965 L 30.68594,683.85824 L 58.303281,699.80312 L 0,733.46454 L -27.617346,717.51965 z"
         id="path2570"
         style="opacity:0.6;fill:#000000;fill-rule:evenodd;stroke:none;stroke-width:1px;stroke-linecap:butt;stroke-linejoin:miter;stroke-opacity:1" />
      <path
         d="M 47.10407,848.00556 L 258.39058,726.0102"
         id="path3396"
         style="opacity:0.23999999;fill:none;fill-rule:evenodd;stroke:#ffffff;stroke-width:4;stroke-linecap:butt;stroke-linejoin:miter;stroke-opacity:1;filter:url(#filter3406)" />
    </g>
  </g>
</svg>
