<?xml version="1.0" encoding="UTF-8"?>
<svg width="512" height="512" version="1.1" viewBox="0 -256 512 512" xmlns="http://www.w3.org/2000/svg" xmlns:cc="http://creativecommons.org/ns#" xmlns:dc="http://purl.org/dc/elements/1.1/" xmlns:rdf="http://www.w3.org/1999/02/22-rdf-syntax-ns#">
<metadata>
<rdf:RDF>
<cc:Work rdf:about="">
<dc:format>image/svg+xml</dc:format>
<dc:type rdf:resource="http://purl.org/dc/dcmitype/StillImage"/>
</cc:Work>
</rdf:RDF>
</metadata>
<path d="m256 175q-5.0781 0-8.7891-3.7109l-50-50q-3.7109-3.711-3.7109-8.7891 0-5.0781 3.7109-8.7891 3.7109-3.7109 8.7891-3.7109h25v-200h-25q-5.0781 0-8.7891-3.7109-3.7109-3.7109-3.7109-8.7891 0-5.0781 3.7109-8.789l50-50q3.7109-3.7109 8.7891-3.7109 5.0781 0 8.7891 3.7109l50 50q3.7109 3.7109 3.7109 8.789 0 5.0781-3.7109 8.7891-3.7109 3.7109-8.7891 3.7109h-25v200h25q5.0781 0 8.7891 3.7109 3.7109 3.711 3.7109 8.7891 0 5.0781-3.7109 8.7891l-50 50q-3.7109 3.7109-8.7891 3.7109z" fill="#fdfdfd"/>
<rect y="-256" width="512" height="512" fill-opacity="0" stroke-dasharray="10.5756, 21.1511" stroke-linecap="round" stroke-width="5.2878" style="paint-order:markers stroke fill"/>
</svg>
