<?xml version="1.0" encoding="UTF-8" standalone="no"?>
<svg
   viewBox="0 0 512 512"
   version="1.1"
   id="svg1"
   sodipodi:docname="video_checked.svg"
   width="512"
   height="512"
   inkscape:version="1.3 (0e150ed6c4, 2023-07-21)"
   xmlns:inkscape="http://www.inkscape.org/namespaces/inkscape"
   xmlns:sodipodi="http://sodipodi.sourceforge.net/DTD/sodipodi-0.dtd"
   xmlns="http://www.w3.org/2000/svg"
   xmlns:svg="http://www.w3.org/2000/svg">
  <defs
     id="defs1" />
  <sodipodi:namedview
     id="namedview1"
     pagecolor="#505050"
     bordercolor="#eeeeee"
     borderopacity="1"
     inkscape:showpageshadow="0"
     inkscape:pageopacity="0"
     inkscape:pagecheckerboard="0"
     inkscape:deskcolor="#505050"
     inkscape:zoom="0.28833008"
     inkscape:cx="709.25656"
     inkscape:cy="258.38442"
     inkscape:window-width="1350"
     inkscape:window-height="1237"
     inkscape:window-x="1023"
     inkscape:window-y="95"
     inkscape:window-maximized="0"
     inkscape:current-layer="svg1" />
  <!--! Font Awesome Pro 6.2.1 by @fontawesome - https://fontawesome.com License - https://fontawesome.com/license (Commercial License) Copyright 2022 Fonticons, Inc. -->
  <path
     d="m 81.000246,178.22233 c 0,-21.44962 17.439215,-38.88883 38.888834,-38.88883 h 155.55534 c 21.44962,0 38.88883,17.43921 38.88883,38.88883 v 155.55534 c 0,21.44962 -17.43921,38.88883 -38.88883,38.88883 H 119.88908 c -21.449619,0 -38.888834,-17.43921 -38.888834,-38.88883 z M 420.73067,161.08694 c 6.31944,3.40277 10.26908,9.96527 10.26908,17.13539 v 155.55534 c 0,7.17012 -3.94964,13.73262 -10.26908,17.13539 -6.31943,3.40277 -13.97567,3.03819 -19.99129,-0.97222 l -58.33325,-38.88883 -8.62846,-5.77257 v -10.39061 -77.77766 -10.39061 l 8.62846,-5.77257 58.33325,-38.88883 c 5.95485,-3.94965 13.61109,-4.37499 19.99129,-0.97222 z"
     id="path1"
     style="fill:#fdfdfd;fill-opacity:1;stroke-width:0.607638" />
  <rect
     style="fill:#ffffff;fill-opacity:0;fill-rule:evenodd;stroke-width:5.28775;stroke-linecap:round;stroke-dasharray:10.5756, 21.1511;paint-order:markers stroke fill"
     id="rect2"
     width="512"
     height="512"
     x="0"
     y="0" />
  <path
     d="m 104.36412,274.37245 63.71106,58.32816 124.56296,-148.58618"
     style="fill:none;stroke:#000000;stroke-width:40;stroke-dasharray:none;stroke-opacity:1"
     id="path1-4"
     sodipodi:nodetypes="ccc" />
</svg>
