<?xml version="1.0" encoding="UTF-8"?>
<svg version="1.1" viewBox="0 0 128 128" xmlns="http://www.w3.org/2000/svg" xmlns:xlink="http://www.w3.org/1999/xlink">
<defs>
<linearGradient id="a">
<stop stop-color="#7a8288" offset="0"/>
<stop stop-color="#a3a3a3" offset=".52884"/>
<stop stop-color="#7d858b" offset="1"/>
</linearGradient>
<linearGradient id="m" x1="-113.89" x2="412.23" y1="461.92" y2="463.26" gradientTransform="matrix(.30879 0 0 .30879 51.575 126.37)" gradientUnits="userSpaceOnUse">
<stop stop-color="#f60000" offset="0"/>
<stop stop-color="#a42e2e" offset="1"/>
</linearGradient>
<linearGradient id="l" x1="104.89" x2="164.76" y1="12.641" y2="27.389" gradientTransform="matrix(.30879 0 0 .30879 51.575 126.37)" gradientUnits="userSpaceOnUse" xlink:href="#a"/>
<linearGradient id="k" x1="44.104" x2="278.43" y1="228.6" y2="290.7" gradientTransform="matrix(.30879 0 0 .30879 51.575 126.37)" gradientUnits="userSpaceOnUse" xlink:href="#a"/>
<linearGradient id="j" x1="115.2" x2="261.62" y1="70.105" y2="55.356" gradientTransform="matrix(.30879 0 0 .30879 51.575 126.37)" gradientUnits="userSpaceOnUse">
<stop stop-color="#f40000" stop-opacity="0" offset="0"/>
<stop stop-color="#bc3838" stop-opacity=".72785" offset=".54768"/>
<stop stop-color="#c00" offset=".81622"/>
<stop stop-color="#a40000" offset="1"/>
</linearGradient>
<linearGradient id="i" x1="64.751" x2="93.522" y1="102.28" y2="108.99" gradientTransform="matrix(.30879 0 0 .30879 51.575 126.37)" gradientUnits="userSpaceOnUse">
<stop stop-color="#9b0000" offset="0"/>
<stop stop-color="#a93c3c" offset="1"/>
</linearGradient>
<linearGradient id="h" x1="40.775" x2="44.376" y1="100.34" y2="125.32" gradientTransform="matrix(1.0941 0 0 1.1163 51.575 124.82)" gradientUnits="userSpaceOnUse">
<stop stop-color="#aa3232" offset="0"/>
<stop stop-color="#d82727" offset="1"/>
</linearGradient>
</defs>
<g transform="matrix(.66897 0 0 .66897 -6.8985 -55.767)">
<path d="m25.492 261.45s-2.7012 2.9137-3.4157 5.2788c-0.49929 1.6527-0.69421 4.1168 0.20701 5.5894 0.66124 1.0805 1.5279 2.1734 2.7947 2.1736 55.073 8e-3 115.98 0.0892 158.83 0.20701 1.4507 4e-3 4.2026-0.25063 5.3306-1.8631 1.1498-1.6436 1.1214-5.3073 0.31052-7.142-0.85386-1.932-4.8648-2.7947-4.8648-2.7947z" fill="#903b3b" fill-rule="evenodd" stroke-width=".25"/>
<path d="m45.785 203.35c-2.5162 0-5.1284 1.9386-5.8574 4.3526l-17.582 58.238c-0.72896 2.414 0.70677 4.3623 3.223 4.3623h162.14c1.9171 0 3.0161-1.4784 2.4607-3.3177l-18.219-60.318c-0.55539-1.8392-2.5411-3.3177-4.4582-3.3177z" fill="url(#h)" fill-rule="evenodd" stroke-width=".25"/>
<path d="m105.86 83.366c-4.1821-0.04205-6.6425 0.26879-9.1093 2.1229-1.1259 0.84629-2.0156 2.8564-2.5475 4.3038l-42.922 141.69s1.0008 6.4026 7.0728 12.223c4.0932 3.9233 11.856 6.8302 16.733 7.8872 12.517 2.7129 22.554 3.3607 33.906 3.1888 11.66-0.17659 23.309-2.4684 34.52-5.6766 16.721-4.7848 17.253-18.211 17.253-18.211l-44.147-143.73c-0.1818-0.5919-0.62408-1.0284-0.97462-1.3606-2.6225-2.4857-6.5963-2.3997-9.7848-2.4317z" fill="url(#i)" fill-rule="evenodd" stroke-width=".25"/>
<path d="m105.86 83.366c-4.1821-0.04205-6.6425 0.26879-9.1093 2.1229-1.1259 0.84629-2.0156 2.8564-2.5475 4.3038l-42.922 141.69s1.8874 12.254 17.077 18.228c10.514 4.1346 21.367 4.6832 38.254 4.8638 18.807 0.20118 26.468-1.6441 38.761-5.9332 5.7864-2.019 8.786-4.644 11.53-7.5546 3.9686-4.2093 3.8632-10.192 3.8632-10.192l-44.147-143.73c-0.29841-0.54254-0.62408-1.0284-0.97462-1.3606-2.6225-2.4857-6.5963-2.3997-9.7848-2.4317z" fill="url(#j)" fill-rule="evenodd" stroke-width=".25"/>
<path d="m66.957 179.76-9.8137 32.394c11.902 10.031 29.369 16.366 48.837 16.366 19.556 0 37.086-6.3913 48.991-16.501l-9.8813-32.182c-9.0969 7.2575-23.196 11.917-39.023 11.917-15.88 0-30.016-4.6958-39.11-11.995z" fill="url(#k)" fill-rule="evenodd" stroke-width=".25"/>
<path d="m123.69 110.17c-4.6315 1.5542-10.96 2.5186-17.948 2.5186-6.8745 0-13.116-0.93163-17.726-2.4414l-10.354 34.189c6.9599 3.6424 17.151 5.9442 28.515 5.9442 11.139 0 21.16-2.2043 28.11-5.7223z" fill="url(#l)" fill-rule="evenodd" stroke-width=".25"/>
<path d="m100.13 89.072c1.3437 0.25185 2.4818 2.0068 2.3421 3.3667-4.9423 48.095-10.755 100.39-15.37 146.82 0 0-0.51417 3.2209-1.7566 3.9523-5.2345 3.0814-12.714 1.0968-18.151-1.6102-3.711-1.8475-7.1442-5.2539-8.3437-9.222-1.242-4.1085 0.84177-8.5762 1.9029-12.735 10.828-42.438 25.112-89.159 35.57-128.01 0.3975-1.4767 2.3028-2.8434 3.8059-2.5617z" fill="#eee" fill-rule="evenodd" opacity=".10638" stroke-width=".25"/>
<path d="m113.47 84.741a7.543 1.1903 0 1 1-15.086 0 7.543 1.1903 0 1 1 15.086 0z" fill="#a12a2a" stroke-width=".25"/>
<path d="m22.283 266.47s0.52605 1.3253 1.7247 1.8754c1.0098 0.46236 4.848 0.29881 4.848 0.29881s105.95 1.3e-4 157.8 0c0.84867-2.5e-4 1.7474-0.013 2.5198-0.36482 0.83204-0.37898 0.99372-1.2968 0.99372-1.2968s0.40812 1.6133-0.5258 2.6042c-0.66204 0.70246-1.8413 0.71323-2.8065 0.71345-52.239 0.0118-106.81 0-159.74 0-1.3705-5e-4 -3.0904 0.12012-4.0133-0.89302-1.2512-1.3734-0.79689-2.9372-0.79689-2.9372z" fill="url(#m)" fill-rule="evenodd" stroke-width=".25"/>
<path transform="matrix(1.0941 0 0 1.0941 51.575 126.37)" d="m-1.0686 89.844s-2.6241 1.8914-2.9827 4.291c-0.60667 4.0589 3.9967 9.6908 6.5227 12.925 2.718 3.4803 8.2641 5.9331 12.338 7.6358 6.3566 2.6565 13.347 3.6362 20.193 4.4077 6.5807 0.74159 14.584 0.45958 21.191 0 6.8068-0.47353 15.741-1.1023 18.92-1.7028 7.1836-1.357 12.777-3.4772 18.04-7.0005 2.2432-1.5017 5.2672-4.5236 6.7127-6.8033 1.1027-1.739 3.1602-5.3221 3.2494-7.3793 0.0503-1.1584-2.97-3.5456-2.97-3.5456s-1.5925 10.77-16.407 17.128c-8.5275 3.6597-17.902 4.7344-27.167 5.2652-8.9551 0.51305-20.087 0.1568-28.873-1.6474-6.5079-1.3363-11.881-3.7837-17.794-6.8113-6.1953-3.1717-9.3658-11.481-10.614-14.778-0.94045-2.4846-0.3581-1.9846-0.3581-1.9846z" fill="#b83636" fill-rule="evenodd"/>
</g>
</svg>
