<?xml version="1.0" encoding="UTF-8" standalone="no"?>
<!-- Generator: Adobe Illustrator 16.2.1, SVG Export Plug-In . SVG Version: 6.00 Build 0)  -->

<svg
   xmlns:dc="http://purl.org/dc/elements/1.1/"
   xmlns:cc="http://creativecommons.org/ns#"
   xmlns:rdf="http://www.w3.org/1999/02/22-rdf-syntax-ns#"
   xmlns:svg="http://www.w3.org/2000/svg"
   xmlns="http://www.w3.org/2000/svg"
   xmlns:sodipodi="http://sodipodi.sourceforge.net/DTD/sodipodi-0.dtd"
   xmlns:inkscape="http://www.inkscape.org/namespaces/inkscape"
   version="1.1"
   id="Layer_1"
   x="0px"
   y="0px"
   width="512px"
   height="512px"
   viewBox="0 0 512 512"
   enable-background="new 0 0 512 512"
   xml:space="preserve"
   inkscape:version="0.48.2 r9819"
   sodipodi:docname="arrow-curve-recycle.svg"><metadata
   id="metadata3848"><rdf:RDF><cc:Work
       rdf:about=""><dc:format>image/svg+xml</dc:format><dc:type
         rdf:resource="http://purl.org/dc/dcmitype/StillImage" /></cc:Work></rdf:RDF></metadata><defs
   id="defs3846" /><sodipodi:namedview
   pagecolor="#ffffff"
   bordercolor="#666666"
   borderopacity="1"
   objecttolerance="10"
   gridtolerance="10"
   guidetolerance="10"
   inkscape:pageopacity="0"
   inkscape:pageshadow="2"
   inkscape:window-width="971"
   inkscape:window-height="692"
   id="namedview3844"
   showgrid="false"
   inkscape:zoom="0.83398438"
   inkscape:cx="44.36534"
   inkscape:cy="256"
   inkscape:window-x="123"
   inkscape:window-y="162"
   inkscape:window-maximized="0"
   inkscape:current-layer="Layer_1" />
<g
   id="g3836"
   style="fill:#ffffff;fill-opacity:1">
	<path
   d="M256,0C114.609,0,0,114.609,0,256s114.609,256,256,256s256-114.609,256-256S397.391,0,256,0z M256,472   c-119.297,0-216-96.703-216-216S136.703,40,256,40s216,96.703,216,216S375.297,472,256,472z"
   id="path3838"
   style="fill:#ffffff;fill-opacity:1" />
	<path
   d="M279.5,176c0,0-58.797-0.922-101,26.438C136.297,229.828,125.875,288,125.875,288s37.875-43.516,75.219-57.594   C241.938,215,279.5,224,279.5,224v48l96-64l-96-80V176z"
   id="path3840"
   style="fill:#ffffff;fill-opacity:1" />
	<path
   d="M301.344,281.594C260.5,297,215.5,288,215.5,288v-48l-96,64l96,80v-48c0,0,67.297,0.922,109.5-26.438   C367.203,282.172,379.75,224,379.75,224S338.688,267.516,301.344,281.594z"
   id="path3842"
   style="fill:#ffffff;fill-opacity:1" />
</g>
</svg>