<?xml version="1.0" encoding="UTF-8" standalone="no"?>
<!-- Generator: Adobe Illustrator 16.2.1, SVG Export Plug-In . SVG Version: 6.00 Build 0)  -->

<svg
   version="1.1"
   id="Layer_1"
   x="0px"
   y="0px"
   width="512px"
   height="512px"
   viewBox="0 0 512 512"
   enable-background="new 0 0 512 512"
   xml:space="preserve"
   inkscape:version="1.3 (0e150ed6c4, 2023-07-21)"
   sodipodi:docname="arrow-reset.svg"
   xmlns:inkscape="http://www.inkscape.org/namespaces/inkscape"
   xmlns:sodipodi="http://sodipodi.sourceforge.net/DTD/sodipodi-0.dtd"
   xmlns="http://www.w3.org/2000/svg"
   xmlns:svg="http://www.w3.org/2000/svg"
   xmlns:rdf="http://www.w3.org/1999/02/22-rdf-syntax-ns#"
   xmlns:cc="http://creativecommons.org/ns#"
   xmlns:dc="http://purl.org/dc/elements/1.1/"><metadata
   id="metadata3848"><rdf:RDF><cc:Work
       rdf:about=""><dc:format>image/svg+xml</dc:format><dc:type
         rdf:resource="http://purl.org/dc/dcmitype/StillImage" /></cc:Work></rdf:RDF></metadata><defs
   id="defs3846">&#10;	&#10;	&#10;	&#10;</defs><sodipodi:namedview
   pagecolor="#000000"
   bordercolor="#666666"
   borderopacity="1"
   objecttolerance="10"
   gridtolerance="10"
   guidetolerance="10"
   inkscape:pageopacity="0"
   inkscape:pageshadow="2"
   inkscape:window-width="1316"
   inkscape:window-height="692"
   id="namedview3844"
   showgrid="false"
   inkscape:zoom="0.58971601"
   inkscape:cx="128.02773"
   inkscape:cy="308.62313"
   inkscape:window-x="511"
   inkscape:window-y="309"
   inkscape:window-maximized="0"
   inkscape:current-layer="Layer_1"
   inkscape:showpageshadow="0"
   inkscape:pagecheckerboard="0"
   inkscape:deskcolor="#505050" />&#10;<g
   id="g1"
   transform="matrix(1.0165876,0,0,1.0165876,2.2343204,-4.2464256)"><path
     d="m 279.5,176 c 0,0 -58.797,-0.922 -101,26.438 -42.203,27.39 -52.625,85.562 -52.625,85.562 0,0 37.875,-43.516 75.219,-57.594 C 241.938,215 279.5,224 279.5,224 v 48 l 96,-64 -96,-80 z"
     id="path3840"
     style="fill:#ffffff;fill-opacity:1" /><path
     d="M 301.344,281.594 C 260.5,297 215.5,288 215.5,288 v -48 l -96,64 96,80 v -48 c 0,0 67.297,0.922 109.5,-26.438 42.203,-27.39 54.75,-85.562 54.75,-85.562 0,0 -41.062,43.516 -78.406,57.594 z"
     id="path3842"
     style="fill:#ffffff;fill-opacity:1" /></g>&#10;<rect
   style="fill:#ffffff;fill-opacity:0;fill-rule:evenodd;stroke-width:5.28775;stroke-linecap:round;stroke-dasharray:10.5756, 21.1511;paint-order:markers stroke fill"
   id="rect2"
   width="512"
   height="512"
   x="0"
   y="0" /></svg>
