<?xml version="1.0" encoding="UTF-8" standalone="no"?>
<!-- Generator: Adobe Illustrator 16.2.1, SVG Export Plug-In . SVG Version: 6.00 Build 0)  -->

<svg
   version="1.1"
   id="Layer_1"
   x="0px"
   y="0px"
   width="512px"
   height="512px"
   viewBox="0 0 512 512"
   enable-background="new 0 0 512 512"
   xml:space="preserve"
   inkscape:version="1.3 (0e150ed6c4, 2023-07-21)"
   sodipodi:docname="atom.svg"
   xmlns:inkscape="http://www.inkscape.org/namespaces/inkscape"
   xmlns:sodipodi="http://sodipodi.sourceforge.net/DTD/sodipodi-0.dtd"
   xmlns="http://www.w3.org/2000/svg"
   xmlns:svg="http://www.w3.org/2000/svg"
   xmlns:rdf="http://www.w3.org/1999/02/22-rdf-syntax-ns#"
   xmlns:cc="http://creativecommons.org/ns#"
   xmlns:dc="http://purl.org/dc/elements/1.1/"><metadata
   id="metadata7949"><rdf:RDF><cc:Work
       rdf:about=""><dc:format>image/svg+xml</dc:format><dc:type
         rdf:resource="http://purl.org/dc/dcmitype/StillImage" /></cc:Work></rdf:RDF></metadata><defs
   id="defs7947" /><sodipodi:namedview
   pagecolor="#000000"
   bordercolor="#666666"
   borderopacity="1"
   objecttolerance="10"
   gridtolerance="10"
   guidetolerance="10"
   inkscape:pageopacity="0"
   inkscape:pageshadow="2"
   inkscape:window-width="727"
   inkscape:window-height="480"
   id="namedview7945"
   showgrid="false"
   inkscape:zoom="0.50976562"
   inkscape:cx="255.01916"
   inkscape:cy="255.01916"
   inkscape:window-x="459"
   inkscape:window-y="498"
   inkscape:window-maximized="0"
   inkscape:current-layer="Layer_1"
   inkscape:showpageshadow="0"
   inkscape:pagecheckerboard="0"
   inkscape:deskcolor="#505050" />&#10;&#10;&#10;<g
   id="g1"
   transform="matrix(1.0334646,0,0,1.0334646,-8.5669376,-8.5669376)"><g
     id="g7939"
     style="fill:#ffffff;fill-opacity:1">&#10;	<path
   d="m 384,256 c 0,-15.719 -10.797,-29.953 -28.953,-40.969 5.266,-21.25 2.422,-38.594 -8.531,-49.531 -7.297,-7.312 -17.78,-11.156 -30.297,-11.156 -6.016,0 -12.5,1.078 -19.188,2.719 C 286,138.844 271.75,128 256,128 c -15.75,0 -30,10.844 -41.031,29.062 -6.688,-1.625 -13.188,-2.719 -19.188,-2.719 -12.531,0 -23,3.859 -30.297,11.156 -11.125,11.125 -13.547,28.844 -8.484,49.5 -18.188,11.031 -29,25.266 -29,41 0,15.733 10.812,29.969 29,41 -5.062,20.672 -2.625,38.392 8.5,49.517 7.281,7.297 17.766,11.155 30.281,11.155 6.016,0 12.5,-1.078 19.188,-2.719 C 226,373.172 240.25,384 256,384 c 15.75,0 30,-10.828 41.031,-29.047 6.672,1.641 13.156,2.719 19.156,2.719 12.53,0 23.016,-3.859 30.312,-11.156 10.953,-10.938 13.797,-28.297 8.531,-49.531 C 373.203,285.953 384,271.719 384,256 Z m -95.031,-79.688 c 5.344,-2.047 10.562,-3.672 15.484,-4.625 4.094,-0.812 8.078,-1.344 11.766,-1.344 8.312,0 14.688,2.172 18.984,6.469 6.188,6.172 7.891,17.062 5.156,30.75 -0.859,4.312 -2.125,8.875 -3.875,13.719 -0.203,0.562 -0.562,1.188 -0.781,1.75 -2.297,6 -5.203,12.094 -8.609,18.25 -2.703,-3.719 -5.344,-7.438 -8.344,-11.109 -4.875,-5.953 -10.156,-11.797 -15.734,-17.484 -0.625,-0.625 -1.141,-1.312 -1.766,-1.938 -0.641,-0.625 -1.312,-1.188 -1.953,-1.812 -5.734,-5.625 -11.625,-10.812 -17.594,-15.688 -3.641,-2.984 -7.281,-5.844 -10.969,-8.516 6.235,-3.453 12.297,-6.172 18.235,-8.422 z M 318.203,256 c -4.453,6.562 -9.547,13.047 -15.016,19.438 -4.188,4.906 -8.531,9.781 -13.25,14.5 -4.703,4.703 -9.547,9.062 -14.453,13.234 -6.422,5.484 -12.953,10.469 -19.5,14.922 -6.547,-4.453 -13.078,-9.438 -19.516,-14.922 -4.875,-4.172 -9.719,-8.516 -14.406,-13.219 -4.844,-4.828 -9.109,-9.703 -13.25,-14.562 -5.531,-6.516 -10.594,-12.983 -14.906,-19.391 4.312,-6.391 9.375,-12.875 14.906,-19.375 4.141,-4.875 8.406,-9.75 13.25,-14.562 4.688,-4.719 9.531,-9.062 14.438,-13.25 6.422,-5.469 12.953,-10.438 19.484,-14.891 6.547,4.453 13.062,9.422 19.484,14.891 4.906,4.188 9.767,8.547 14.47,13.25 4.719,4.719 9.062,9.594 13.25,14.5 5.468,6.406 10.562,12.906 15.015,19.437 z M 256,144 c 8.531,0 17.422,6.5 25.219,18.125 -8.234,3.281 -16.688,7.594 -25.219,12.781 -8.531,-5.172 -17,-9.5 -25.219,-12.781 C 238.562,150.5 247.469,144 256,144 Z m -79.203,32.812 c 4.297,-4.281 10.672,-6.469 18.984,-6.469 3.688,0 7.656,0.531 11.766,1.344 4.922,0.969 10.141,2.594 15.484,4.625 5.922,2.266 11.984,4.969 18.219,8.422 -3.688,2.672 -7.344,5.547 -10.969,8.516 -5.969,4.875 -11.844,10.031 -17.578,15.656 -0.641,0.625 -1.328,1.188 -1.953,1.844 -0.656,0.641 -1.25,1.312 -1.891,1.969 -5.578,5.688 -10.812,11.469 -15.594,17.297 -2.984,3.641 -5.766,7.297 -8.438,10.969 -3.391,-6.203 -6.266,-12.25 -8.438,-17.984 -2.047,-5.438 -3.641,-10.656 -4.594,-15.5 -2.717,-13.735 -1.045,-24.657 5.002,-30.689 z M 162.156,281.25 C 150.531,273.453 144,264.547 144,256 c 0,-8.531 6.516,-17.438 18.156,-25.234 3.25,8.203 7.516,16.672 12.719,25.234 -5.203,8.594 -9.469,17.047 -12.719,25.25 z m 60.875,54.453 c -5.344,2.047 -10.562,3.672 -15.469,4.641 -4.109,0.797 -8.078,1.328 -11.781,1.328 -8.297,0 -14.688,-2.188 -18.969,-6.469 -6.047,-6.047 -7.719,-16.953 -5,-30.703 0.953,-4.828 2.531,-10.047 4.594,-15.5 2.156,-5.719 5.047,-11.766 8.422,-17.969 2.672,3.672 5.453,7.328 8.453,10.969 4.766,5.828 10,11.594 15.562,17.281 0.656,0.656 1.25,1.328 1.906,1.984 0.641,0.641 1.312,1.202 1.969,1.844 5.719,5.608 11.594,10.781 17.531,15.641 3.656,2.984 7.312,5.859 11,8.531 -6.218,3.453 -12.28,6.157 -18.218,8.422 z M 256,368 c -8.531,0 -17.422,-6.5 -25.203,-18.109 8.219,-3.281 16.672,-7.608 25.188,-12.797 8.531,5.203 16.984,9.531 25.219,12.812 C 273.422,361.5 264.531,368 256,368 Z m 79.188,-32.797 c -4.297,4.297 -10.688,6.469 -19,6.469 -3.688,0 -7.655,-0.531 -11.75,-1.328 -4.922,-0.969 -10.125,-2.594 -15.483,-4.641 -5.922,-2.25 -11.984,-4.969 -18.234,-8.422 3.703,-2.672 7.345,-5.547 11,-8.531 5.953,-4.875 11.845,-10.047 17.578,-15.672 0.642,-0.641 1.312,-1.188 1.953,-1.828 0.625,-0.625 1.156,-1.312 1.767,-1.938 5.577,-5.688 10.858,-11.517 15.719,-17.47 3,-3.672 5.655,-7.391 8.358,-11.125 3.392,6.173 6.297,12.267 8.578,18.25 0.234,0.595 0.578,1.203 0.797,1.781 1.75,4.812 3,9.375 3.875,13.688 2.732,13.689 1.029,24.595 -5.158,30.767 z M 349.75,281.297 C 346.422,272.969 342.031,264.5 336.875,256 c 5.156,-8.5 9.562,-16.969 12.875,-25.297 C 361.438,238.5 368,247.438 368,256 c 0,8.562 -6.562,17.5 -18.25,25.297 z"
   id="path7941"
   style="fill:#ffffff;fill-opacity:1" />&#10;</g><path
     d="m 288,256 c 0,17.672 -14.328,32 -32,32 -17.656,0 -32,-14.328 -32,-32 0,-17.656 14.344,-32 32,-32 17.672,0 32,14.344 32,32 z"
     id="path7943"
     style="fill:#ffffff;fill-opacity:1" /></g>&#10;<rect
   style="fill:#ffffff;fill-opacity:0;fill-rule:evenodd;stroke-width:5.28775;stroke-linecap:round;stroke-dasharray:10.5756, 21.1511;paint-order:markers stroke fill"
   id="rect2"
   width="512"
   height="512"
   x="0"
   y="0" /></svg>
