<?xml version="1.0" encoding="UTF-8" standalone="no"?>
<!-- Generator: Adobe Illustrator 16.2.1, SVG Export Plug-In . SVG Version: 6.00 Build 0)  -->

<svg
   xmlns:dc="http://purl.org/dc/elements/1.1/"
   xmlns:cc="http://creativecommons.org/ns#"
   xmlns:rdf="http://www.w3.org/1999/02/22-rdf-syntax-ns#"
   xmlns:svg="http://www.w3.org/2000/svg"
   xmlns="http://www.w3.org/2000/svg"
   xmlns:sodipodi="http://sodipodi.sourceforge.net/DTD/sodipodi-0.dtd"
   xmlns:inkscape="http://www.inkscape.org/namespaces/inkscape"
   version="1.1"
   id="Layer_1"
   x="0px"
   y="0px"
   width="512px"
   height="512px"
   viewBox="0 0 512 512"
   enable-background="new 0 0 512 512"
   xml:space="preserve"
   inkscape:version="0.48.2 r9819"
   sodipodi:docname="clock.svg"><metadata
   id="metadata5126"><rdf:RDF><cc:Work
       rdf:about=""><dc:format>image/svg+xml</dc:format><dc:type
         rdf:resource="http://purl.org/dc/dcmitype/StillImage" /></cc:Work></rdf:RDF></metadata><defs
   id="defs5124" /><sodipodi:namedview
   pagecolor="#ffffff"
   bordercolor="#666666"
   borderopacity="1"
   objecttolerance="10"
   gridtolerance="10"
   guidetolerance="10"
   inkscape:pageopacity="0"
   inkscape:pageshadow="2"
   inkscape:window-width="719"
   inkscape:window-height="480"
   id="namedview5122"
   showgrid="false"
   inkscape:zoom="0.6640625"
   inkscape:cx="256"
   inkscape:cy="256"
   inkscape:window-x="169"
   inkscape:window-y="47"
   inkscape:window-maximized="0"
   inkscape:current-layer="Layer_1" />
<g
   id="g5110"
   style="fill:#ffffff;fill-opacity:1">
	<path
   d="M256,0C114.609,0,0,114.609,0,256s114.609,256,256,256s256-114.609,256-256S397.391,0,256,0z M256,472   c-119.297,0-216-96.703-216-216S136.703,40,256,40s216,96.703,216,216S375.297,472,256,472z"
   id="path5112"
   style="fill:#ffffff;fill-opacity:1" />
	<path
   d="M256,128c-70.688,0-128,57.312-128,128s57.312,128,128,128s128-57.312,128-128S326.688,128,256,128z M256,360   c-57.438,0-104-46.578-104-104c0-57.438,46.562-104,104-104c57.422,0,104,46.562,104,104C360,313.422,313.422,360,256,360z"
   id="path5114"
   style="fill:#ffffff;fill-opacity:1" />
	<path
   d="M256,272c-8.844,0-16-7.156-16-16s7.156-16,16-16s16,7.156,16,16S264.844,272,256,272z"
   id="path5116"
   style="fill:#ffffff;fill-opacity:1" />
	<polygon
   points="246.062,257.375 257.375,246.062 294.75,283.422 283.438,294.75  "
   id="polygon5118"
   style="fill:#ffffff;fill-opacity:1" />
	<polygon
   points="192.469,203.781 203.781,192.453 265.953,254.625 254.625,265.938  "
   id="polygon5120"
   style="fill:#ffffff;fill-opacity:1" />
</g>
</svg>