<?xml version="1.0" encoding="UTF-8" standalone="no"?>
<!-- Generator: Adobe Illustrator 16.2.1, SVG Export Plug-In . SVG Version: 6.00 Build 0)  -->

<svg
   version="1.1"
   id="Layer_1"
   x="0px"
   y="0px"
   width="512px"
   height="512px"
   viewBox="0 0 512 512"
   enable-background="new 0 0 512 512"
   xml:space="preserve"
   inkscape:version="1.3 (0e150ed6c4, 2023-07-21)"
   sodipodi:docname="clock.svg"
   xmlns:inkscape="http://www.inkscape.org/namespaces/inkscape"
   xmlns:sodipodi="http://sodipodi.sourceforge.net/DTD/sodipodi-0.dtd"
   xmlns="http://www.w3.org/2000/svg"
   xmlns:svg="http://www.w3.org/2000/svg"
   xmlns:rdf="http://www.w3.org/1999/02/22-rdf-syntax-ns#"
   xmlns:cc="http://creativecommons.org/ns#"
   xmlns:dc="http://purl.org/dc/elements/1.1/"><metadata
   id="metadata5126"><rdf:RDF><cc:Work
       rdf:about=""><dc:format>image/svg+xml</dc:format><dc:type
         rdf:resource="http://purl.org/dc/dcmitype/StillImage" /></cc:Work></rdf:RDF></metadata><defs
   id="defs5124">&#10;	&#10;	&#10;	&#10;	&#10;	&#10;</defs><sodipodi:namedview
   pagecolor="#000000"
   bordercolor="#666666"
   borderopacity="1"
   objecttolerance="10"
   gridtolerance="10"
   guidetolerance="10"
   inkscape:pageopacity="0"
   inkscape:pageshadow="2"
   inkscape:window-width="727"
   inkscape:window-height="480"
   id="namedview5122"
   showgrid="false"
   inkscape:zoom="0.4695631"
   inkscape:cx="270.46418"
   inkscape:cy="215.09356"
   inkscape:window-x="204"
   inkscape:window-y="95"
   inkscape:window-maximized="0"
   inkscape:current-layer="Layer_1"
   inkscape:showpageshadow="0"
   inkscape:pagecheckerboard="0"
   inkscape:deskcolor="#505050" />&#10;<g
   id="g2"
   transform="matrix(1.0334646,0,0,1.0334646,-8.5669376,-8.5669376)"><path
     d="m 256,128 c -70.688,0 -128,57.312 -128,128 0,70.688 57.312,128 128,128 70.688,0 128,-57.312 128,-128 0,-70.688 -57.312,-128 -128,-128 z m 0,232 c -57.438,0 -104,-46.578 -104,-104 0,-57.438 46.562,-104 104,-104 57.422,0 104,46.562 104,104 0,57.422 -46.578,104 -104,104 z"
     id="path5114"
     style="fill:#ffffff;fill-opacity:1" /><g
     id="g1"><path
       d="m 256,272 c -8.844,0 -16,-7.156 -16,-16 0,-8.844 7.156,-16 16,-16 8.844,0 16,7.156 16,16 0,8.844 -7.156,16 -16,16 z"
       id="path5116"
       style="fill:#ffffff;fill-opacity:1" /><polygon
       points="257.375,246.062 294.75,283.422 283.438,294.75 246.062,257.375 "
       id="polygon5118"
       style="fill:#ffffff;fill-opacity:1" /><polygon
       points="203.781,192.453 265.953,254.625 254.625,265.938 192.469,203.781 "
       id="polygon5120"
       style="fill:#ffffff;fill-opacity:1" /></g></g>&#10;<rect
   style="fill:#ffffff;fill-opacity:0;fill-rule:evenodd;stroke-width:5.28775;stroke-linecap:round;stroke-dasharray:10.5756, 21.1511;paint-order:markers stroke fill"
   id="rect2"
   width="512"
   height="512"
   x="0"
   y="0" /></svg>
