<?xml version="1.0" encoding="UTF-8" standalone="no"?>
<!-- Generator: Adobe Illustrator 16.2.1, SVG Export Plug-In . SVG Version: 6.00 Build 0)  -->

<svg
   xmlns:dc="http://purl.org/dc/elements/1.1/"
   xmlns:cc="http://creativecommons.org/ns#"
   xmlns:rdf="http://www.w3.org/1999/02/22-rdf-syntax-ns#"
   xmlns:svg="http://www.w3.org/2000/svg"
   xmlns="http://www.w3.org/2000/svg"
   xmlns:sodipodi="http://sodipodi.sourceforge.net/DTD/sodipodi-0.dtd"
   xmlns:inkscape="http://www.inkscape.org/namespaces/inkscape"
   version="1.1"
   id="Layer_1"
   x="0px"
   y="0px"
   width="512px"
   height="512px"
   viewBox="0 0 512 512"
   enable-background="new 0 0 512 512"
   xml:space="preserve"
   inkscape:version="0.48+devel r12992"
   sodipodi:docname="arrow-oblique-expand-directions.svg"><metadata
   id="metadata5809"><rdf:RDF><cc:Work
       rdf:about=""><dc:format>image/svg+xml</dc:format><dc:type
         rdf:resource="http://purl.org/dc/dcmitype/StillImage" /></cc:Work></rdf:RDF></metadata><defs
   id="defs5807" /><sodipodi:namedview
   pagecolor="#ffffff"
   bordercolor="#666666"
   borderopacity="1"
   objecttolerance="10"
   gridtolerance="10"
   guidetolerance="10"
   inkscape:pageopacity="0"
   inkscape:pageshadow="2"
   inkscape:window-width="681"
   inkscape:window-height="480"
   id="namedview5805"
   showgrid="false"
   inkscape:zoom="0.4609375"
   inkscape:cx="256"
   inkscape:cy="256"
   inkscape:window-x="0"
   inkscape:window-y="0"
   inkscape:window-maximized="0"
   inkscape:current-layer="Layer_1" />
<g
   id="g5785"
   style="fill:#ffffff;fill-opacity:1">
	<path
   fill-rule="evenodd"
   clip-rule="evenodd"
   d="M256,0C114.609,0,0,114.609,0,256s114.609,256,256,256s256-114.609,256-256   S397.391,0,256,0z M256,472c-119.297,0-216-96.703-216-216S136.703,40,256,40s216,96.703,216,216S375.297,472,256,472z"
   id="path5787"
   style="fill:#ffffff;fill-opacity:1" />
	<g
   id="g5789"
   style="fill:#ffffff;fill-opacity:1">
		<polygon
   fill-rule="evenodd"
   clip-rule="evenodd"
   points="224,144 144,144 144,224 168,200 208,240 240,208 200,168   "
   id="polygon5791"
   style="fill:#ffffff;fill-opacity:1" />
	</g>
	<g
   id="g5793"
   style="fill:#ffffff;fill-opacity:1">
		<polygon
   fill-rule="evenodd"
   clip-rule="evenodd"
   points="288,368 368,368 368,288 344,312 304,272 272,304 312,344   "
   id="polygon5795"
   style="fill:#ffffff;fill-opacity:1" />
	</g>
	<g
   id="g5797"
   style="fill:#ffffff;fill-opacity:1">
		<polygon
   fill-rule="evenodd"
   clip-rule="evenodd"
   points="368,224 368,144 288,144 312,168 272,208 304,240 344,200   "
   id="polygon5799"
   style="fill:#ffffff;fill-opacity:1" />
	</g>
	<g
   id="g5801"
   style="fill:#ffffff;fill-opacity:1">
		<polygon
   fill-rule="evenodd"
   clip-rule="evenodd"
   points="144,288 144,368 224,368 200,344 240,304 208,272 168,312   "
   id="polygon5803"
   style="fill:#ffffff;fill-opacity:1" />
	</g>
</g>
</svg>