<?xml version="1.0" encoding="UTF-8" standalone="no"?>
<!-- Generator: Adobe Illustrator 16.2.1, SVG Export Plug-In . SVG Version: 6.00 Build 0)  -->

<svg
   xmlns:dc="http://purl.org/dc/elements/1.1/"
   xmlns:cc="http://creativecommons.org/ns#"
   xmlns:rdf="http://www.w3.org/1999/02/22-rdf-syntax-ns#"
   xmlns:svg="http://www.w3.org/2000/svg"
   xmlns="http://www.w3.org/2000/svg"
   xmlns:sodipodi="http://sodipodi.sourceforge.net/DTD/sodipodi-0.dtd"
   xmlns:inkscape="http://www.inkscape.org/namespaces/inkscape"
   version="1.1"
   id="Layer_1"
   x="0px"
   y="0px"
   width="512px"
   height="512px"
   viewBox="0 0 512 512"
   enable-background="new 0 0 512 512"
   xml:space="preserve"
   inkscape:version="0.48.2 r9819"
   sodipodi:docname="hide-open.svg"><metadata
   id="metadata10082"><rdf:RDF><cc:Work
       rdf:about=""><dc:format>image/svg+xml</dc:format><dc:type
         rdf:resource="http://purl.org/dc/dcmitype/StillImage" /><dc:title></dc:title></cc:Work></rdf:RDF></metadata><defs
   id="defs10080" /><sodipodi:namedview
   pagecolor="#ffffff"
   bordercolor="#666666"
   borderopacity="1"
   objecttolerance="10"
   gridtolerance="10"
   guidetolerance="10"
   inkscape:pageopacity="0"
   inkscape:pageshadow="2"
   inkscape:window-width="719"
   inkscape:window-height="480"
   id="namedview10078"
   showgrid="false"
   inkscape:zoom="0.50976562"
   inkscape:cx="256"
   inkscape:cy="256"
   inkscape:window-x="394"
   inkscape:window-y="127"
   inkscape:window-maximized="0"
   inkscape:current-layer="Layer_1" />
<g
   id="g10064"
   style="fill:#ffffff;fill-opacity:1">
	<path
   d="M256,0C114.609,0,0,114.609,0,256s114.609,256,256,256s256-114.609,256-256S397.391,0,256,0z M256,472   c-119.297,0-216-96.703-216-216S136.703,40,256,40s216,96.703,216,216S375.297,472,256,472z"
   id="path10066"
   style="fill:#ffffff;fill-opacity:1" />
	<rect
   x="128"
   y="224"
   width="160"
   height="160"
   id="rect10068"
   style="fill:#ffffff;fill-opacity:1" />
	<g
   id="g10070"
   style="fill:#ffffff;fill-opacity:1">
		<polygon
   points="336,176 176,176 176,208 304,208 304,336 336,336   "
   id="polygon10072"
   style="fill:#ffffff;fill-opacity:1" />
	</g>
	<g
   id="g10074"
   style="fill:#ffffff;fill-opacity:1">
		<polygon
   points="384,128 224,128 224,160 352,160 352,288 384,288   "
   id="polygon10076"
   style="fill:#ffffff;fill-opacity:1" />
	</g>
</g>
<path
   inkscape:connector-curvature="0"
   id="path12269"
   d="m 380.76544,365.172 -233.922,-233.938 c -4.312,-4.312 -11.297,-4.312 -15.609,0 -4.312,4.312 -4.312,11.266 0,15.594 l 233.938,233.938 c 4.312,4.312 11.297,4.312 15.594,0 4.311,-4.297 4.311,-11.282 -10e-4,-15.594 z"
   style="stroke:#000000;stroke-opacity:0.75117373;fill:#ffffff;fill-opacity:1;stroke-width:10;stroke-miterlimit:4;stroke-dasharray:none" /></svg>