<?xml version="1.0" encoding="UTF-8" standalone="no"?>
<!-- Generator: Adobe Illustrator 16.2.1, SVG Export Plug-In . SVG Version: 6.00 Build 0)  -->

<svg
   version="1.1"
   id="Layer_1"
   x="0px"
   y="0px"
   width="512px"
   height="512px"
   viewBox="0 0 512 512"
   enable-background="new 0 0 512 512"
   xml:space="preserve"
   inkscape:version="1.3 (0e150ed6c4, 2023-07-21)"
   sodipodi:docname="image.svg"
   xmlns:inkscape="http://www.inkscape.org/namespaces/inkscape"
   xmlns:sodipodi="http://sodipodi.sourceforge.net/DTD/sodipodi-0.dtd"
   xmlns="http://www.w3.org/2000/svg"
   xmlns:svg="http://www.w3.org/2000/svg"
   xmlns:rdf="http://www.w3.org/1999/02/22-rdf-syntax-ns#"
   xmlns:cc="http://creativecommons.org/ns#"
   xmlns:dc="http://purl.org/dc/elements/1.1/"><metadata
   id="metadata3050"><rdf:RDF><cc:Work
       rdf:about=""><dc:format>image/svg+xml</dc:format><dc:type
         rdf:resource="http://purl.org/dc/dcmitype/StillImage" /></cc:Work></rdf:RDF></metadata><defs
   id="defs3048" /><sodipodi:namedview
   pagecolor="#000000"
   bordercolor="#666666"
   borderopacity="1"
   objecttolerance="10"
   gridtolerance="10"
   guidetolerance="10"
   inkscape:pageopacity="0"
   inkscape:pageshadow="2"
   inkscape:window-width="1224"
   inkscape:window-height="630"
   id="namedview3046"
   showgrid="false"
   inkscape:zoom="0.4609375"
   inkscape:cx="-126.91525"
   inkscape:cy="256"
   inkscape:window-x="245"
   inkscape:window-y="169"
   inkscape:window-maximized="0"
   inkscape:current-layer="Layer_1"
   inkscape:showpageshadow="0"
   inkscape:pagecheckerboard="0"
   inkscape:deskcolor="#505050" />&#10;&#10;<g
   id="g3040"
   style="fill:#1ba1e2;fill-opacity:1"
   transform="matrix(1.0334646,0,0,1.0334646,-8.5669376,-8.5669376)">&#10;	<path
   d="m 256,224 c -26.508,0 -48,21.5 -48,48 0,26.516 21.492,48 48,48 26.516,0 48,-21.484 48,-48 0,-26.5 -21.484,-48 -48,-48 z"
   id="path3042"
   style="fill:#1ba1e2;fill-opacity:1" />&#10;	<path
   d="M 368,192 H 296.078 C 292.437,192 288.766,177.453 288,175.922 286.406,172.719 280.844,160 272,160 h -32 c -8.836,0 -14.398,12.719 -16,15.922 -0.766,1.531 -4.438,16.078 -8.078,16.078 H 144 c -8.836,0 -16,7.234 -16,16.062 v 128.016 c 0,8.844 7.164,15.922 16,15.922 h 224 c 8.844,0 16,-7.078 16,-15.922 V 208.062 C 384,199.234 376.844,192 368,192 Z M 256,336 c -35.336,0 -64,-28.641 -64,-64 0,-35.344 28.664,-64 64,-64 35.359,0 64,28.656 64,64 0,35.359 -28.641,64 -64,64 z"
   id="path3044"
   style="fill:#1ba1e2;fill-opacity:1" />&#10;</g>&#10;<rect
   style="fill:#ffffff;fill-opacity:0;fill-rule:evenodd;stroke-width:5.28775;stroke-linecap:round;stroke-dasharray:10.5756, 21.1511;paint-order:markers stroke fill"
   id="rect2"
   width="512"
   height="512"
   x="0"
   y="0" /></svg>
