<?xml version="1.0" encoding="UTF-8" standalone="no"?>
<!-- Generator: Adobe Illustrator 16.2.1, SVG Export Plug-In . SVG Version: 6.00 Build 0)  -->

<svg
   xmlns:dc="http://purl.org/dc/elements/1.1/"
   xmlns:cc="http://creativecommons.org/ns#"
   xmlns:rdf="http://www.w3.org/1999/02/22-rdf-syntax-ns#"
   xmlns:svg="http://www.w3.org/2000/svg"
   xmlns="http://www.w3.org/2000/svg"
   xmlns:sodipodi="http://sodipodi.sourceforge.net/DTD/sodipodi-0.dtd"
   xmlns:inkscape="http://www.inkscape.org/namespaces/inkscape"
   version="1.1"
   id="Layer_1"
   x="0px"
   y="0px"
   width="512px"
   height="512px"
   viewBox="0 0 512 512"
   enable-background="new 0 0 512 512"
   xml:space="preserve"
   inkscape:version="0.48.2 r9819"
   sodipodi:docname="image.svg"><metadata
   id="metadata3050"><rdf:RDF><cc:Work
       rdf:about=""><dc:format>image/svg+xml</dc:format><dc:type
         rdf:resource="http://purl.org/dc/dcmitype/StillImage" /></cc:Work></rdf:RDF></metadata><defs
   id="defs3048" /><sodipodi:namedview
   pagecolor="#ffffff"
   bordercolor="#666666"
   borderopacity="1"
   objecttolerance="10"
   gridtolerance="10"
   guidetolerance="10"
   inkscape:pageopacity="0"
   inkscape:pageshadow="2"
   inkscape:window-width="968"
   inkscape:window-height="570"
   id="namedview3046"
   showgrid="false"
   inkscape:zoom="0.4609375"
   inkscape:cx="-126.91525"
   inkscape:cy="256"
   inkscape:window-x="68"
   inkscape:window-y="49"
   inkscape:window-maximized="0"
   inkscape:current-layer="Layer_1" />
<path
   d="M256,0C114.609,0,0,114.609,0,256s114.609,256,256,256s256-114.609,256-256S397.391,0,256,0z M256,472  c-119.297,0-216-96.703-216-216S136.703,40,256,40s216,96.703,216,216S375.297,472,256,472z"
   id="path3038"
   style="fill:#1ba1e2;fill-opacity:1" />
<g
   id="g3040"
   style="fill:#1ba1e2;fill-opacity:1">
	<path
   d="M256,224c-26.508,0-48,21.5-48,48c0,26.516,21.492,48,48,48c26.516,0,48-21.484,48-48C304,245.5,282.516,224,256,224z"
   id="path3042"
   style="fill:#1ba1e2;fill-opacity:1" />
	<path
   d="M368,192h-71.922c-3.641,0-7.312-14.547-8.078-16.078c-1.594-3.203-7.156-15.922-16-15.922h-32   c-8.836,0-14.398,12.719-16,15.922c-0.766,1.531-4.438,16.078-8.078,16.078H144c-8.836,0-16,7.234-16,16.062v128.016   c0,8.844,7.164,15.922,16,15.922h224c8.844,0,16-7.078,16-15.922V208.062C384,199.234,376.844,192,368,192z M256,336   c-35.336,0-64-28.641-64-64c0-35.344,28.664-64,64-64c35.359,0,64,28.656,64,64C320,307.359,291.359,336,256,336z"
   id="path3044"
   style="fill:#1ba1e2;fill-opacity:1" />
</g>
</svg>