<?xml version="1.0" encoding="UTF-8" standalone="no"?>
<!-- Generator: Adobe Illustrator 16.2.1, SVG Export Plug-In . SVG Version: 6.00 Build 0)  -->

<svg
   xmlns:dc="http://purl.org/dc/elements/1.1/"
   xmlns:cc="http://creativecommons.org/ns#"
   xmlns:rdf="http://www.w3.org/1999/02/22-rdf-syntax-ns#"
   xmlns:svg="http://www.w3.org/2000/svg"
   xmlns="http://www.w3.org/2000/svg"
   xmlns:sodipodi="http://sodipodi.sourceforge.net/DTD/sodipodi-0.dtd"
   xmlns:inkscape="http://www.inkscape.org/namespaces/inkscape"
   version="1.1"
   id="Layer_1"
   x="0px"
   y="0px"
   width="512px"
   height="512px"
   viewBox="0 0 512 512"
   enable-background="new 0 0 512 512"
   xml:space="preserve"
   inkscape:version="0.48.2 r9819"
   sodipodi:docname="like-add.svg"><metadata
   id="metadata4359"><rdf:RDF><cc:Work
       rdf:about=""><dc:format>image/svg+xml</dc:format><dc:type
         rdf:resource="http://purl.org/dc/dcmitype/StillImage" /><dc:title></dc:title></cc:Work></rdf:RDF></metadata><defs
   id="defs4357" /><sodipodi:namedview
   pagecolor="#ffffff"
   bordercolor="#666666"
   borderopacity="1"
   objecttolerance="10"
   gridtolerance="10"
   guidetolerance="10"
   inkscape:pageopacity="0"
   inkscape:pageshadow="2"
   inkscape:window-width="719"
   inkscape:window-height="480"
   id="namedview4355"
   showgrid="false"
   inkscape:zoom="0.50976562"
   inkscape:cx="256"
   inkscape:cy="256"
   inkscape:window-x="151"
   inkscape:window-y="20"
   inkscape:window-maximized="0"
   inkscape:current-layer="Layer_1" />
<g
   id="g4345"
   style="fill:#ffffff;fill-opacity:1">
	<g
   id="g4347"
   style="fill:#ffffff;fill-opacity:1">
		<path
   d="M344,288c4.781,0,9.328,0.781,13.766,1.922C373.062,269.562,384,245.719,384,218.625C384,177.422,351.25,144,310.75,144    c-21.875,0-41.375,10.078-54.75,25.766C242.5,154.078,223,144,201.125,144C160.75,144,128,177.422,128,218.625    C128,312,256,368,256,368s14-6.203,32.641-17.688C288.406,348.203,288,346.156,288,344C288,313.125,313.125,288,344,288z"
   id="path4349"
   style="fill:#ffffff;fill-opacity:1" />
		<path
   d="M256,0C114.609,0,0,114.609,0,256s114.609,256,256,256s256-114.609,256-256S397.391,0,256,0z M256,472    c-119.297,0-216-96.703-216-216S136.703,40,256,40s216,96.703,216,216S375.297,472,256,472z"
   id="path4351"
   style="fill:#ffffff;fill-opacity:1" />
	</g>
	<path
   d="M344,304c-22.094,0-40,17.906-40,40s17.906,40,40,40s40-17.906,40-40S366.094,304,344,304z M368,352h-16v16h-16v-16h-16   v-16h16v-16h16v16h16V352z"
   id="path4353"
   style="fill:#ffffff;fill-opacity:1" />
</g>
</svg>