<?xml version="1.0" encoding="UTF-8" standalone="no"?>
<!-- Generator: Adobe Illustrator 16.2.1, SVG Export Plug-In . SVG Version: 6.00 Build 0)  -->

<svg
   version="1.1"
   id="Layer_1"
   x="0px"
   y="0px"
   width="512px"
   height="512px"
   viewBox="0 0 512 512"
   enable-background="new 0 0 512 512"
   xml:space="preserve"
   inkscape:version="1.3 (0e150ed6c4, 2023-07-21)"
   sodipodi:docname="like-remove.svg"
   xmlns:inkscape="http://www.inkscape.org/namespaces/inkscape"
   xmlns:sodipodi="http://sodipodi.sourceforge.net/DTD/sodipodi-0.dtd"
   xmlns="http://www.w3.org/2000/svg"
   xmlns:svg="http://www.w3.org/2000/svg"
   xmlns:rdf="http://www.w3.org/1999/02/22-rdf-syntax-ns#"
   xmlns:cc="http://creativecommons.org/ns#"
   xmlns:dc="http://purl.org/dc/elements/1.1/"><metadata
   id="metadata4954"><rdf:RDF><cc:Work
       rdf:about=""><dc:format>image/svg+xml</dc:format><dc:type
         rdf:resource="http://purl.org/dc/dcmitype/StillImage" /></cc:Work></rdf:RDF></metadata><defs
   id="defs4952">&#10;	&#10;	&#10;&#10;		&#10;	&#10;			&#10;			&#10;		</defs><sodipodi:namedview
   pagecolor="#000000"
   bordercolor="#666666"
   borderopacity="1"
   objecttolerance="10"
   gridtolerance="10"
   guidetolerance="10"
   inkscape:pageopacity="0"
   inkscape:pageshadow="2"
   inkscape:window-width="727"
   inkscape:window-height="480"
   id="namedview4950"
   showgrid="false"
   inkscape:zoom="0.50976562"
   inkscape:cx="278.55939"
   inkscape:cy="255.01916"
   inkscape:window-x="312"
   inkscape:window-y="152"
   inkscape:window-maximized="0"
   inkscape:current-layer="Layer_1"
   inkscape:showpageshadow="0"
   inkscape:pagecheckerboard="0"
   inkscape:deskcolor="#505050" />&#10;<g
   id="g1"><path
     d="m 344,288 c 4.781,0 9.328,0.781 13.766,1.922 C 373.062,269.562 384,245.719 384,218.625 384,177.422 351.25,144 310.75,144 288.875,144 269.375,154.078 256,169.766 242.5,154.078 223,144 201.125,144 160.75,144 128,177.422 128,218.625 128,312 256,368 256,368 c 0,0 14,-6.203 32.641,-17.688 C 288.406,348.203 288,346.156 288,344 c 0,-30.875 25.125,-56 56,-56 z"
     id="path4942"
     style="fill:#ffffff;fill-opacity:1" /><g
     id="g4946"
     style="fill:#ffffff;fill-opacity:1">&#10;		<path
   d="m 344,304 c -22.094,0 -40,17.906 -40,40 0,22.094 17.906,40 40,40 22.094,0 40,-17.906 40,-40 0,-22.094 -17.906,-40 -40,-40 z m 24,48 h -48 v -16 h 48 z"
   id="path4948"
   style="fill:#ffffff;fill-opacity:1" />&#10;	</g></g>&#10;<rect
   style="fill:#ffffff;fill-opacity:0;fill-rule:evenodd;stroke-width:5.28775;stroke-linecap:round;stroke-dasharray:10.5756, 21.1511;paint-order:markers stroke fill"
   id="rect2"
   width="512"
   height="512"
   x="0"
   y="0" /></svg>
