<?xml version="1.0" encoding="UTF-8" standalone="no"?>
<!-- Generator: Adobe Illustrator 16.2.1, SVG Export Plug-In . SVG Version: 6.00 Build 0)  -->

<svg
   xmlns:dc="http://purl.org/dc/elements/1.1/"
   xmlns:cc="http://creativecommons.org/ns#"
   xmlns:rdf="http://www.w3.org/1999/02/22-rdf-syntax-ns#"
   xmlns:svg="http://www.w3.org/2000/svg"
   xmlns="http://www.w3.org/2000/svg"
   xmlns:sodipodi="http://sodipodi.sourceforge.net/DTD/sodipodi-0.dtd"
   xmlns:inkscape="http://www.inkscape.org/namespaces/inkscape"
   version="1.1"
   id="Layer_1"
   x="0px"
   y="0px"
   width="512px"
   height="512px"
   viewBox="0 0 512 512"
   enable-background="new 0 0 512 512"
   xml:space="preserve"
   inkscape:version="0.48.2 r9819"
   sodipodi:docname="off.svg"><metadata
   id="metadata4951"><rdf:RDF><cc:Work
       rdf:about=""><dc:format>image/svg+xml</dc:format><dc:type
         rdf:resource="http://purl.org/dc/dcmitype/StillImage" /></cc:Work></rdf:RDF></metadata><defs
   id="defs4949" /><sodipodi:namedview
   pagecolor="#ffffff"
   bordercolor="#666666"
   borderopacity="1"
   objecttolerance="10"
   gridtolerance="10"
   guidetolerance="10"
   inkscape:pageopacity="0"
   inkscape:pageshadow="2"
   inkscape:window-width="1084"
   inkscape:window-height="559"
   id="namedview4947"
   showgrid="false"
   inkscape:zoom="0.4609375"
   inkscape:cx="-126.91525"
   inkscape:cy="256"
   inkscape:window-x="143"
   inkscape:window-y="37"
   inkscape:window-maximized="0"
   inkscape:current-layer="Layer_1" />
<g
   id="g4939"
   style="fill:#e51400;fill-opacity:1">
	<path
   d="M256,0C114.609,0,0,114.609,0,256s114.609,256,256,256s256-114.609,256-256S397.391,0,256,0z M256,472   c-119.297,0-216-96.703-216-216S136.703,40,256,40s216,96.703,216,216S375.297,472,256,472z"
   id="path4941"
   style="fill:#e51400;fill-opacity:1" />
	<rect
   x="240"
   y="128"
   width="32"
   height="80"
   id="rect4943"
   style="fill:#e51400;fill-opacity:1" />
	<path
   d="M288,164.703v34.047c28.219,12.359,48,40.469,48,73.25c0,44.172-35.828,80-80,80c-44.188,0-80-35.828-80-80   c0-32.781,19.766-60.891,48-73.25v-34.047c-46.25,13.766-80,56.562-80,107.297c0,61.859,50.141,112,112,112s112-50.141,112-112   C368,221.266,334.25,178.469,288,164.703z"
   id="path4945"
   style="fill:#e51400;fill-opacity:1" />
</g>
</svg>