<?xml version="1.0" encoding="UTF-8" standalone="no"?>
<!-- Generator: Adobe Illustrator 16.2.1, SVG Export Plug-In . SVG Version: 6.00 Build 0)  -->

<svg
   version="1.1"
   id="Layer_1"
   x="0px"
   y="0px"
   width="512px"
   height="512px"
   viewBox="0 0 512 512"
   enable-background="new 0 0 512 512"
   xml:space="preserve"
   inkscape:version="1.3 (0e150ed6c4, 2023-07-21)"
   sodipodi:docname="off.svg"
   xmlns:inkscape="http://www.inkscape.org/namespaces/inkscape"
   xmlns:sodipodi="http://sodipodi.sourceforge.net/DTD/sodipodi-0.dtd"
   xmlns="http://www.w3.org/2000/svg"
   xmlns:svg="http://www.w3.org/2000/svg"
   xmlns:rdf="http://www.w3.org/1999/02/22-rdf-syntax-ns#"
   xmlns:cc="http://creativecommons.org/ns#"
   xmlns:dc="http://purl.org/dc/elements/1.1/"><metadata
   id="metadata4951"><rdf:RDF><cc:Work
       rdf:about=""><dc:format>image/svg+xml</dc:format><dc:type
         rdf:resource="http://purl.org/dc/dcmitype/StillImage" /></cc:Work></rdf:RDF></metadata><defs
   id="defs4949">&#10;	&#10;	&#10;	&#10;</defs><sodipodi:namedview
   pagecolor="#000000"
   bordercolor="#666666"
   borderopacity="1"
   objecttolerance="10"
   gridtolerance="10"
   guidetolerance="10"
   inkscape:pageopacity="0"
   inkscape:pageshadow="2"
   inkscape:window-width="1084"
   inkscape:window-height="559"
   id="namedview4947"
   showgrid="false"
   inkscape:zoom="0.4609375"
   inkscape:cx="-81.355932"
   inkscape:cy="257.08475"
   inkscape:window-x="143"
   inkscape:window-y="37"
   inkscape:window-maximized="0"
   inkscape:current-layer="Layer_1"
   inkscape:showpageshadow="0"
   inkscape:pagecheckerboard="0"
   inkscape:deskcolor="#505050" />&#10;<g
   id="g1"
   transform="matrix(1.0334646,0,0,1.0334646,-8.5669376,-8.5669291)"><rect
     x="240"
     y="128"
     width="32"
     height="80"
     id="rect4943"
     style="fill:#e51400;fill-opacity:1" /><path
     d="m 288,164.703 v 34.047 c 28.219,12.359 48,40.469 48,73.25 0,44.172 -35.828,80 -80,80 -44.188,0 -80,-35.828 -80,-80 0,-32.781 19.766,-60.891 48,-73.25 v -34.047 c -46.25,13.766 -80,56.562 -80,107.297 0,61.859 50.141,112 112,112 61.859,0 112,-50.141 112,-112 0,-50.734 -33.75,-93.531 -80,-107.297 z"
     id="path4945"
     style="fill:#e51400;fill-opacity:1" /></g>&#10;<rect
   style="fill:#ffffff;fill-opacity:0;fill-rule:evenodd;stroke-width:5.28775;stroke-linecap:round;stroke-dasharray:10.5756, 21.1511;paint-order:markers stroke fill"
   id="rect2"
   width="512"
   height="512"
   x="0"
   y="0" /></svg>
