<?xml version="1.0" encoding="UTF-8" standalone="no"?>
<!-- Generator: Adobe Illustrator 16.2.1, SVG Export Plug-In . SVG Version: 6.00 Build 0)  -->

<svg
   version="1.1"
   id="Layer_1"
   x="0px"
   y="0px"
   width="512px"
   height="512px"
   viewBox="0 0 512 512"
   enable-background="new 0 0 512 512"
   xml:space="preserve"
   inkscape:version="1.3 (0e150ed6c4, 2023-07-21)"
   sodipodi:docname="options-settings.svg"
   xmlns:inkscape="http://www.inkscape.org/namespaces/inkscape"
   xmlns:sodipodi="http://sodipodi.sourceforge.net/DTD/sodipodi-0.dtd"
   xmlns="http://www.w3.org/2000/svg"
   xmlns:svg="http://www.w3.org/2000/svg"
   xmlns:rdf="http://www.w3.org/1999/02/22-rdf-syntax-ns#"
   xmlns:cc="http://creativecommons.org/ns#"
   xmlns:dc="http://purl.org/dc/elements/1.1/"><metadata
   id="metadata6484"><rdf:RDF><cc:Work
       rdf:about=""><dc:format>image/svg+xml</dc:format><dc:type
         rdf:resource="http://purl.org/dc/dcmitype/StillImage" /></cc:Work></rdf:RDF></metadata><defs
   id="defs6482" /><sodipodi:namedview
   pagecolor="#000000"
   bordercolor="#666666"
   borderopacity="1"
   objecttolerance="10"
   gridtolerance="10"
   guidetolerance="10"
   inkscape:pageopacity="0"
   inkscape:pageshadow="2"
   inkscape:window-width="988"
   inkscape:window-height="619"
   id="namedview6480"
   showgrid="false"
   inkscape:zoom="0.6640625"
   inkscape:cx="256.75294"
   inkscape:cy="256.75294"
   inkscape:window-x="0"
   inkscape:window-y="0"
   inkscape:window-maximized="0"
   inkscape:current-layer="Layer_1"
   inkscape:showpageshadow="0"
   inkscape:pagecheckerboard="0"
   inkscape:deskcolor="#505050" />&#10;&#10;<g
   id="g6472"
   style="fill:#ff0097;fill-opacity:1"
   transform="matrix(1.033456,0,0,1.033456,-8.5636397,-8.5660119)">&#10;	<path
   d="m 152.312,242.875 c 17.797,14.688 42.258,16.219 61.484,5.828 l 4.227,3.828 18.062,-14.906 c -1.367,-3.688 -1.914,-7.656 -1.547,-11.688 0.516,-5.719 2.859,-10.969 6.602,-15.234 3.102,-18.172 -3.266,-37.375 -18.641,-50.062 -16.188,-13.344 -37.164,-21.203 -55.352,-13.766 -2.273,0.938 7.055,20.531 7.055,20.531 l 23.57,7.875 7.736,26.719 -7.359,8.625 -7.344,8.609 -28.141,-2.844 -11.953,-21.422 c 0,0 -21.266,-5.656 -21.805,-3.328 -4.304,18.954 7.219,37.891 23.406,51.235 z"
   id="path6474"
   style="fill:#ff0097;fill-opacity:1" />&#10;	<path
   d="M 375.875,322 307.75,270.797 c -1.406,2 -2.969,3.859 -4.938,5.484 -4.844,4.031 -11.172,6.297 -17.656,6.297 -4.891,0 -9.609,-1.266 -13.75,-3.594 L 258.804,289.39 340.609,363.343 360.484,368 372.265,354.219 384,340.438 Z"
   id="path6476"
   style="fill:#ff0097;fill-opacity:1" />&#10;	<path
   d="m 278.047,261.312 c 3.297,3.875 9.156,4.391 13.078,1.125 3.891,-3.188 4.406,-8.875 1.234,-12.75 l 70.375,-57.672 c 7.672,-6.328 8.672,-17.578 2.234,-25.125 -6.453,-7.547 -17.922,-8.531 -25.562,-2.203 L 269,222.375 c -3.297,-3.781 -9.07,-4.266 -12.961,-1.031 -3.93,3.219 -4.438,9.016 -1.133,12.859 l 5.703,6.672 -97.93,80.781 -13.031,3.953 -15,19.156 11.75,13.766 21.555,-10.594 6.586,-12.406 97.836,-80.859 z"
   id="path6478"
   style="fill:#ff0097;fill-opacity:1" />&#10;</g>&#10;<rect
   style="fill:#ffffff;fill-opacity:0;fill-rule:evenodd;stroke-width:5.28775;stroke-linecap:round;stroke-dasharray:10.5756, 21.1511;paint-order:markers stroke fill"
   id="rect2"
   width="512"
   height="512"
   x="0"
   y="0" /></svg>
