<?xml version="1.0" encoding="UTF-8" standalone="no"?>
<!-- Generator: Adobe Illustrator 16.2.1, SVG Export Plug-In . SVG Version: 6.00 Build 0)  -->

<svg
   xmlns:dc="http://purl.org/dc/elements/1.1/"
   xmlns:cc="http://creativecommons.org/ns#"
   xmlns:rdf="http://www.w3.org/1999/02/22-rdf-syntax-ns#"
   xmlns:svg="http://www.w3.org/2000/svg"
   xmlns="http://www.w3.org/2000/svg"
   xmlns:sodipodi="http://sodipodi.sourceforge.net/DTD/sodipodi-0.dtd"
   xmlns:inkscape="http://www.inkscape.org/namespaces/inkscape"
   version="1.1"
   id="Layer_1"
   x="0px"
   y="0px"
   width="512px"
   height="512px"
   viewBox="0 0 512 512"
   enable-background="new 0 0 512 512"
   xml:space="preserve"
   inkscape:version="0.48+devel r12992"
   sodipodi:docname="refresh.svg"><metadata
   id="metadata6360"><rdf:RDF><cc:Work
       rdf:about=""><dc:format>image/svg+xml</dc:format><dc:type
         rdf:resource="http://purl.org/dc/dcmitype/StillImage" /></cc:Work></rdf:RDF></metadata><defs
   id="defs6358" /><sodipodi:namedview
   pagecolor="#ffffff"
   bordercolor="#666666"
   borderopacity="1"
   objecttolerance="10"
   gridtolerance="10"
   guidetolerance="10"
   inkscape:pageopacity="0"
   inkscape:pageshadow="2"
   inkscape:window-width="919"
   inkscape:window-height="502"
   id="namedview6356"
   showgrid="false"
   inkscape:zoom="0.4609375"
   inkscape:cx="46.644068"
   inkscape:cy="256"
   inkscape:window-x="226"
   inkscape:window-y="114"
   inkscape:window-maximized="0"
   inkscape:current-layer="Layer_1" />
<path
   d="M256,0C114.609,0,0,114.609,0,256s114.609,256,256,256s256-114.609,256-256S397.391,0,256,0z M256,472  c-119.297,0-216-96.703-216-216S136.703,40,256,40s216,96.703,216,216S375.297,472,256,472z"
   id="path6352"
   style="fill:#ffffff;fill-opacity:1" />
<path
   d="M354.554,236.532c6.422,31.797-2.75,66.047-27.484,90.703c-39.234,39.203-102.907,39.203-142.172,0  c-39.281-39.188-39.266-102.688,0-141.859c39.094-38.984,102.782-38.641,141.594-0.484l-13.828,14.391l63.609,14.469l-17.875-62.016  l-12.891,13.375c-51.719-50.594-130.329-48.641-180.016,0.906c-49.984,49.875-49.984,130.703,0,180.562  c50,49.891,131.016,49.891,181,0c28.25-28.125,40.5-66.125,36.891-102.828L354.554,236.532z"
   id="path6354"
   style="fill:#ffffff;fill-opacity:1" />
</svg>