<?xml version="1.0" encoding="UTF-8" standalone="no"?>
<!-- Generator: Adobe Illustrator 16.2.1, SVG Export Plug-In . SVG Version: 6.00 Build 0)  -->

<svg
   xmlns:dc="http://purl.org/dc/elements/1.1/"
   xmlns:cc="http://creativecommons.org/ns#"
   xmlns:rdf="http://www.w3.org/1999/02/22-rdf-syntax-ns#"
   xmlns:svg="http://www.w3.org/2000/svg"
   xmlns="http://www.w3.org/2000/svg"
   xmlns:sodipodi="http://sodipodi.sourceforge.net/DTD/sodipodi-0.dtd"
   xmlns:inkscape="http://www.inkscape.org/namespaces/inkscape"
   version="1.1"
   id="Layer_1"
   x="0px"
   y="0px"
   width="512px"
   height="512px"
   viewBox="0 0 512 512"
   enable-background="new 0 0 512 512"
   xml:space="preserve"
   inkscape:version="0.48+devel r12992"
   sodipodi:docname="sliders.svg"><metadata
   id="metadata5242"><rdf:RDF><cc:Work
       rdf:about=""><dc:format>image/svg+xml</dc:format><dc:type
         rdf:resource="http://purl.org/dc/dcmitype/StillImage" /></cc:Work></rdf:RDF></metadata><defs
   id="defs5240" /><sodipodi:namedview
   pagecolor="#ffffff"
   bordercolor="#666666"
   borderopacity="1"
   objecttolerance="10"
   gridtolerance="10"
   guidetolerance="10"
   inkscape:pageopacity="0"
   inkscape:pageshadow="2"
   inkscape:window-width="681"
   inkscape:window-height="480"
   id="namedview5238"
   showgrid="false"
   inkscape:zoom="0.4609375"
   inkscape:cx="256"
   inkscape:cy="256"
   inkscape:window-x="0"
   inkscape:window-y="0"
   inkscape:window-maximized="0"
   inkscape:current-layer="Layer_1" />
<g
   id="g5202"
   style="fill:#ffffff;fill-opacity:1">
	<path
   d="M256,0C114.609,0,0,114.609,0,256s114.609,256,256,256s256-114.609,256-256S397.391,0,256,0z M256,472   c-119.297,0-216-96.703-216-216S136.703,40,256,40s216,96.703,216,216S375.297,472,256,472z"
   id="path5204"
   style="fill:#ffffff;fill-opacity:1" />
	<path
   d="M336,176c-13.266,0-24-10.75-24-24s10.734-24,24-24c13.25,0,24,10.75,24,24S349.25,176,336,176z"
   id="path5206"
   style="fill:#ffffff;fill-opacity:1" />
	<path
   d="M288,240c-13.266,0-24-10.75-24-24s10.734-24,24-24c13.25,0,24,10.75,24,24S301.25,240,288,240z"
   id="path5208"
   style="fill:#ffffff;fill-opacity:1" />
	<path
   d="M232,320c-13.266,0-24-10.75-24-24s10.734-24,24-24c13.25,0,24,10.75,24,24S245.25,320,232,320z"
   id="path5210"
   style="fill:#ffffff;fill-opacity:1" />
	<path
   d="M176,384c-13.266,0-24-10.75-24-24s10.734-24,24-24c13.25,0,24,10.75,24,24S189.25,384,176,384z"
   id="path5212"
   style="fill:#ffffff;fill-opacity:1" />
	<g
   id="g5214"
   style="fill:#ffffff;fill-opacity:1">
		<path
   d="M296.812,144H128v16h168.812c-0.531-2.594-0.812-5.25-0.812-8S296.281,146.594,296.812,144z"
   id="path5216"
   style="fill:#ffffff;fill-opacity:1" />
		<path
   d="M384,144h-8.812c0.531,2.594,0.812,5.25,0.812,8s-0.281,5.406-0.812,8H384V144z"
   id="path5218"
   style="fill:#ffffff;fill-opacity:1" />
	</g>
	<g
   id="g5220"
   style="fill:#ffffff;fill-opacity:1">
		<path
   d="M248.812,208H128v16h120.812c-0.531-2.594-0.812-5.25-0.812-8S248.281,210.594,248.812,208z"
   id="path5222"
   style="fill:#ffffff;fill-opacity:1" />
		<path
   d="M384,208h-56.812c0.531,2.594,0.812,5.25,0.812,8s-0.281,5.406-0.812,8H384V208z"
   id="path5224"
   style="fill:#ffffff;fill-opacity:1" />
	</g>
	<g
   id="g5226"
   style="fill:#ffffff;fill-opacity:1">
		<path
   d="M192.812,288H128v16h64.812c-0.531-2.594-0.812-5.266-0.812-8S192.281,290.594,192.812,288z"
   id="path5228"
   style="fill:#ffffff;fill-opacity:1" />
		<path
   d="M384,288H271.188c0.531,2.594,0.812,5.266,0.812,8s-0.281,5.406-0.812,8H384V288z"
   id="path5230"
   style="fill:#ffffff;fill-opacity:1" />
	</g>
	<g
   id="g5232"
   style="fill:#ffffff;fill-opacity:1">
		<path
   d="M136.812,352H128v16h8.812c-0.531-2.594-0.812-5.266-0.812-8S136.281,354.594,136.812,352z"
   id="path5234"
   style="fill:#ffffff;fill-opacity:1" />
		<path
   d="M384,352H215.188c0.531,2.594,0.812,5.266,0.812,8s-0.281,5.406-0.812,8H384V352z"
   id="path5236"
   style="fill:#ffffff;fill-opacity:1" />
	</g>
</g>
</svg>