<?xml version="1.0" encoding="UTF-8" standalone="no"?>
<!-- Generator: Adobe Illustrator 16.2.1, SVG Export Plug-In . SVG Version: 6.00 Build 0)  -->

<svg
   version="1.1"
   id="Layer_1"
   x="0px"
   y="0px"
   width="512px"
   height="512px"
   viewBox="0 0 512 512"
   enable-background="new 0 0 512 512"
   xml:space="preserve"
   inkscape:version="1.3 (0e150ed6c4, 2023-07-21)"
   sodipodi:docname="sound-shift.svg"
   xmlns:inkscape="http://www.inkscape.org/namespaces/inkscape"
   xmlns:sodipodi="http://sodipodi.sourceforge.net/DTD/sodipodi-0.dtd"
   xmlns="http://www.w3.org/2000/svg"
   xmlns:svg="http://www.w3.org/2000/svg"
   xmlns:rdf="http://www.w3.org/1999/02/22-rdf-syntax-ns#"
   xmlns:cc="http://creativecommons.org/ns#"
   xmlns:dc="http://purl.org/dc/elements/1.1/"><metadata
   id="metadata7359"><rdf:RDF><cc:Work
       rdf:about=""><dc:format>image/svg+xml</dc:format><dc:type
         rdf:resource="http://purl.org/dc/dcmitype/StillImage" /></cc:Work></rdf:RDF></metadata><defs
   id="defs7357">&#10;	&#10;	&#10;</defs><sodipodi:namedview
   pagecolor="#000000"
   bordercolor="#666666"
   borderopacity="1"
   objecttolerance="10"
   gridtolerance="10"
   guidetolerance="10"
   inkscape:pageopacity="0"
   inkscape:pageshadow="2"
   inkscape:window-width="1382"
   inkscape:window-height="635"
   id="namedview7355"
   showgrid="false"
   inkscape:zoom="0.50976562"
   inkscape:cx="-91.218392"
   inkscape:cy="256"
   inkscape:window-x="521"
   inkscape:window-y="199"
   inkscape:window-maximized="0"
   inkscape:current-layer="Layer_1"
   inkscape:showpageshadow="0"
   inkscape:pagecheckerboard="0"
   inkscape:deskcolor="#505050" />&#10;<path
   inkscape:connector-curvature="0"
   style="fill:#8cbf26;fill-opacity:1;stroke-width:1.1811"
   id="path7353"
   d="M 344.74921,128.7869 227.8378,199.30226 h -75.77481 c -5.22283,0 -9.44882,4.22598 -9.44882,9.44881 v 94.48819 c 0,5.22284 4.22599,9.44882 9.44882,9.44882 h 79.72441 l 112.96181,70.53425 c 20.11536,11.77441 24.63662,2.28898 24.63662,-21.07559 V 149.8247 c 0,-23.32677 -4.52126,-32.8311 -24.63662,-21.0378 z" />&#10;<polygon
   transform="matrix(1.21,0,0,1,-53.76,163.80077)"
   clip-rule="evenodd"
   points="208,304 208,272 304,272 304,304 352,256 304,208 304,240 208,240 208,208 160,256 "
   id="polygon11457"
   style="fill:#8cbf26;fill-opacity:1;fill-rule:evenodd" /><rect
   style="fill:#ffffff;fill-opacity:0;fill-rule:evenodd;stroke-width:5.28775;stroke-linecap:round;stroke-dasharray:10.5756, 21.1511;paint-order:markers stroke fill"
   id="rect2"
   width="512"
   height="512"
   x="0"
   y="0" /></svg>
