<?xml version="1.0" encoding="UTF-8" standalone="no"?>
<!-- Generator: Adobe Illustrator 16.2.1, SVG Export Plug-In . SVG Version: 6.00 Build 0)  -->

<svg
   xmlns:dc="http://purl.org/dc/elements/1.1/"
   xmlns:cc="http://creativecommons.org/ns#"
   xmlns:rdf="http://www.w3.org/1999/02/22-rdf-syntax-ns#"
   xmlns:svg="http://www.w3.org/2000/svg"
   xmlns="http://www.w3.org/2000/svg"
   xmlns:sodipodi="http://sodipodi.sourceforge.net/DTD/sodipodi-0.dtd"
   xmlns:inkscape="http://www.inkscape.org/namespaces/inkscape"
   version="1.1"
   id="Layer_1"
   x="0px"
   y="0px"
   width="512px"
   height="512px"
   viewBox="0 0 512 512"
   enable-background="new 0 0 512 512"
   xml:space="preserve"
   inkscape:version="0.48.2 r9819"
   sodipodi:docname="sound-on.svg"><metadata
   id="metadata7359"><rdf:RDF><cc:Work
       rdf:about=""><dc:format>image/svg+xml</dc:format><dc:type
         rdf:resource="http://purl.org/dc/dcmitype/StillImage" /></cc:Work></rdf:RDF></metadata><defs
   id="defs7357" /><sodipodi:namedview
   pagecolor="#ffffff"
   bordercolor="#666666"
   borderopacity="1"
   objecttolerance="10"
   gridtolerance="10"
   guidetolerance="10"
   inkscape:pageopacity="0"
   inkscape:pageshadow="2"
   inkscape:window-width="719"
   inkscape:window-height="480"
   id="namedview7355"
   showgrid="false"
   inkscape:zoom="0.50976562"
   inkscape:cx="256"
   inkscape:cy="256"
   inkscape:window-x="191"
   inkscape:window-y="77"
   inkscape:window-maximized="0"
   inkscape:current-layer="Layer_1" />
<g
   id="g7349"
   style="fill:#339933;fill-opacity:1">
	<path
   fill-rule="evenodd"
   clip-rule="evenodd"
   d="M256,0C114.609,0,0,114.609,0,256s114.609,256,256,256s256-114.609,256-256   S397.391,0,256,0z M256,472c-119.297,0-216-96.703-216-216S136.703,40,256,40s216,96.703,216,216S375.297,472,256,472z"
   id="path7351"
   style="fill:#339933;fill-opacity:1" />
	<path
   d="M331.141,148.297L232.156,208H168c-4.422,0-8,3.578-8,8v80c0,4.422,3.578,8,8,8h67.5l95.641,59.719   c17.031,9.969,20.859,1.938,20.859-17.844V166.109C352,146.359,348.172,138.312,331.141,148.297z"
   id="path7353"
   style="fill:#339933;fill-opacity:1" />
</g>
</svg>