<?xml version="1.0" encoding="UTF-8" standalone="no"?>
<!-- Generator: Adobe Illustrator 16.2.1, SVG Export Plug-In . SVG Version: 6.00 Build 0)  -->

<svg
   xmlns:dc="http://purl.org/dc/elements/1.1/"
   xmlns:cc="http://creativecommons.org/ns#"
   xmlns:rdf="http://www.w3.org/1999/02/22-rdf-syntax-ns#"
   xmlns:svg="http://www.w3.org/2000/svg"
   xmlns="http://www.w3.org/2000/svg"
   xmlns:sodipodi="http://sodipodi.sourceforge.net/DTD/sodipodi-0.dtd"
   xmlns:inkscape="http://www.inkscape.org/namespaces/inkscape"
   version="1.1"
   id="Layer_1"
   x="0px"
   y="0px"
   width="512px"
   height="512px"
   viewBox="0 0 512 512"
   enable-background="new 0 0 512 512"
   xml:space="preserve"
   inkscape:version="0.48.2 r9819"
   sodipodi:docname="sound-shift.svg"><metadata
   id="metadata7359"><rdf:RDF><cc:Work
       rdf:about=""><dc:format>image/svg+xml</dc:format><dc:type
         rdf:resource="http://purl.org/dc/dcmitype/StillImage" /><dc:title></dc:title></cc:Work></rdf:RDF></metadata><defs
   id="defs7357">
	
	
</defs><sodipodi:namedview
   pagecolor="#ffffff"
   bordercolor="#666666"
   borderopacity="1"
   objecttolerance="10"
   gridtolerance="10"
   guidetolerance="10"
   inkscape:pageopacity="0"
   inkscape:pageshadow="2"
   inkscape:window-width="1057"
   inkscape:window-height="635"
   id="namedview7355"
   showgrid="false"
   inkscape:zoom="0.50976562"
   inkscape:cx="-90.237551"
   inkscape:cy="256"
   inkscape:window-x="521"
   inkscape:window-y="199"
   inkscape:window-maximized="0"
   inkscape:current-layer="Layer_1" />
<path
   inkscape:connector-curvature="0"
   style="fill:#8cbf26;fill-opacity:1;fill-rule:evenodd"
   id="path7351"
   d="M 256,0 C 114.609,0 0,114.609 0,256 0,397.391 114.609,512 256,512 397.391,512 512,397.391 512,256 512,114.609 397.391,0 256,0 z m 0,472 C 136.703,472 40,375.297 40,256 40,136.703 136.703,40 256,40 c 119.297,0 216,96.703 216,216 0,119.297 -96.703,216 -216,216 z"
   clip-rule="evenodd" /><path
   inkscape:connector-curvature="0"
   style="fill:#8cbf26;fill-opacity:1"
   id="path7353"
   d="M 331.141,124.297 232.156,184 H 168 c -4.422,0 -8,3.578 -8,8 v 80 c 0,4.422 3.578,8 8,8 h 67.5 l 95.641,59.719 C 348.172,349.688 352,341.657 352,321.875 V 142.109 c 0,-19.75 -3.828,-27.797 -20.859,-17.812 z" />
<polygon
   transform="matrix(1.21,0,0,1,-52.779155,140.26054)"
   clip-rule="evenodd"
   points="208,208 160,256 208,304 208,272 304,272 304,304 352,256 304,208 304,240 208,240 "
   id="polygon11457"
   style="fill-rule:evenodd;fill:#8cbf26;fill-opacity:1" /></svg>