<?xml version="1.0" encoding="UTF-8" standalone="no"?>
<!-- Generator: Adobe Illustrator 16.2.1, SVG Export Plug-In . SVG Version: 6.00 Build 0)  -->

<svg
   xmlns:dc="http://purl.org/dc/elements/1.1/"
   xmlns:cc="http://creativecommons.org/ns#"
   xmlns:rdf="http://www.w3.org/1999/02/22-rdf-syntax-ns#"
   xmlns:svg="http://www.w3.org/2000/svg"
   xmlns="http://www.w3.org/2000/svg"
   xmlns:sodipodi="http://sodipodi.sourceforge.net/DTD/sodipodi-0.dtd"
   xmlns:inkscape="http://www.inkscape.org/namespaces/inkscape"
   version="1.1"
   id="Layer_1"
   x="0px"
   y="0px"
   width="512px"
   height="512px"
   viewBox="0 0 512 512"
   enable-background="new 0 0 512 512"
   xml:space="preserve"
   inkscape:version="0.48.2 r9819"
   sodipodi:docname="subtitles.svg"><metadata
   id="metadata3931"><rdf:RDF><cc:Work
       rdf:about=""><dc:format>image/svg+xml</dc:format><dc:type
         rdf:resource="http://purl.org/dc/dcmitype/StillImage" /></cc:Work></rdf:RDF></metadata><defs
   id="defs3929" /><sodipodi:namedview
   pagecolor="#ffffff"
   bordercolor="#666666"
   borderopacity="1"
   objecttolerance="10"
   gridtolerance="10"
   guidetolerance="10"
   inkscape:pageopacity="0"
   inkscape:pageshadow="2"
   inkscape:window-width="1058"
   inkscape:window-height="556"
   id="namedview3927"
   showgrid="false"
   inkscape:zoom="0.4609375"
   inkscape:cx="-126.91525"
   inkscape:cy="256"
   inkscape:window-x="123"
   inkscape:window-y="162"
   inkscape:window-maximized="0"
   inkscape:current-layer="Layer_1" />
<path
   d="M256-2C114.609-2,0,112.609,0,254s114.609,256,256,256s256-114.609,256-256S397.391-2,256-2z M256,470  c-119.297,0-216-96.703-216-216S136.703,38,256,38s216,96.703,216,216S375.297,470,256,470z"
   id="path3923"
   style="fill:#a05000;fill-opacity:1" />
<path
   d="M349.328,142H162.664C152.359,142,144,150.359,144,160.656v122.672c0,10.312,8.359,18.672,18.664,18.672H176v64l37.336-64  h135.992c10.312,0,18.672-8.359,18.672-18.672V160.656C368,150.359,359.641,142,349.328,142z M336,270h-96v-16h96V270z M336,222H176  v-16h160V222z M336,190H176v-16h160V190z"
   id="path3925"
   style="fill:#a05000;fill-opacity:1" />
</svg>